M48
; DRILL file {KiCad 8.0.7-rc1-202412020537~5dd4718db0~ubuntu22.04.1} date 2025-02-21T12:43:02+0100
; FORMAT={-:-/ absolute / metric / decimal}
; #@! TF.CreationDate,2025-02-21T12:43:02+01:00
; #@! TF.GenerationSoftware,Kicad,Pcbnew,8.0.7-rc1-202412020537~5dd4718db0~ubuntu22.04.1
; #@! TF.FileFunction,Plated,1,4,PTH
FMAT,2
METRIC
; #@! TA.AperFunction,Plated,PTH,ViaDrill
T1C0.200
%
G90
G05
T1
X2.025Y10.361
X2.025Y4.967
X3.8Y10.361
X3.8Y4.967
X13.7Y1.521
X15.1Y2.121
X16.26Y2.121
X17.4Y2.121
X18.56Y2.121
X19.7Y2.121
X20.86Y2.121
X22.0Y2.121
X23.16Y2.121
X24.2Y2.121
X25.36Y2.121
X26.316Y14.009
X26.321Y12.678
X26.5Y2.121
X27.66Y2.121
X28.8Y2.121
X29.96Y2.121
X31.1Y2.121
X32.26Y2.121
X33.3Y2.121
X34.46Y2.121
X35.674Y1.548
X38.081Y12.568
X45.9Y10.436
X45.9Y4.986
X47.425Y10.411
X47.425Y4.961
M30
