G04 #@! TF.GenerationSoftware,KiCad,Pcbnew,7.0.6-7.0.6~ubuntu22.04.1*
G04 #@! TF.CreationDate,2023-07-21T09:41:17+02:00*
G04 #@! TF.ProjectId,basic,62617369-632e-46b6-9963-61645f706362,rev?*
G04 #@! TF.SameCoordinates,PX8583b00PY68e7780*
G04 #@! TF.FileFunction,Copper,L1,Top*
G04 #@! TF.FilePolarity,Positive*
%FSLAX46Y46*%
G04 Gerber Fmt 4.6, Leading zero omitted, Abs format (unit mm)*
G04 Created by KiCad (PCBNEW 7.0.6-7.0.6~ubuntu22.04.1) date 2023-07-21 09:41:17*
%MOMM*%
%LPD*%
G01*
G04 APERTURE LIST*
G04 #@! TA.AperFunction,ViaPad*
%ADD10C,0.600000*%
G04 #@! TD*
G04 #@! TA.AperFunction,Conductor*
%ADD11C,0.400000*%
G04 #@! TD*
G04 APERTURE END LIST*
D10*
X7000000Y8050000D03*
X7000000Y5950000D03*
X7850000Y5950000D03*
X6150000Y5950000D03*
X6150000Y8050000D03*
X7850000Y8050000D03*
D11*
X5000000Y11828427D02*
X5000000Y14000000D01*
X5585787Y3585787D02*
X6414214Y4414214D01*
X5000000Y1000000D02*
X5000000Y2171573D01*
X7000000Y5828427D02*
X7000000Y5950000D01*
X6414213Y9585787D02*
X5585786Y10414214D01*
X7000000Y8050000D02*
X7000000Y8171573D01*
X5585773Y3585801D02*
G75*
G03*
X5000000Y2171573I1414227J-1414201D01*
G01*
X6999980Y8171573D02*
G75*
G03*
X6414212Y9585786I-1999980J27D01*
G01*
X6414228Y4414200D02*
G75*
G03*
X7000000Y5828427I-1414228J1414200D01*
G01*
X5000020Y11828427D02*
G75*
G03*
X5585787Y10414215I1999980J-27D01*
G01*
G04 #@! TA.AperFunction,Conductor*
G36*
X6462488Y8330315D02*
G01*
X6508243Y8277511D01*
X6518187Y8208353D01*
X6515042Y8193898D01*
X6494353Y8050001D01*
X6514834Y7907544D01*
X6574622Y7776629D01*
X6574623Y7776627D01*
X6668872Y7667857D01*
X6789947Y7590047D01*
X6789950Y7590046D01*
X6789949Y7590046D01*
X6928036Y7549501D01*
X6928038Y7549500D01*
X6928039Y7549500D01*
X7071962Y7549500D01*
X7071962Y7549501D01*
X7210053Y7590047D01*
X7331128Y7667857D01*
X7425377Y7776627D01*
X7485165Y7907543D01*
X7505647Y8050000D01*
X7485165Y8192457D01*
X7483903Y8201235D01*
X7485574Y8201476D01*
X7485574Y8260935D01*
X7523349Y8319713D01*
X7586904Y8348738D01*
X7604551Y8350000D01*
X7976000Y8350000D01*
X8043039Y8330315D01*
X8088794Y8277511D01*
X8100000Y8226000D01*
X8100000Y5774000D01*
X8080315Y5706961D01*
X8027511Y5661206D01*
X7976000Y5650000D01*
X7604551Y5650000D01*
X7537512Y5669685D01*
X7491757Y5722489D01*
X7481813Y5791647D01*
X7484957Y5806103D01*
X7485163Y5807540D01*
X7485165Y5807543D01*
X7505647Y5950000D01*
X7485165Y6092457D01*
X7425377Y6223373D01*
X7331128Y6332143D01*
X7210053Y6409953D01*
X7210051Y6409954D01*
X7210049Y6409955D01*
X7210050Y6409955D01*
X7071963Y6450500D01*
X7071961Y6450500D01*
X6928039Y6450500D01*
X6928036Y6450500D01*
X6789949Y6409955D01*
X6668873Y6332144D01*
X6574623Y6223374D01*
X6574622Y6223372D01*
X6514834Y6092457D01*
X6494353Y5950000D01*
X6516097Y5798765D01*
X6514426Y5798525D01*
X6514426Y5739065D01*
X6476651Y5680287D01*
X6413096Y5651262D01*
X6395449Y5650000D01*
X5974000Y5650000D01*
X5906961Y5669685D01*
X5861206Y5722489D01*
X5850000Y5774000D01*
X5850000Y8226000D01*
X5869685Y8293039D01*
X5922489Y8338794D01*
X5974000Y8350000D01*
X6395449Y8350000D01*
X6462488Y8330315D01*
G37*
G04 #@! TD.AperFunction*
M02*
