%TF.GenerationSoftware,KiCad,Pcbnew,7.0.6-7.0.6~ubuntu22.04.1*%
%TF.CreationDate,2023-09-01T09:52:36+02:00*%
%TF.ProjectId,si-simulation-test-board,73692d73-696d-4756-9c61-74696f6e2d74,rev?*%
%TF.SameCoordinates,Original*%
%TF.FileFunction,Copper,L1,Top*%
%TF.FilePolarity,Positive*%
%FSLAX46Y46*%
G04 Gerber Fmt 4.6, Leading zero omitted, Abs format (unit mm)*
G04 Created by KiCad (PCBNEW 7.0.6-7.0.6~ubuntu22.04.1) date 2023-09-01 09:52:36*
%MOMM*%
%LPD*%
G01*
G04 APERTURE LIST*
%TA.AperFunction,ViaPad*%
%ADD10C,0.550000*%
%TD*%
%TA.AperFunction,Conductor*%
%ADD11C,0.185000*%
%TD*%
G04 APERTURE END LIST*
D10*
%TO.N,GND*%
X111015000Y-54075000D03*
X111040000Y-52550000D03*
X117015000Y-55850001D03*
X117015000Y-54075000D03*
X117040000Y-52550000D03*
X111015000Y-55850000D03*
%TD*%
D11*
%TO.N,unconnected-(J21-Pad1)*%
X113997500Y-68832500D02*
X114562862Y-68832500D01*
X113432138Y-68832500D02*
X113997500Y-68832500D01*
X113997500Y-60832500D02*
X114562862Y-60832500D01*
X114562862Y-63232500D02*
X113997500Y-63232500D01*
X114562862Y-61632500D02*
X113997500Y-61632500D01*
X114562862Y-69632500D02*
X114397500Y-69632500D01*
X113997500Y-64832500D02*
X113432138Y-64832500D01*
X113997500Y-66432500D02*
X113432138Y-66432500D01*
X113997500Y-54175000D02*
X113997500Y-57232500D01*
X113997500Y-62432500D02*
X114562862Y-62432500D01*
X113997500Y-60032500D02*
X113432138Y-60032500D01*
X114562862Y-66432500D02*
X113997500Y-66432500D01*
X113997500Y-67232500D02*
X114562862Y-67232500D01*
X113997500Y-64032500D02*
X114562862Y-64032500D01*
X114562862Y-64832500D02*
X113997500Y-64832500D01*
X113432138Y-67232500D02*
X113997500Y-67232500D01*
X113432138Y-62432500D02*
X113997500Y-62432500D01*
X113432138Y-59232500D02*
X113997500Y-59232500D01*
X114562862Y-58432500D02*
X114397500Y-58432500D01*
X114397500Y-58432500D02*
X113432138Y-58432500D01*
X113432138Y-65632500D02*
X113997500Y-65632500D01*
X113997500Y-63232500D02*
X113432138Y-63232500D01*
X114562862Y-60032500D02*
X113997500Y-60032500D01*
X114397500Y-57632500D02*
X114562862Y-57632500D01*
X113997500Y-65632500D02*
X114562862Y-65632500D01*
X113997500Y-61632500D02*
X113432138Y-61632500D01*
X113432138Y-64032500D02*
X113997500Y-64032500D01*
X113997500Y-70032500D02*
X113997500Y-70707989D01*
X113432138Y-60832500D02*
X113997500Y-60832500D01*
X113997500Y-59232500D02*
X114562862Y-59232500D01*
X113997500Y-68032500D02*
X113432138Y-68032500D01*
X114562862Y-68032500D02*
X113997500Y-68032500D01*
X114962900Y-69232500D02*
G75*
G03*
X114562862Y-68832500I-400000J0D01*
G01*
X114562862Y-60032462D02*
G75*
G03*
X114962862Y-59632500I38J399962D01*
G01*
X114562862Y-68032462D02*
G75*
G03*
X114962862Y-67632500I38J399962D01*
G01*
X114962900Y-59632500D02*
G75*
G03*
X114562862Y-59232500I-400000J0D01*
G01*
X113997500Y-57232500D02*
G75*
G03*
X114397500Y-57632500I400000J0D01*
G01*
X114962900Y-64432500D02*
G75*
G03*
X114562862Y-64032500I-400000J0D01*
G01*
X113032100Y-68432500D02*
G75*
G03*
X113432138Y-68832500I400000J0D01*
G01*
X114562862Y-66432462D02*
G75*
G03*
X114962862Y-66032500I38J399962D01*
G01*
X114562862Y-58432462D02*
G75*
G03*
X114962862Y-58032500I38J399962D01*
G01*
X114962900Y-62832500D02*
G75*
G03*
X114562862Y-62432500I-400000J0D01*
G01*
X114962900Y-61232500D02*
G75*
G03*
X114562862Y-60832500I-400000J0D01*
G01*
X113032100Y-58832500D02*
G75*
G03*
X113432138Y-59232500I400000J0D01*
G01*
X113432138Y-68032538D02*
G75*
G03*
X113032138Y-68432500I-38J-399962D01*
G01*
X113432138Y-58432538D02*
G75*
G03*
X113032138Y-58832500I-38J-399962D01*
G01*
X114562862Y-69632462D02*
G75*
G03*
X114962862Y-69232500I38J399962D01*
G01*
X114397500Y-69632500D02*
G75*
G03*
X113997500Y-70032500I0J-400000D01*
G01*
X113032100Y-65232500D02*
G75*
G03*
X113432138Y-65632500I400000J0D01*
G01*
X113032100Y-63632500D02*
G75*
G03*
X113432138Y-64032500I400000J0D01*
G01*
X114562862Y-63232462D02*
G75*
G03*
X114962862Y-62832500I38J399962D01*
G01*
X113432138Y-63232538D02*
G75*
G03*
X113032138Y-63632500I-38J-399962D01*
G01*
X114962900Y-58032500D02*
G75*
G03*
X114562862Y-57632500I-400000J0D01*
G01*
X113432138Y-60032538D02*
G75*
G03*
X113032138Y-60432500I-38J-399962D01*
G01*
X113432138Y-64832538D02*
G75*
G03*
X113032138Y-65232500I-38J-399962D01*
G01*
X113432138Y-66432538D02*
G75*
G03*
X113032138Y-66832500I-38J-399962D01*
G01*
X114562862Y-61632462D02*
G75*
G03*
X114962862Y-61232500I38J399962D01*
G01*
X114562862Y-64832462D02*
G75*
G03*
X114962862Y-64432500I38J399962D01*
G01*
X113032100Y-60432500D02*
G75*
G03*
X113432138Y-60832500I400000J0D01*
G01*
X113032100Y-66832500D02*
G75*
G03*
X113432138Y-67232500I400000J0D01*
G01*
X114962900Y-67632500D02*
G75*
G03*
X114562862Y-67232500I-400000J0D01*
G01*
X113432138Y-61632538D02*
G75*
G03*
X113032138Y-62032500I-38J-399962D01*
G01*
X113032100Y-62032500D02*
G75*
G03*
X113432138Y-62432500I400000J0D01*
G01*
X114962900Y-66032500D02*
G75*
G03*
X114562862Y-65632500I-400000J0D01*
G01*
%TD*%
M02*
