%TF.GenerationSoftware,KiCad,Pcbnew,7.0.9-7.0.9~ubuntu22.04.1*%
%TF.CreationDate,2023-12-01T07:42:16+01:00*%
%TF.ProjectId,jetson-orin-baseboard,6a657473-6f6e-42d6-9f72-696e2d626173,1.1.1*%
%TF.SameCoordinates,Original*%
%TF.FileFunction,Copper,L3,Inr*%
%TF.FilePolarity,Positive*%
%FSLAX46Y46*%
G04 Gerber Fmt 4.6, Leading zero omitted, Abs format (unit mm)*
G04 Created by KiCad (PCBNEW 7.0.9-7.0.9~ubuntu22.04.1) date 2023-12-01 07:42:16*
%MOMM*%
%LPD*%
G01*
G04 APERTURE LIST*
%TA.AperFunction,ViaPad*%
%ADD10C,0.450000*%
%TD*%
%TA.AperFunction,Conductor*%
%ADD11C,0.150000*%
%TD*%
%TA.AperFunction,Conductor*%
%ADD12C,0.155000*%
%TD*%
%TA.AperFunction,Conductor*%
%ADD13C,0.300000*%
%TD*%
G04 APERTURE END LIST*
D10*
%TO.N,GND*%
X91450000Y-102350000D03*
X91750000Y-108800000D03*
%TO.N,CSIA_FLG*%
X92272500Y-113200000D03*
%TO.N,CSIB_FLG*%
X92500000Y-108850000D03*
%TO.N,USBC0_FLG*%
X90800000Y-113150000D03*
%TO.N,USBC1_FLG*%
X91412000Y-113500000D03*
%TD*%
D11*
%TO.N,/SoM/PMIC_BBAT*%
X110950000Y-70224500D02*
X110625500Y-69900000D01*
X110625500Y-69900000D02*
X101500000Y-69900000D01*
X65900000Y-71250000D02*
X65600000Y-70950000D01*
X76950000Y-71250000D02*
X65900000Y-71250000D01*
X78975000Y-69225000D02*
X76950000Y-71250000D01*
X101500000Y-69900000D02*
X100825000Y-69225000D01*
X100825000Y-69225000D02*
X78975000Y-69225000D01*
X65600000Y-70950000D02*
X65600000Y-70100000D01*
%TO.N,+3V3*%
X67600000Y-85550000D02*
X67550000Y-85550000D01*
X67400000Y-85400000D02*
X67400000Y-85600000D01*
X69287500Y-85550000D02*
X69299500Y-85562000D01*
X67400000Y-85700000D02*
X67550000Y-85550000D01*
X65570000Y-78960000D02*
X66260000Y-78960000D01*
X66260000Y-78960000D02*
X67400000Y-80100000D01*
X67400000Y-85750000D02*
X67400000Y-87700000D01*
X67550000Y-85550000D02*
X67400000Y-85400000D01*
X67400000Y-85750000D02*
X67400000Y-85700000D01*
X67400000Y-80100000D02*
X67400000Y-85400000D01*
D12*
X86500000Y-106700000D02*
X87100000Y-106700000D01*
D11*
X67450000Y-85550000D02*
X67600000Y-85550000D01*
X67600000Y-85550000D02*
X69287500Y-85550000D01*
X67400000Y-85600000D02*
X67450000Y-85550000D01*
D12*
X86500000Y-106112000D02*
X86500000Y-106700000D01*
D13*
%TO.N,+1V8*%
X104190000Y-103690000D02*
X104100000Y-103600000D01*
D11*
X66100000Y-82800000D02*
X66100000Y-83900000D01*
X65700000Y-85375500D02*
X65724500Y-85400000D01*
D13*
X64700000Y-109700000D02*
X67900000Y-109700000D01*
X104190000Y-109310000D02*
X104190000Y-103690000D01*
X96630276Y-99100000D02*
X98350000Y-99100000D01*
X57800000Y-94600000D02*
X62800000Y-94600000D01*
X75400000Y-116000000D02*
X88100000Y-116000000D01*
X99950000Y-116000000D02*
X99950000Y-113550000D01*
X88300000Y-116000000D02*
X88500000Y-115800000D01*
X98350000Y-99100000D02*
X102850000Y-103600000D01*
X68400000Y-114100000D02*
X68800000Y-114500000D01*
D11*
X65173000Y-81873000D02*
X64900000Y-81873000D01*
D13*
X106577107Y-116000000D02*
X114207107Y-116000000D01*
X88100000Y-116000000D02*
X88300000Y-116000000D01*
X88100000Y-116000000D02*
X88500000Y-116000000D01*
X57800000Y-101700000D02*
X58100000Y-102000000D01*
X88500000Y-116000000D02*
X88500000Y-115800000D01*
X138725000Y-109925000D02*
X138725000Y-100940000D01*
X62700000Y-107700000D02*
X64700000Y-109700000D01*
X70650000Y-115850000D02*
X75250000Y-115850000D01*
X106537107Y-115960000D02*
X106577107Y-116000000D01*
D11*
X65700000Y-84300000D02*
X65700000Y-85375500D01*
D13*
X58392893Y-87100000D02*
X57800000Y-87692893D01*
X58392893Y-87100000D02*
X64000000Y-87100000D01*
X135850000Y-112800000D02*
X138725000Y-109925000D01*
X88850000Y-116000000D02*
X88700000Y-116000000D01*
X102850000Y-103600000D02*
X104100000Y-103600000D01*
X88500000Y-116000000D02*
X88850000Y-116000000D01*
X99950000Y-113550000D02*
X104190000Y-109310000D01*
X63200000Y-95700000D02*
X62700000Y-96200000D01*
X75250000Y-115850000D02*
X75400000Y-116000000D01*
X64000000Y-87100000D02*
X65700000Y-85400000D01*
X67900000Y-109700000D02*
X68400000Y-110200000D01*
X58100000Y-104074500D02*
X58150000Y-104124500D01*
X57800000Y-94600000D02*
X57800000Y-101700000D01*
X65700000Y-85400000D02*
X65724500Y-85400000D01*
X114207107Y-116000000D02*
X117407107Y-112800000D01*
D11*
X66100000Y-83900000D02*
X65700000Y-84300000D01*
X66100000Y-82800000D02*
X65173000Y-81873000D01*
D13*
X68800000Y-114500000D02*
X69300000Y-114500000D01*
X62700000Y-96200000D02*
X62700000Y-107700000D01*
X117407107Y-112800000D02*
X135850000Y-112800000D01*
X106122893Y-115960000D02*
X106537107Y-115960000D01*
X88700000Y-116000000D02*
X88500000Y-115800000D01*
X57800000Y-87692893D02*
X57800000Y-94600000D01*
X99950000Y-116000000D02*
X106082893Y-116000000D01*
X68400000Y-110200000D02*
X68400000Y-114100000D01*
X88850000Y-116000000D02*
X99950000Y-116000000D01*
X88500000Y-115800000D02*
X88500000Y-115250000D01*
X58100000Y-102000000D02*
X58100000Y-104074500D01*
X96573788Y-99043512D02*
X96630276Y-99100000D01*
X63200000Y-95000000D02*
X63200000Y-95700000D01*
X106082893Y-116000000D02*
X106122893Y-115960000D01*
X62800000Y-94600000D02*
X63200000Y-95000000D01*
X69300000Y-114500000D02*
X70650000Y-115850000D01*
%TO.N,3V3_STDB*%
X51500000Y-80800000D02*
X50900000Y-80200000D01*
X51200000Y-77200000D02*
X54300000Y-77200000D01*
X50900000Y-80200000D02*
X50900000Y-77500000D01*
X141600000Y-117500000D02*
X141600000Y-122400000D01*
X51500000Y-115400000D02*
X51500000Y-80800000D01*
X84357107Y-126200000D02*
X82957107Y-127600000D01*
X54600000Y-78600000D02*
X55100000Y-79100000D01*
X54600000Y-77500000D02*
X54600000Y-78600000D01*
X140900000Y-116800000D02*
X141600000Y-117500000D01*
X52300000Y-116200000D02*
X51500000Y-115400000D01*
X51700000Y-120300000D02*
X52300000Y-119700000D01*
X129492893Y-126600000D02*
X100500000Y-126600000D01*
X100500000Y-126600000D02*
X100100000Y-126200000D01*
X129592893Y-126500000D02*
X129492893Y-126600000D01*
X130007107Y-126500000D02*
X129592893Y-126500000D01*
X50900000Y-77500000D02*
X51200000Y-77200000D01*
X130107107Y-126600000D02*
X130007107Y-126500000D01*
X52300000Y-119700000D02*
X52300000Y-116200000D01*
X54900000Y-127600000D02*
X51700000Y-124400000D01*
D12*
X84550000Y-126600000D02*
X84550000Y-126150000D01*
D13*
X54300000Y-77200000D02*
X54600000Y-77500000D01*
X141600000Y-122400000D02*
X137400000Y-126600000D01*
X137400000Y-126600000D02*
X130107107Y-126600000D01*
X100100000Y-126200000D02*
X84357107Y-126200000D01*
X82957107Y-127600000D02*
X54900000Y-127600000D01*
X51700000Y-124400000D02*
X51700000Y-120300000D01*
X139150000Y-116800000D02*
X140900000Y-116800000D01*
%TD*%
%TA.AperFunction,Conductor*%
%TO.N,+5V*%
G36*
X88276439Y-116353182D02*
G01*
X88277851Y-116353478D01*
X88285315Y-116355043D01*
X88317881Y-116350983D01*
X88325672Y-116350500D01*
X88441512Y-116350500D01*
X88482899Y-116350500D01*
X88488103Y-116350714D01*
X88529344Y-116354132D01*
X88529344Y-116354131D01*
X88529346Y-116354132D01*
X88532056Y-116353907D01*
X88559391Y-116350500D01*
X88635147Y-116350500D01*
X88642948Y-116350984D01*
X88656044Y-116352616D01*
X88656046Y-116352617D01*
X88656047Y-116352616D01*
X88656048Y-116352617D01*
X88707242Y-116350500D01*
X88791512Y-116350500D01*
X97448500Y-116350500D01*
X97516621Y-116370502D01*
X97563114Y-116424158D01*
X97574500Y-116476500D01*
X97574500Y-118874000D01*
X97554498Y-118942121D01*
X97500842Y-118988614D01*
X97448500Y-119000000D01*
X96599998Y-119000000D01*
X95436905Y-120163095D01*
X95374593Y-120197120D01*
X95347810Y-120200000D01*
X85601500Y-120200000D01*
X85533379Y-120179998D01*
X85486886Y-120126342D01*
X85475500Y-120074000D01*
X85475500Y-117706675D01*
X94657365Y-117706675D01*
X94675766Y-117811036D01*
X94728752Y-117902812D01*
X94809932Y-117970930D01*
X94809935Y-117970932D01*
X94909513Y-118007175D01*
X94909515Y-118007175D01*
X95015488Y-118007175D01*
X95115066Y-117970932D01*
X95115065Y-117970932D01*
X95115069Y-117970931D01*
X95196249Y-117902813D01*
X95249235Y-117811038D01*
X95267637Y-117706675D01*
X95249235Y-117602312D01*
X95196249Y-117510537D01*
X95115069Y-117442419D01*
X95115066Y-117442417D01*
X95015489Y-117406175D01*
X95015487Y-117406175D01*
X94909515Y-117406175D01*
X94909513Y-117406175D01*
X94809935Y-117442417D01*
X94809932Y-117442419D01*
X94728752Y-117510537D01*
X94675766Y-117602313D01*
X94657365Y-117706674D01*
X94657365Y-117706675D01*
X85475500Y-117706675D01*
X85475500Y-116476500D01*
X85495502Y-116408379D01*
X85549158Y-116361886D01*
X85601500Y-116350500D01*
X88041512Y-116350500D01*
X88250581Y-116350500D01*
X88276439Y-116353182D01*
G37*
%TD.AperFunction*%
%TD*%
%TA.AperFunction,Conductor*%
%TO.N,VCC*%
G36*
X97516572Y-119291526D02*
G01*
X97563089Y-119345161D01*
X97574500Y-119397556D01*
X97574500Y-122573500D01*
X97554498Y-122641621D01*
X97500842Y-122688114D01*
X97448500Y-122699500D01*
X85601500Y-122699500D01*
X85533379Y-122679498D01*
X85486886Y-122625842D01*
X85475500Y-122573500D01*
X85475500Y-120531500D01*
X85495502Y-120463379D01*
X85549158Y-120416886D01*
X85601500Y-120405500D01*
X95353319Y-120405500D01*
X95360643Y-120405107D01*
X95364308Y-120404911D01*
X95396564Y-120401442D01*
X95473079Y-120377483D01*
X95535391Y-120343458D01*
X95582216Y-120308405D01*
X96581799Y-119308819D01*
X96644108Y-119274797D01*
X96670821Y-119271918D01*
X97448444Y-119271556D01*
X97516572Y-119291526D01*
G37*
%TD.AperFunction*%
%TD*%
%TA.AperFunction,Conductor*%
%TO.N,+3V3*%
G36*
X97442121Y-111220002D02*
G01*
X97488614Y-111273658D01*
X97500000Y-111326000D01*
X97500000Y-115523500D01*
X97479998Y-115591621D01*
X97426342Y-115638114D01*
X97374000Y-115649500D01*
X88976500Y-115649500D01*
X88908379Y-115629498D01*
X88861886Y-115575842D01*
X88850500Y-115523500D01*
X88850500Y-115220964D01*
X88850500Y-115220960D01*
X88836092Y-115134619D01*
X88790299Y-115050000D01*
X89944864Y-115050000D01*
X89963265Y-115154361D01*
X90016251Y-115246137D01*
X90097431Y-115314255D01*
X90097434Y-115314257D01*
X90197012Y-115350500D01*
X90197014Y-115350500D01*
X90302987Y-115350500D01*
X90402565Y-115314257D01*
X90402564Y-115314257D01*
X90402568Y-115314256D01*
X90483748Y-115246138D01*
X90485186Y-115243646D01*
X90490880Y-115233786D01*
X90542261Y-115184792D01*
X90611975Y-115171354D01*
X90677886Y-115197740D01*
X90709120Y-115233786D01*
X90716250Y-115246136D01*
X90797431Y-115314255D01*
X90797434Y-115314257D01*
X90897012Y-115350500D01*
X90897014Y-115350500D01*
X91002987Y-115350500D01*
X91102565Y-115314257D01*
X91102564Y-115314257D01*
X91102568Y-115314256D01*
X91183748Y-115246138D01*
X91236734Y-115154363D01*
X91255136Y-115050000D01*
X91236734Y-114945637D01*
X91183748Y-114853862D01*
X91102568Y-114785744D01*
X91102565Y-114785742D01*
X91002988Y-114749500D01*
X91002986Y-114749500D01*
X90897014Y-114749500D01*
X90897012Y-114749500D01*
X90797434Y-114785742D01*
X90797431Y-114785744D01*
X90716250Y-114853863D01*
X90709119Y-114866215D01*
X90657736Y-114915208D01*
X90588023Y-114928644D01*
X90522112Y-114902258D01*
X90490881Y-114866215D01*
X90483749Y-114853863D01*
X90402568Y-114785744D01*
X90402565Y-114785742D01*
X90302988Y-114749500D01*
X90302986Y-114749500D01*
X90197014Y-114749500D01*
X90197012Y-114749500D01*
X90097434Y-114785742D01*
X90097431Y-114785744D01*
X90016251Y-114853862D01*
X89963265Y-114945638D01*
X89944864Y-115049999D01*
X89944864Y-115050000D01*
X88790299Y-115050000D01*
X88780418Y-115031742D01*
X88780417Y-115031740D01*
X88694359Y-114952519D01*
X88694360Y-114952519D01*
X88694356Y-114952516D01*
X88694352Y-114952514D01*
X88630682Y-114924586D01*
X88587232Y-114905527D01*
X88587231Y-114905526D01*
X88587232Y-114905526D01*
X88479575Y-114896606D01*
X88470656Y-114895868D01*
X88470655Y-114895868D01*
X88357259Y-114924583D01*
X88357254Y-114924586D01*
X88259333Y-114988560D01*
X88259332Y-114988561D01*
X88187482Y-115080873D01*
X88149500Y-115191510D01*
X88149500Y-115523500D01*
X88129498Y-115591621D01*
X88075842Y-115638114D01*
X88023500Y-115649500D01*
X85601500Y-115649500D01*
X85533379Y-115629498D01*
X85486886Y-115575842D01*
X85475500Y-115523500D01*
X85475500Y-113668914D01*
X89105171Y-113668914D01*
X89123572Y-113773275D01*
X89176558Y-113865051D01*
X89257738Y-113933169D01*
X89257741Y-113933171D01*
X89357319Y-113969414D01*
X89357321Y-113969414D01*
X89463294Y-113969414D01*
X89562872Y-113933171D01*
X89562871Y-113933171D01*
X89562875Y-113933170D01*
X89644055Y-113865052D01*
X89697041Y-113773277D01*
X89715443Y-113668914D01*
X89697041Y-113564551D01*
X89644055Y-113472776D01*
X89562875Y-113404658D01*
X89562872Y-113404656D01*
X89463295Y-113368414D01*
X89463293Y-113368414D01*
X89357321Y-113368414D01*
X89357319Y-113368414D01*
X89257741Y-113404656D01*
X89257738Y-113404658D01*
X89176558Y-113472776D01*
X89123572Y-113564552D01*
X89105171Y-113668913D01*
X89105171Y-113668914D01*
X85475500Y-113668914D01*
X85475500Y-113150000D01*
X90369196Y-113150000D01*
X90390281Y-113283126D01*
X90451472Y-113403220D01*
X90546780Y-113498528D01*
X90666874Y-113559719D01*
X90800000Y-113580804D01*
X90872092Y-113569385D01*
X90942499Y-113578484D01*
X90996814Y-113624206D01*
X91004066Y-113636629D01*
X91063472Y-113753220D01*
X91158780Y-113848528D01*
X91278874Y-113909719D01*
X91412000Y-113930804D01*
X91545126Y-113909719D01*
X91665220Y-113848528D01*
X91760528Y-113753220D01*
X91821719Y-113633126D01*
X91821958Y-113631616D01*
X91822757Y-113629929D01*
X91824782Y-113623699D01*
X91825587Y-113623960D01*
X91852366Y-113567467D01*
X91912632Y-113529937D01*
X91983621Y-113530947D01*
X92010303Y-113544303D01*
X92010445Y-113544026D01*
X92019279Y-113548527D01*
X92019280Y-113548528D01*
X92139374Y-113609719D01*
X92272500Y-113630804D01*
X92405626Y-113609719D01*
X92525720Y-113548528D01*
X92621028Y-113453220D01*
X92682219Y-113333126D01*
X92703304Y-113200000D01*
X92682219Y-113066874D01*
X92621028Y-112946780D01*
X92525720Y-112851472D01*
X92525719Y-112851471D01*
X92465673Y-112820876D01*
X92405626Y-112790281D01*
X92272500Y-112769196D01*
X92139374Y-112790281D01*
X92139372Y-112790281D01*
X92139372Y-112790282D01*
X92019280Y-112851471D01*
X91923971Y-112946780D01*
X91862781Y-113066873D01*
X91862541Y-113068390D01*
X91861737Y-113070084D01*
X91859718Y-113076301D01*
X91858914Y-113076039D01*
X91832125Y-113132542D01*
X91771855Y-113170065D01*
X91700866Y-113169048D01*
X91674195Y-113155697D01*
X91674055Y-113155974D01*
X91665220Y-113151472D01*
X91545126Y-113090281D01*
X91412000Y-113069196D01*
X91411998Y-113069196D01*
X91339908Y-113080613D01*
X91269497Y-113071513D01*
X91215184Y-113025790D01*
X91207932Y-113013367D01*
X91174004Y-112946780D01*
X91148528Y-112896780D01*
X91053220Y-112801472D01*
X91053219Y-112801471D01*
X90989875Y-112769196D01*
X90933126Y-112740281D01*
X90800000Y-112719196D01*
X90666874Y-112740281D01*
X90666872Y-112740281D01*
X90666872Y-112740282D01*
X90546780Y-112801471D01*
X90451471Y-112896780D01*
X90392068Y-113013367D01*
X90390281Y-113016874D01*
X90369196Y-113150000D01*
X85475500Y-113150000D01*
X85475500Y-111326000D01*
X85495502Y-111257879D01*
X85549158Y-111211386D01*
X85601500Y-111200000D01*
X97374000Y-111200000D01*
X97442121Y-111220002D01*
G37*
%TD.AperFunction*%
%TA.AperFunction,Conductor*%
G36*
X87942121Y-106520002D02*
G01*
X87988614Y-106573658D01*
X88000000Y-106626000D01*
X88000000Y-108974000D01*
X87979998Y-109042121D01*
X87926342Y-109088614D01*
X87874000Y-109100000D01*
X85601500Y-109100000D01*
X85533379Y-109079998D01*
X85486886Y-109026342D01*
X85475500Y-108974000D01*
X85475500Y-106626000D01*
X85495502Y-106557879D01*
X85549158Y-106511386D01*
X85601500Y-106500000D01*
X87874000Y-106500000D01*
X87942121Y-106520002D01*
G37*
%TD.AperFunction*%
%TD*%
%TA.AperFunction,Conductor*%
%TO.N,GND*%
G36*
X97516621Y-92345502D02*
G01*
X97563114Y-92399158D01*
X97574500Y-92451500D01*
X97574500Y-98698500D01*
X97554498Y-98766621D01*
X97500842Y-98813114D01*
X97448500Y-98824500D01*
X96780121Y-98824500D01*
X96712000Y-98804498D01*
X96710120Y-98803265D01*
X96681285Y-98783998D01*
X96681281Y-98783996D01*
X96573788Y-98762615D01*
X96466294Y-98783996D01*
X96466293Y-98783997D01*
X96375163Y-98844887D01*
X96314273Y-98936017D01*
X96314272Y-98936018D01*
X96292891Y-99043511D01*
X96292891Y-99043512D01*
X96314272Y-99151005D01*
X96314273Y-99151006D01*
X96359794Y-99219134D01*
X96407509Y-99266849D01*
X96423173Y-99285935D01*
X96431652Y-99298624D01*
X96452641Y-99312648D01*
X96452651Y-99312656D01*
X96454654Y-99313994D01*
X96465346Y-99321138D01*
X96522781Y-99359515D01*
X96592057Y-99373294D01*
X96609210Y-99376707D01*
X96609213Y-99376707D01*
X96630276Y-99380897D01*
X96642402Y-99378484D01*
X96645238Y-99377921D01*
X96669819Y-99375500D01*
X97448500Y-99375500D01*
X97516621Y-99395502D01*
X97563114Y-99449158D01*
X97574500Y-99501500D01*
X97574500Y-110877915D01*
X97554498Y-110946036D01*
X97500842Y-110992529D01*
X97430570Y-111002633D01*
X97390329Y-110996847D01*
X97374000Y-110994500D01*
X85601500Y-110994500D01*
X85533379Y-110974498D01*
X85486886Y-110920842D01*
X85475500Y-110868500D01*
X85475500Y-109431500D01*
X85495502Y-109363379D01*
X85549158Y-109316886D01*
X85601500Y-109305500D01*
X87873994Y-109305500D01*
X87874000Y-109305500D01*
X87917681Y-109300804D01*
X87970023Y-109289418D01*
X87980203Y-109286930D01*
X88060916Y-109243921D01*
X88105986Y-109204868D01*
X88114569Y-109197431D01*
X88114568Y-109197432D01*
X88124706Y-109187498D01*
X88132527Y-109179835D01*
X88177174Y-109100017D01*
X88177174Y-109100016D01*
X88177176Y-109100013D01*
X88197172Y-109031908D01*
X88197176Y-109031896D01*
X88205500Y-108974000D01*
X88205500Y-108850000D01*
X92145131Y-108850000D01*
X92162500Y-108959661D01*
X92162500Y-108959662D01*
X92162501Y-108959663D01*
X92199304Y-109031895D01*
X92212905Y-109058587D01*
X92291413Y-109137095D01*
X92390339Y-109187500D01*
X92500000Y-109204869D01*
X92609661Y-109187500D01*
X92708587Y-109137095D01*
X92787095Y-109058587D01*
X92837500Y-108959661D01*
X92854869Y-108850000D01*
X92837500Y-108740339D01*
X92787095Y-108641413D01*
X92708587Y-108562905D01*
X92708586Y-108562904D01*
X92609663Y-108512501D01*
X92609662Y-108512500D01*
X92609661Y-108512500D01*
X92500000Y-108495131D01*
X92390339Y-108512500D01*
X92390337Y-108512500D01*
X92390336Y-108512501D01*
X92291413Y-108562904D01*
X92212904Y-108641413D01*
X92162501Y-108740336D01*
X92162500Y-108740337D01*
X92162500Y-108740339D01*
X92145131Y-108850000D01*
X88205500Y-108850000D01*
X88205500Y-107900000D01*
X91094864Y-107900000D01*
X91113265Y-108004361D01*
X91166251Y-108096137D01*
X91247431Y-108164255D01*
X91247434Y-108164257D01*
X91347012Y-108200500D01*
X91347014Y-108200500D01*
X91452987Y-108200500D01*
X91552565Y-108164257D01*
X91552564Y-108164257D01*
X91552568Y-108164256D01*
X91633748Y-108096138D01*
X91686734Y-108004363D01*
X91705136Y-107900000D01*
X91704893Y-107898624D01*
X91686734Y-107795638D01*
X91686734Y-107795637D01*
X91633748Y-107703862D01*
X91552568Y-107635744D01*
X91552565Y-107635742D01*
X91452988Y-107599500D01*
X91452986Y-107599500D01*
X91347014Y-107599500D01*
X91347012Y-107599500D01*
X91247434Y-107635742D01*
X91247431Y-107635744D01*
X91166251Y-107703862D01*
X91113265Y-107795638D01*
X91094864Y-107899999D01*
X91094864Y-107900000D01*
X88205500Y-107900000D01*
X88205500Y-106626000D01*
X88200804Y-106582319D01*
X88189418Y-106529977D01*
X88186930Y-106519797D01*
X88143921Y-106439084D01*
X88111759Y-106401967D01*
X88097431Y-106385431D01*
X88097432Y-106385432D01*
X88079833Y-106367471D01*
X88000013Y-106322823D01*
X87931908Y-106302827D01*
X87931899Y-106302825D01*
X87931896Y-106302824D01*
X87874000Y-106294500D01*
X87873997Y-106294500D01*
X86829000Y-106294500D01*
X86760879Y-106274498D01*
X86714386Y-106220842D01*
X86703000Y-106168500D01*
X86703000Y-106089123D01*
X86687601Y-106021657D01*
X86687601Y-106021656D01*
X86629824Y-105949206D01*
X86546334Y-105909000D01*
X86453666Y-105909000D01*
X86370177Y-105949205D01*
X86312398Y-106021657D01*
X86297000Y-106089123D01*
X86297000Y-106168500D01*
X86276998Y-106236621D01*
X86223342Y-106283114D01*
X86171000Y-106294500D01*
X85601500Y-106294500D01*
X85533379Y-106274498D01*
X85486886Y-106220842D01*
X85475500Y-106168500D01*
X85475500Y-105540000D01*
X91124864Y-105540000D01*
X91143265Y-105644361D01*
X91143265Y-105644362D01*
X91143266Y-105644363D01*
X91149382Y-105654956D01*
X91184907Y-105716489D01*
X91196252Y-105736138D01*
X91277432Y-105804256D01*
X91311243Y-105816562D01*
X91368415Y-105858654D01*
X91393754Y-105924975D01*
X91380878Y-105986510D01*
X91381535Y-105986749D01*
X91379874Y-105991311D01*
X91379214Y-105994467D01*
X91377800Y-105997007D01*
X91377765Y-105997104D01*
X91359364Y-106101466D01*
X91359364Y-106101467D01*
X91377765Y-106205828D01*
X91422385Y-106283114D01*
X91430752Y-106297605D01*
X91483297Y-106341695D01*
X91511931Y-106365722D01*
X91511934Y-106365724D01*
X91621873Y-106405738D01*
X91621227Y-106407511D01*
X91672840Y-106433090D01*
X91709310Y-106494004D01*
X91707059Y-106564965D01*
X91666800Y-106623443D01*
X91621373Y-106644188D01*
X91621873Y-106645562D01*
X91511934Y-106685575D01*
X91511931Y-106685577D01*
X91430751Y-106753695D01*
X91377765Y-106845471D01*
X91359364Y-106949832D01*
X91359364Y-106949833D01*
X91377765Y-107054194D01*
X91430751Y-107145970D01*
X91511931Y-107214088D01*
X91511934Y-107214090D01*
X91611512Y-107250333D01*
X91671660Y-107250333D01*
X91739781Y-107270335D01*
X91786274Y-107323991D01*
X91795519Y-107388288D01*
X91795552Y-107388288D01*
X91795552Y-107388520D01*
X91796378Y-107394265D01*
X91795746Y-107398213D01*
X91795552Y-107399312D01*
X91813953Y-107503673D01*
X91866939Y-107595449D01*
X91948119Y-107663567D01*
X91948122Y-107663569D01*
X92047700Y-107699812D01*
X92047702Y-107699812D01*
X92153675Y-107699812D01*
X92253253Y-107663569D01*
X92253252Y-107663569D01*
X92253256Y-107663568D01*
X92334436Y-107595450D01*
X92387422Y-107503675D01*
X92405824Y-107399312D01*
X92387422Y-107294949D01*
X92334436Y-107203174D01*
X92253256Y-107135056D01*
X92253253Y-107135054D01*
X92153676Y-107098812D01*
X92153674Y-107098812D01*
X92093528Y-107098812D01*
X92025407Y-107078810D01*
X91978914Y-107025154D01*
X91968810Y-106954880D01*
X91969442Y-106950933D01*
X91970937Y-106942454D01*
X92002464Y-106878842D01*
X92063377Y-106842372D01*
X92095023Y-106838333D01*
X92202987Y-106838333D01*
X92302565Y-106802090D01*
X92302564Y-106802090D01*
X92302568Y-106802089D01*
X92383748Y-106733971D01*
X92436734Y-106642196D01*
X92455136Y-106537833D01*
X92436734Y-106433470D01*
X92383748Y-106341695D01*
X92302568Y-106273577D01*
X92302565Y-106273575D01*
X92202988Y-106237333D01*
X92202986Y-106237333D01*
X92097014Y-106237333D01*
X92095636Y-106237333D01*
X92027515Y-106217331D01*
X91981022Y-106163675D01*
X91969636Y-106111333D01*
X91969636Y-106101466D01*
X91951234Y-105997105D01*
X91951234Y-105997104D01*
X91898248Y-105905329D01*
X91817068Y-105837211D01*
X91783253Y-105824903D01*
X91726083Y-105782810D01*
X91700745Y-105716489D01*
X91713620Y-105654956D01*
X91712965Y-105654718D01*
X91714624Y-105650159D01*
X91715286Y-105646997D01*
X91716701Y-105644453D01*
X91716734Y-105644362D01*
X91735136Y-105540000D01*
X91735136Y-105539999D01*
X91716734Y-105435638D01*
X91716734Y-105435637D01*
X91663748Y-105343862D01*
X91582568Y-105275744D01*
X91582565Y-105275742D01*
X91482988Y-105239500D01*
X91482986Y-105239500D01*
X91377014Y-105239500D01*
X91377012Y-105239500D01*
X91277434Y-105275742D01*
X91277431Y-105275744D01*
X91196251Y-105343862D01*
X91143265Y-105435638D01*
X91124864Y-105539999D01*
X91124864Y-105540000D01*
X85475500Y-105540000D01*
X85475500Y-99125000D01*
X90319864Y-99125000D01*
X90338265Y-99229361D01*
X90391250Y-99321136D01*
X90391249Y-99321136D01*
X90436987Y-99359514D01*
X90458923Y-99377921D01*
X90472431Y-99389255D01*
X90472434Y-99389257D01*
X90572012Y-99425500D01*
X90572014Y-99425500D01*
X90677987Y-99425500D01*
X90777565Y-99389257D01*
X90777564Y-99389257D01*
X90777568Y-99389256D01*
X90858748Y-99321138D01*
X90858748Y-99321137D01*
X90858750Y-99321136D01*
X90881143Y-99282347D01*
X90911734Y-99229363D01*
X90930136Y-99125000D01*
X90911734Y-99020637D01*
X90858748Y-98928862D01*
X90777568Y-98860744D01*
X90777565Y-98860742D01*
X90677988Y-98824500D01*
X90677986Y-98824500D01*
X90572014Y-98824500D01*
X90572012Y-98824500D01*
X90472434Y-98860742D01*
X90472431Y-98860744D01*
X90391251Y-98928862D01*
X90338265Y-99020638D01*
X90319864Y-99124999D01*
X90319864Y-99125000D01*
X85475500Y-99125000D01*
X85475500Y-97640000D01*
X89694864Y-97640000D01*
X89713265Y-97744361D01*
X89766251Y-97836137D01*
X89847431Y-97904255D01*
X89847434Y-97904257D01*
X89947012Y-97940500D01*
X89947014Y-97940500D01*
X90052987Y-97940500D01*
X90152565Y-97904257D01*
X90152564Y-97904257D01*
X90152568Y-97904256D01*
X90233748Y-97836138D01*
X90286734Y-97744363D01*
X90305136Y-97640000D01*
X90286734Y-97535637D01*
X90233748Y-97443862D01*
X90152568Y-97375744D01*
X90152565Y-97375742D01*
X90052988Y-97339500D01*
X90052986Y-97339500D01*
X89947014Y-97339500D01*
X89947012Y-97339500D01*
X89847434Y-97375742D01*
X89847431Y-97375744D01*
X89766251Y-97443862D01*
X89713265Y-97535638D01*
X89694864Y-97639999D01*
X89694864Y-97640000D01*
X85475500Y-97640000D01*
X85475500Y-92451500D01*
X85495502Y-92383379D01*
X85549158Y-92336886D01*
X85601500Y-92325500D01*
X97448500Y-92325500D01*
X97516621Y-92345502D01*
G37*
%TD.AperFunction*%
%TD*%
M02*
