%TF.GenerationSoftware,KiCad,Pcbnew,7.0.9-7.0.9~ubuntu22.04.1*%
%TF.CreationDate,2023-12-01T07:42:16+01:00*%
%TF.ProjectId,jetson-orin-baseboard,6a657473-6f6e-42d6-9f72-696e2d626173,1.1.1*%
%TF.SameCoordinates,Original*%
%TF.FileFunction,Copper,L1,Top*%
%TF.FilePolarity,Positive*%
%FSLAX46Y46*%
G04 Gerber Fmt 4.6, Leading zero omitted, Abs format (unit mm)*
G04 Created by KiCad (PCBNEW 7.0.9-7.0.9~ubuntu22.04.1) date 2023-12-01 07:42:16*
%MOMM*%
%LPD*%
G01*
G04 APERTURE LIST*
G04 Aperture macros list*
%AMRoundRect*
0 Rectangle with rounded corners*
0 $1 Rounding radius*
0 $2 $3 $4 $5 $6 $7 $8 $9 X,Y pos of 4 corners*
0 Add a 4 corners polygon primitive as box body*
4,1,4,$2,$3,$4,$5,$6,$7,$8,$9,$2,$3,0*
0 Add four circle primitives for the rounded corners*
1,1,$1+$1,$2,$3*
1,1,$1+$1,$4,$5*
1,1,$1+$1,$6,$7*
1,1,$1+$1,$8,$9*
0 Add four rect primitives between the rounded corners*
20,1,$1+$1,$2,$3,$4,$5,0*
20,1,$1+$1,$4,$5,$6,$7,0*
20,1,$1+$1,$6,$7,$8,$9,0*
20,1,$1+$1,$8,$9,$2,$3,0*%
G04 Aperture macros list end*
%TA.AperFunction,NonConductor*%
%ADD10C,0.125000*%
%TD*%
%TA.AperFunction,SMDPad,CuDef*%
%ADD11R,0.510000X0.400000*%
%TD*%
%TA.AperFunction,SMDPad,CuDef*%
%ADD12RoundRect,0.062500X-0.062500X-0.212500X0.062500X-0.212500X0.062500X0.212500X-0.062500X0.212500X0*%
%TD*%
%TA.AperFunction,SMDPad,CuDef*%
%ADD13RoundRect,0.100000X-0.100000X-0.175000X0.100000X-0.175000X0.100000X0.175000X-0.100000X0.175000X0*%
%TD*%
%TA.AperFunction,SMDPad,CuDef*%
%ADD14RoundRect,0.147500X0.017678X-0.226274X0.226274X-0.017678X-0.017678X0.226274X-0.226274X0.017678X0*%
%TD*%
%TA.AperFunction,SMDPad,CuDef*%
%ADD15C,0.750000*%
%TD*%
%TA.AperFunction,SMDPad,CuDef*%
%ADD16RoundRect,0.147500X-0.017678X0.226274X-0.226274X0.017678X0.017678X-0.226274X0.226274X-0.017678X0*%
%TD*%
%TA.AperFunction,SMDPad,CuDef*%
%ADD17RoundRect,0.050000X-0.050000X-0.150000X0.050000X-0.150000X0.050000X0.150000X-0.050000X0.150000X0*%
%TD*%
%TA.AperFunction,ViaPad*%
%ADD18C,0.450000*%
%TD*%
%TA.AperFunction,Conductor*%
%ADD19C,0.200000*%
%TD*%
%TA.AperFunction,Conductor*%
%ADD20C,0.125000*%
%TD*%
%TA.AperFunction,Conductor*%
%ADD21C,0.155000*%
%TD*%
%TA.AperFunction,Conductor*%
%ADD22C,0.150000*%
%TD*%
G04 APERTURE END LIST*
D10*
X93425000Y-117925000D02*
X93425000Y-118625000D01*
X93025000Y-117950000D02*
X93025000Y-118650000D01*
X94225000Y-117950000D02*
X94225000Y-118650000D01*
X93825000Y-117975000D02*
X93825000Y-118675000D01*
D11*
%TO.P,Q2,1,G*%
%TO.N,+3V3*%
X86850000Y-99700000D03*
%TO.P,Q2,2,S*%
%TO.N,GND*%
X86850000Y-100698000D03*
%TO.P,Q2,3,D*%
X88152000Y-100200000D03*
%TD*%
D12*
%TO.P,U45,1*%
%TO.N,/HDMI/HDMI_CLK_CONN_N*%
X92625000Y-120287000D03*
%TO.P,U45,2*%
%TO.N,/HDMI/HDMI_CLK_CONN_P*%
X93125000Y-120287000D03*
D13*
%TO.P,U45,3*%
%TO.N,GND*%
X93625000Y-120287000D03*
D12*
%TO.P,U45,4*%
%TO.N,/HDMI/HDMI_D0_CONN_N*%
X94123000Y-120287000D03*
%TO.P,U45,5*%
%TO.N,/HDMI/HDMI_D0_CONN_P*%
X94623000Y-120287000D03*
%TO.P,U45,6*%
X94623000Y-119515000D03*
%TO.P,U45,7*%
%TO.N,/HDMI/HDMI_D0_CONN_N*%
X94123000Y-119515000D03*
D13*
%TO.P,U45,8*%
%TO.N,GND*%
X93625000Y-119515000D03*
D12*
%TO.P,U45,9*%
%TO.N,/HDMI/HDMI_CLK_CONN_P*%
X93125000Y-119515000D03*
%TO.P,U45,10*%
%TO.N,/HDMI/HDMI_CLK_CONN_N*%
X92625000Y-119515000D03*
%TD*%
D14*
%TO.P,R209,1*%
%TO.N,GND*%
X92247053Y-105752947D03*
%TO.P,R209,2*%
%TO.N,/HDMI/HDMI_D2_N*%
X92932947Y-105067053D03*
%TD*%
D15*
%TO.P,TP57,1,1*%
%TO.N,/HDMI/HDMI_SCL_3V3*%
X91450800Y-114400000D03*
%TD*%
D16*
%TO.P,R210,1*%
%TO.N,GND*%
X94262947Y-103737053D03*
%TO.P,R210,2*%
%TO.N,/HDMI/HDMI_D2_P*%
X93577053Y-104422947D03*
%TD*%
D17*
%TO.P,R34,1,R1.1*%
%TO.N,/HDMI/HDMI_CLK_CONN_N*%
X93025000Y-118598000D03*
%TO.P,R34,2,R2.1*%
%TO.N,/HDMI/HDMI_CLK_CONN_P*%
X93423000Y-118598000D03*
%TO.P,R34,3,R3.1*%
%TO.N,/HDMI/HDMI_D0_CONN_N*%
X93825000Y-118598000D03*
%TO.P,R34,4,R4.1*%
%TO.N,/HDMI/HDMI_D0_CONN_P*%
X94223000Y-118598000D03*
%TO.P,R34,5,R4.2*%
%TO.N,/HDMI/HDMI_D0_P*%
X94223000Y-118000000D03*
%TO.P,R34,6,R3.2*%
%TO.N,/HDMI/HDMI_D0_N*%
X93825000Y-118000000D03*
%TO.P,R34,7,R2.2*%
%TO.N,/HDMI/HDMI_CLK_P*%
X93423000Y-118000000D03*
%TO.P,R34,8,R1.2*%
%TO.N,/HDMI/HDMI_CLK_N*%
X93025000Y-118000000D03*
%TD*%
D18*
%TO.N,GND*%
X91450000Y-102350000D03*
X91750000Y-108800000D03*
X94962501Y-117706675D03*
%TO.N,Net-(A1-Pad124)*%
X89410307Y-113668914D03*
%TO.N,CSIA_FLG*%
X92272500Y-113200000D03*
%TO.N,CSIB_FLG*%
X92500000Y-108850000D03*
%TO.N,I2S1_SDOUT*%
X92100688Y-107399312D03*
%TO.N,I2S1_SDIN*%
X91664500Y-106949833D03*
%TO.N,I2S1_LRCK*%
X92150000Y-106537833D03*
%TO.N,I2S1_SCLK*%
X91664500Y-106101467D03*
%TO.N,USBC0_FLG*%
X90800000Y-113150000D03*
%TO.N,USBC1_FLG*%
X91412000Y-113500000D03*
%TO.N,DISABLE_POE_DCDC*%
X91400000Y-107900000D03*
%TO.N,/HDMI/HDMI_SCL_3V3*%
X90950000Y-115050000D03*
%TO.N,USBC1_PEN*%
X91430000Y-105540000D03*
%TO.N,USBC_HPD*%
X90625000Y-99125000D03*
%TO.N,/HDMI/HDMI_SDA_3V3*%
X90250000Y-115050000D03*
%TO.N,/HDMI/HDMI_HPD*%
X90000000Y-97640000D03*
%TD*%
D19*
%TO.N,GND*%
X93950000Y-122000000D02*
X93950000Y-121150000D01*
D20*
X92050000Y-102650000D02*
X92050000Y-103100000D01*
X91750000Y-102350000D02*
X92050000Y-102650000D01*
X91900000Y-103250000D02*
X91900000Y-105405894D01*
X91900000Y-105405894D02*
X92247053Y-105752947D01*
X92050000Y-103100000D02*
X91900000Y-103250000D01*
D19*
X93625000Y-120825000D02*
X93625000Y-120285000D01*
X93625000Y-119515000D02*
X93625000Y-120285000D01*
X93950000Y-121150000D02*
X93625000Y-120825000D01*
D20*
X91450000Y-102350000D02*
X91750000Y-102350000D01*
%TO.N,/HDMI/HDMI_D2_N*%
X93855000Y-105531777D02*
X93855000Y-114711778D01*
X92475000Y-104151777D02*
X93855000Y-105531777D01*
X91545000Y-97195000D02*
X91852451Y-97195000D01*
X90095000Y-95455000D02*
X90498222Y-95455000D01*
X91045000Y-96001778D02*
X91045000Y-96695000D01*
X88981778Y-95455000D02*
X89245000Y-95455000D01*
X91045000Y-98861225D02*
X91045000Y-101041778D01*
X90337549Y-98111225D02*
X90337549Y-98278775D01*
X92475000Y-102471778D02*
X92475000Y-104151777D01*
X91045000Y-101041778D02*
X92475000Y-102471778D01*
X90498222Y-95455000D02*
X91045000Y-96001778D01*
X90753774Y-98695000D02*
X90878775Y-98695000D01*
X88575000Y-96197500D02*
X88575000Y-95861778D01*
X95148222Y-116005000D02*
X96458222Y-116005000D01*
X90753774Y-97695000D02*
X91852451Y-97695000D01*
X89845000Y-96063730D02*
X89845000Y-95655000D01*
X88575000Y-95861778D02*
X88981778Y-95455000D01*
X90045000Y-95455000D02*
X90095000Y-95455000D01*
X89445000Y-95655000D02*
X89445000Y-96063730D01*
X93855000Y-114711778D02*
X95148222Y-116005000D01*
X90337600Y-98278775D02*
G75*
G03*
X90753774Y-98695000I416200J-25D01*
G01*
X92102500Y-97445000D02*
G75*
G03*
X91852451Y-97195000I-250000J0D01*
G01*
X90753774Y-97694949D02*
G75*
G03*
X90337549Y-98111225I26J-416251D01*
G01*
X91045000Y-98861225D02*
G75*
G03*
X90878775Y-98695000I-166200J25D01*
G01*
X89445000Y-95655000D02*
G75*
G03*
X89245000Y-95455000I-200000J0D01*
G01*
X89444970Y-96063730D02*
G75*
G03*
X89645000Y-96263730I200030J30D01*
G01*
X89645000Y-96263700D02*
G75*
G03*
X89845000Y-96063730I0J200000D01*
G01*
X91852451Y-97694951D02*
G75*
G03*
X92102451Y-97445000I49J249951D01*
G01*
X90045000Y-95455000D02*
G75*
G03*
X89845000Y-95655000I0J-200000D01*
G01*
X91045000Y-96695000D02*
G75*
G03*
X91545000Y-97195000I500000J0D01*
G01*
%TO.N,/HDMI/HDMI_D0_N*%
X87898222Y-93825000D02*
X87492500Y-93825000D01*
X87400712Y-98349380D02*
X87400712Y-98349381D01*
X88900804Y-97521042D02*
X88072464Y-98349382D01*
X93900000Y-117925000D02*
X93900000Y-116576778D01*
X87266635Y-95109097D02*
X87250283Y-95092745D01*
X87400711Y-97677630D02*
X87400712Y-97677629D01*
X92685000Y-115361778D02*
X92685000Y-111061778D01*
X86825000Y-96591777D02*
X87496683Y-97263457D01*
X87250283Y-94845258D02*
X87250282Y-94845258D01*
X90675000Y-104451777D02*
X89675000Y-103451777D01*
X88125000Y-94051778D02*
X87898222Y-93825000D01*
X89675000Y-99441777D02*
X88981610Y-98748386D01*
X87761611Y-94861611D02*
X88125000Y-94498222D01*
X90675000Y-109051778D02*
X90675000Y-104451777D01*
X88125000Y-94498222D02*
X88125000Y-94051778D01*
X88981610Y-98076634D02*
X89219003Y-97839240D01*
X87400712Y-97677629D02*
X87496683Y-97581655D01*
X87497770Y-94845258D02*
X87514123Y-94861611D01*
X87250283Y-95092745D02*
X87250283Y-95092744D01*
X86825000Y-96591777D02*
X86825000Y-95798222D01*
X88900804Y-97521041D02*
X88900804Y-97521042D01*
X86825000Y-95798222D02*
X87266635Y-95356585D01*
X93900000Y-116576778D02*
X92685000Y-115361778D01*
X89675000Y-103451777D02*
X89675000Y-99441777D01*
X93825000Y-118000000D02*
X93900000Y-117925000D01*
X92685000Y-111061778D02*
X90675000Y-109051778D01*
X87514124Y-94861610D02*
G75*
G03*
X87761610Y-94861610I123743J123745D01*
G01*
X89219000Y-97521045D02*
G75*
G03*
X88900804Y-97521041I-159100J-159055D01*
G01*
X89218961Y-97839198D02*
G75*
G03*
X89219002Y-97521043I-159061J159098D01*
G01*
X87496726Y-97581698D02*
G75*
G03*
X87496682Y-97263458I-159126J159098D01*
G01*
X88981600Y-98076624D02*
G75*
G03*
X88981610Y-98748386I335900J-335876D01*
G01*
X87266594Y-95356544D02*
G75*
G03*
X87266635Y-95109097I-123694J123744D01*
G01*
X87400706Y-97677625D02*
G75*
G03*
X87400712Y-98349381I335894J-335875D01*
G01*
X87400723Y-98349369D02*
G75*
G03*
X88072464Y-98349382I335877J335869D01*
G01*
X87497769Y-94845259D02*
G75*
G03*
X87250283Y-94845259I-123743J-123745D01*
G01*
X87250282Y-94845257D02*
G75*
G03*
X87250283Y-95092744I123718J-123743D01*
G01*
%TO.N,/HDMI/HDMI_CLK_N*%
X92661777Y-117315000D02*
X92918222Y-117315000D01*
X93100000Y-117925000D02*
X93025000Y-118000000D01*
X92918222Y-117315000D02*
X93100000Y-117496778D01*
X93100000Y-117496778D02*
X93100000Y-117925000D01*
%TO.N,/HDMI/HDMI_D2_P*%
X88878222Y-95205000D02*
X90601778Y-95205000D01*
X91295000Y-100938222D02*
X92725000Y-102368222D01*
X91295000Y-95898222D02*
X91295000Y-96695000D01*
X90753774Y-97945000D02*
X91852451Y-97945000D01*
X91545000Y-96945000D02*
X91852451Y-96945000D01*
X95251778Y-115755000D02*
X96561778Y-115755000D01*
X88325000Y-96197500D02*
X88325000Y-95758222D01*
X90753774Y-98445000D02*
X90878775Y-98445000D01*
X91295000Y-98861225D02*
X91295000Y-100938222D01*
X94105000Y-114608222D02*
X95251778Y-115755000D01*
X90601778Y-95205000D02*
X91295000Y-95898222D01*
X92725000Y-104048223D02*
X94105000Y-105428223D01*
X94105000Y-105428223D02*
X94105000Y-114608222D01*
X90587549Y-98111225D02*
X90587549Y-98278775D01*
X92725000Y-102368222D02*
X92725000Y-104048223D01*
X88325000Y-95758222D02*
X88878222Y-95205000D01*
X91852451Y-97945051D02*
G75*
G03*
X92352451Y-97445000I-51J500051D01*
G01*
X90753774Y-97944949D02*
G75*
G03*
X90587549Y-98111225I26J-166251D01*
G01*
X91295000Y-96695000D02*
G75*
G03*
X91545000Y-96945000I250000J0D01*
G01*
X91295000Y-98861225D02*
G75*
G03*
X90878775Y-98445000I-416200J25D01*
G01*
X92352400Y-97445000D02*
G75*
G03*
X91852451Y-96945000I-500000J0D01*
G01*
X90587600Y-98278775D02*
G75*
G03*
X90753774Y-98445000I166200J-25D01*
G01*
%TO.N,/HDMI/HDMI_D0_P*%
X94150000Y-116473222D02*
X92935000Y-115258222D01*
X94225000Y-118000000D02*
X94150000Y-117925000D01*
X90925000Y-104348223D02*
X89925000Y-103348223D01*
X92935000Y-110958222D02*
X90925000Y-108948222D01*
X87577489Y-97854406D02*
X87673460Y-97758432D01*
X88001778Y-93575000D02*
X87492500Y-93575000D01*
X90925000Y-108948222D02*
X90925000Y-104348223D01*
X89925000Y-99338223D02*
X89158387Y-98571609D01*
X87673459Y-97086681D02*
X87673461Y-97086682D01*
X89158387Y-98253411D02*
X89395780Y-98016017D01*
X94150000Y-117925000D02*
X94150000Y-116473222D01*
X87673461Y-97086682D02*
X87075000Y-96488222D01*
X88375000Y-93948222D02*
X88001778Y-93575000D01*
X92935000Y-115258222D02*
X92935000Y-110958222D01*
X88724029Y-97344265D02*
X88724028Y-97344266D01*
X88724028Y-97344266D02*
X87895686Y-98172604D01*
X89395780Y-97344265D02*
X89395780Y-97344266D01*
X87577487Y-97854405D02*
X87577489Y-97854406D01*
X87075000Y-96488222D02*
X87075000Y-95901778D01*
X87075000Y-95901778D02*
X88375000Y-94601778D01*
X89925000Y-103348223D02*
X89925000Y-99338223D01*
X88375000Y-94601778D02*
X88375000Y-93948222D01*
X87577483Y-97854401D02*
G75*
G03*
X87577488Y-98172604I159117J-159099D01*
G01*
X87673502Y-97758474D02*
G75*
G03*
X87673458Y-97086682I-335902J335874D01*
G01*
X89158378Y-98253402D02*
G75*
G03*
X89158388Y-98571608I159122J-159098D01*
G01*
X89395775Y-97344271D02*
G75*
G03*
X88724030Y-97344266I-335875J-335829D01*
G01*
X89395739Y-98015976D02*
G75*
G03*
X89395780Y-97344265I-335839J335876D01*
G01*
X87577489Y-98172603D02*
G75*
G03*
X87895685Y-98172603I159098J159098D01*
G01*
%TO.N,/HDMI/HDMI_CLK_P*%
X92558223Y-117065000D02*
X93021778Y-117065000D01*
X93021778Y-117065000D02*
X93350000Y-117393222D01*
X93350000Y-117925000D02*
X93425000Y-118000000D01*
X93350000Y-117393222D02*
X93350000Y-117925000D01*
%TO.N,/HDMI/HDMI_CLK_CONN_N*%
X93225000Y-121490000D02*
X93225000Y-121391778D01*
X93100000Y-118883222D02*
X93100000Y-118675000D01*
X93100000Y-118675000D02*
X93025000Y-118600000D01*
X93225000Y-121391778D02*
X92750000Y-120916778D01*
X92625000Y-119515000D02*
X92750000Y-119390000D01*
X92750000Y-120410000D02*
X92625000Y-120285000D01*
X93150000Y-121950000D02*
X93150000Y-121565000D01*
X92750000Y-119233222D02*
X93100000Y-118883222D01*
X92750000Y-120916778D02*
X92750000Y-120410000D01*
X92750000Y-119390000D02*
X92750000Y-119233222D01*
X92625000Y-119515000D02*
X92625000Y-120285000D01*
X93150000Y-121565000D02*
X93225000Y-121490000D01*
%TO.N,/HDMI/HDMI_CLK_CONN_P*%
X93550000Y-121565000D02*
X93475000Y-121490000D01*
X93000000Y-120410000D02*
X93125000Y-120285000D01*
X93000000Y-120813222D02*
X93000000Y-120410000D01*
X93125000Y-119515000D02*
X93125000Y-119275000D01*
X93350000Y-119050000D02*
X93350000Y-118675000D01*
X93350000Y-118675000D02*
X93425000Y-118600000D01*
X93550000Y-121950000D02*
X93550000Y-121565000D01*
X93125000Y-119275000D02*
X93350000Y-119050000D01*
X93125000Y-119515000D02*
X93125000Y-120285000D01*
X93475000Y-121288222D02*
X93000000Y-120813222D01*
X93475000Y-121490000D02*
X93475000Y-121288222D01*
%TO.N,/HDMI/HDMI_D0_CONN_N*%
X94350000Y-121565000D02*
X94350000Y-121950000D01*
X94425000Y-121490000D02*
X94350000Y-121565000D01*
X94250000Y-120410000D02*
X94250000Y-120796778D01*
X94125000Y-119515000D02*
X94125000Y-119201778D01*
X94125000Y-119515000D02*
X94125000Y-120285000D01*
X94125000Y-119201778D02*
X93900000Y-118976778D01*
X93900000Y-118675000D02*
X93825000Y-118600000D01*
X93900000Y-118976778D02*
X93900000Y-118675000D01*
X94425000Y-120971778D02*
X94425000Y-121490000D01*
X94125000Y-120285000D02*
X94250000Y-120410000D01*
X94250000Y-120796778D02*
X94425000Y-120971778D01*
%TO.N,/HDMI/HDMI_D0_CONN_P*%
X94625000Y-119348222D02*
X94150000Y-118873222D01*
X94150000Y-118873222D02*
X94150000Y-118675000D01*
X94750000Y-121565000D02*
X94750000Y-121950000D01*
X94625000Y-119515000D02*
X94625000Y-120285000D01*
X94500000Y-120693222D02*
X94675000Y-120868222D01*
X94675000Y-120868222D02*
X94675000Y-121490000D01*
X94500000Y-120410000D02*
X94500000Y-120693222D01*
X94625000Y-120285000D02*
X94500000Y-120410000D01*
X94675000Y-121490000D02*
X94750000Y-121565000D01*
X94625000Y-119515000D02*
X94625000Y-119348222D01*
X94150000Y-118675000D02*
X94225000Y-118600000D01*
D21*
%TO.N,/HDMI/HDMI_SCL_3V3*%
X90800000Y-114900000D02*
X90800000Y-113900000D01*
X91400000Y-114900000D02*
X91400000Y-114400000D01*
X88400000Y-105150000D02*
X88400000Y-104500000D01*
D22*
X87690000Y-99190000D02*
X87690000Y-101090000D01*
X85875000Y-92925000D02*
X85875000Y-97375000D01*
D21*
X89400000Y-106150000D02*
X88400000Y-105150000D01*
X89400000Y-112500000D02*
X89400000Y-106150000D01*
X90800000Y-113900000D02*
X89400000Y-112500000D01*
X90950000Y-115050000D02*
X91250000Y-115050000D01*
D22*
X87690000Y-101090000D02*
X88400000Y-101800000D01*
X88400000Y-101800000D02*
X88400000Y-104500000D01*
D21*
X90950000Y-115050000D02*
X90800000Y-114900000D01*
D22*
X85875000Y-97375000D02*
X87690000Y-99190000D01*
D21*
X91250000Y-115050000D02*
X91400000Y-114900000D01*
D20*
%TO.N,/HDMI/HDMI_SDA_3V3*%
X85550000Y-92850000D02*
X85550000Y-97450000D01*
D21*
X87900000Y-104499600D02*
X87900000Y-105100000D01*
X89050000Y-106250000D02*
X89050000Y-112650000D01*
D22*
X87900000Y-104499600D02*
X87900000Y-101830000D01*
D20*
X85550000Y-97450000D02*
X87400000Y-99300000D01*
D21*
X90400000Y-114000000D02*
X90400000Y-114900000D01*
D22*
X87400000Y-101330000D02*
X87400000Y-99300000D01*
D21*
X89050000Y-112650000D02*
X90400000Y-114000000D01*
X90400000Y-114900000D02*
X90250000Y-115050000D01*
D22*
X87900000Y-101830000D02*
X87400000Y-101330000D01*
D21*
X87900000Y-105100000D02*
X89050000Y-106250000D01*
%TD*%
M02*
