%TF.GenerationSoftware,KiCad,Pcbnew,7.0.9-7.0.9~ubuntu22.04.1*%
%TF.CreationDate,2023-12-01T07:42:16+01:00*%
%TF.ProjectId,jetson-orin-baseboard,6a657473-6f6e-42d6-9f72-696e2d626173,1.1.1*%
%TF.SameCoordinates,Original*%
%TF.FileFunction,Copper,L4,Inr*%
%TF.FilePolarity,Positive*%
%FSLAX46Y46*%
G04 Gerber Fmt 4.6, Leading zero omitted, Abs format (unit mm)*
G04 Created by KiCad (PCBNEW 7.0.9-7.0.9~ubuntu22.04.1) date 2023-12-01 07:42:16*
%MOMM*%
%LPD*%
G01*
G04 APERTURE LIST*
%TA.AperFunction,ViaPad*%
%ADD10C,0.450000*%
%TD*%
%TA.AperFunction,Conductor*%
%ADD11C,0.160000*%
%TD*%
%TA.AperFunction,Conductor*%
%ADD12C,0.150000*%
%TD*%
%TA.AperFunction,Conductor*%
%ADD13C,0.130000*%
%TD*%
%TA.AperFunction,Conductor*%
%ADD14C,0.125000*%
%TD*%
%TA.AperFunction,Conductor*%
%ADD15C,0.300000*%
%TD*%
%TA.AperFunction,Conductor*%
%ADD16C,0.155000*%
%TD*%
G04 APERTURE END LIST*
D10*
%TO.N,Net-(A1-Pad124)*%
X89410307Y-113668914D03*
%TO.N,CSIA_FLG*%
X92272500Y-113200000D03*
%TO.N,CSIB_FLG*%
X92500000Y-108850000D03*
%TO.N,I2S1_SDOUT*%
X92100688Y-107399312D03*
%TO.N,I2S1_SDIN*%
X91664500Y-106949833D03*
%TO.N,I2S1_LRCK*%
X92150000Y-106537833D03*
%TO.N,I2S1_SCLK*%
X91664500Y-106101467D03*
%TO.N,USBC0_FLG*%
X90800000Y-113150000D03*
%TO.N,USBC1_FLG*%
X91412000Y-113500000D03*
%TD*%
D11*
%TO.N,CSI3_CLK_N*%
X115240000Y-77759635D02*
X115240000Y-75680365D01*
X91127890Y-75357890D02*
X91127890Y-75152828D01*
X109758282Y-76669000D02*
X112291000Y-76669000D01*
X113640000Y-77359635D02*
X113640000Y-76175682D01*
X91127890Y-75152828D02*
X91491718Y-74789000D01*
X112542000Y-76920000D02*
X112542000Y-77359635D01*
X114142000Y-76175682D02*
X114142000Y-77759635D01*
X105888282Y-75329000D02*
X106708282Y-76149000D01*
X109238282Y-76149000D02*
X109758282Y-76669000D01*
X99248282Y-74789000D02*
X99788282Y-75329000D01*
X113686317Y-76129365D02*
X114095683Y-76129365D01*
X106708282Y-76149000D02*
X109238282Y-76149000D01*
X116291000Y-76669000D02*
X116962000Y-76669000D01*
X99788282Y-75329000D02*
X105888282Y-75329000D01*
X91491718Y-74789000D02*
X99248282Y-74789000D01*
X116962000Y-76669000D02*
X117110000Y-76817000D01*
X115742000Y-75680365D02*
X115742000Y-76120000D01*
X114141965Y-77759635D02*
G75*
G03*
X114691000Y-78308635I549035J35D01*
G01*
X114691000Y-78308600D02*
G75*
G03*
X115240000Y-77759635I0J549000D01*
G01*
X115742035Y-75680365D02*
G75*
G03*
X115491000Y-75429365I-251035J-35D01*
G01*
X113091000Y-77908600D02*
G75*
G03*
X113640000Y-77359635I0J549000D01*
G01*
X113686317Y-76129400D02*
G75*
G03*
X113640000Y-76175682I-17J-46300D01*
G01*
X114142035Y-76175682D02*
G75*
G03*
X114095683Y-76129365I-46335J-18D01*
G01*
X112542000Y-76920000D02*
G75*
G03*
X112291000Y-76669000I-251000J0D01*
G01*
X115742000Y-76120000D02*
G75*
G03*
X116291000Y-76669000I549000J0D01*
G01*
X112541965Y-77359635D02*
G75*
G03*
X113091000Y-77908635I549035J35D01*
G01*
X115491000Y-75429400D02*
G75*
G03*
X115240000Y-75680365I0J-251000D01*
G01*
%TO.N,CSI3_CLK_P*%
X106011718Y-75031000D02*
X99911718Y-75031000D01*
X91368282Y-74491000D02*
X90917172Y-74942110D01*
X106831718Y-75851000D02*
X106011718Y-75031000D01*
X109361718Y-75851000D02*
X106831718Y-75851000D01*
X90917172Y-74942110D02*
X90712110Y-74942110D01*
X114440000Y-77759635D02*
X114440000Y-76175682D01*
X114095683Y-75831365D02*
X113686317Y-75831365D01*
X111466000Y-75918180D02*
X111466000Y-76096000D01*
X114942000Y-75680365D02*
X114942000Y-77759635D01*
X109881718Y-76371000D02*
X111191000Y-76371000D01*
X99371718Y-74491000D02*
X91368282Y-74491000D01*
X112840000Y-77359635D02*
X112840000Y-76920000D01*
X117110000Y-76223000D02*
X116962000Y-76371000D01*
X116040000Y-76120000D02*
X116040000Y-75680365D01*
X112016000Y-76096000D02*
X112016000Y-75918180D01*
X99911718Y-75031000D02*
X99371718Y-74491000D01*
X116962000Y-76371000D02*
X116291000Y-76371000D01*
X113342000Y-76175682D02*
X113342000Y-77359635D01*
X109881718Y-76371000D02*
X109361718Y-75851000D01*
X116040000Y-76120000D02*
G75*
G03*
X116291000Y-76371000I251000J0D01*
G01*
X112016000Y-76096000D02*
G75*
G03*
X112291000Y-76371000I275000J0D01*
G01*
X114440035Y-76175682D02*
G75*
G03*
X114095683Y-75831365I-344335J-18D01*
G01*
X112840000Y-76920000D02*
G75*
G03*
X112291000Y-76371000I-549000J0D01*
G01*
X113091000Y-77610600D02*
G75*
G03*
X113342000Y-77359635I0J251000D01*
G01*
X112839965Y-77359635D02*
G75*
G03*
X113091000Y-77610635I251035J35D01*
G01*
X115491000Y-75131400D02*
G75*
G03*
X114942000Y-75680365I0J-549000D01*
G01*
X111191000Y-76371000D02*
G75*
G03*
X111466000Y-76096000I0J275000D01*
G01*
X114691000Y-78010600D02*
G75*
G03*
X114942000Y-77759635I0J251000D01*
G01*
X112016020Y-75918180D02*
G75*
G03*
X111741000Y-75643180I-275020J-20D01*
G01*
X114439965Y-77759635D02*
G75*
G03*
X114691000Y-78010635I251035J35D01*
G01*
X113686317Y-75831400D02*
G75*
G03*
X113342000Y-76175682I-17J-344300D01*
G01*
X111741000Y-75643200D02*
G75*
G03*
X111466000Y-75918180I0J-275000D01*
G01*
X116040035Y-75680365D02*
G75*
G03*
X115491000Y-75131365I-549035J-35D01*
G01*
D12*
%TO.N,SPIO_MOSI*%
X127800000Y-71850000D02*
X127800000Y-72100000D01*
X135890000Y-78560000D02*
X130660000Y-73330000D01*
X129600000Y-71160000D02*
X128490000Y-71160000D01*
X128490000Y-71160000D02*
X127800000Y-71850000D01*
X130660000Y-73330000D02*
X130660000Y-72220000D01*
X135890000Y-93180000D02*
X135890000Y-78560000D01*
X130660000Y-72220000D02*
X129600000Y-71160000D01*
X134450000Y-94200000D02*
X134870000Y-94200000D01*
X134870000Y-94200000D02*
X135890000Y-93180000D01*
%TO.N,SPIO_SCK*%
X128380000Y-71760000D02*
X128380000Y-72340000D01*
X134550000Y-93760000D02*
X135610000Y-92700000D01*
X135610000Y-92700000D02*
X135610000Y-78750000D01*
X130300000Y-73440000D02*
X130300000Y-72440000D01*
X129360000Y-71500000D02*
X128640000Y-71500000D01*
X130300000Y-72440000D02*
X129360000Y-71500000D01*
X135610000Y-78750000D02*
X130300000Y-73440000D01*
X128640000Y-71500000D02*
X128380000Y-71760000D01*
X133590000Y-94370000D02*
X134200000Y-93760000D01*
X134200000Y-93760000D02*
X134550000Y-93760000D01*
%TO.N,SPIO_MISO*%
X134640000Y-90860000D02*
X134640000Y-79280000D01*
X133620000Y-93480000D02*
X133620000Y-93470000D01*
X133070000Y-92920000D02*
X133070000Y-92430000D01*
X134640000Y-79280000D02*
X128870000Y-73510000D01*
X133070000Y-92430000D02*
X134640000Y-90860000D01*
X133620000Y-93470000D02*
X133070000Y-92920000D01*
X128870000Y-73510000D02*
X128870000Y-71970000D01*
%TO.N,~{SPI0_CS0}*%
X135270000Y-78890000D02*
X129870000Y-73490000D01*
X129870000Y-73490000D02*
X129870000Y-72970000D01*
X135270000Y-92210000D02*
X135270000Y-78890000D01*
X134200000Y-93280000D02*
X135270000Y-92210000D01*
%TO.N,~{SPI0_CS1}*%
X129430000Y-72520000D02*
X129430000Y-73580000D01*
X133590000Y-92590000D02*
X133540000Y-92590000D01*
X129430000Y-73580000D02*
X134920000Y-79070000D01*
X134920000Y-91260000D02*
X133590000Y-92590000D01*
X134920000Y-79070000D02*
X134920000Y-91260000D01*
D11*
%TO.N,USB0_D_N*%
X104281718Y-102451000D02*
X106099000Y-104268282D01*
X106099000Y-104268282D02*
X106099000Y-106088282D01*
D13*
X113000000Y-118700000D02*
X113000000Y-119450000D01*
D11*
X113098500Y-110701138D02*
X113246500Y-110849138D01*
X113098500Y-110187782D02*
X113098500Y-110701138D01*
X100949000Y-97345000D02*
X100949000Y-99658282D01*
X106811718Y-106801000D02*
X108892371Y-106801000D01*
D13*
X113800000Y-117300000D02*
X113800000Y-117900000D01*
D11*
X106099000Y-106088282D02*
X106811718Y-106801000D01*
X111508997Y-108598279D02*
X113098500Y-110187782D01*
X100949000Y-99658282D02*
X103741718Y-102451000D01*
X103741718Y-102451000D02*
X104281718Y-102451000D01*
D13*
X113800000Y-117900000D02*
X113000000Y-118700000D01*
D11*
X101094000Y-97200000D02*
X100949000Y-97345000D01*
X108892371Y-106801000D02*
X110689650Y-108598279D01*
X110689650Y-108598279D02*
X111508997Y-108598279D01*
D14*
%TO.N,USER_LED1*%
X83475499Y-110075499D02*
X83475499Y-109251500D01*
X99150000Y-111500000D02*
X84900000Y-111500000D01*
X99800000Y-110850000D02*
X99150000Y-111500000D01*
X84900000Y-111500000D02*
X83475499Y-110075499D01*
D12*
%TO.N,USER_BTN0*%
X107750000Y-115450000D02*
X108400000Y-116100000D01*
X104050000Y-115450000D02*
X107750000Y-115450000D01*
X108400000Y-116100000D02*
X118500000Y-116100000D01*
D14*
X96100000Y-112975500D02*
X101575500Y-112975500D01*
X120150000Y-121500000D02*
X120600000Y-121050000D01*
X119100000Y-116100000D02*
X118500000Y-116100000D01*
X120600000Y-117600000D02*
X119100000Y-116100000D01*
X101575500Y-112975500D02*
X101875000Y-113275000D01*
D12*
X101875000Y-113275000D02*
X104050000Y-115450000D01*
D14*
X120600000Y-121050000D02*
X120600000Y-117600000D01*
%TO.N,USER_BTN1*%
X120150000Y-120800000D02*
X120300000Y-120650000D01*
D12*
X108200000Y-116400000D02*
X118525000Y-116400000D01*
X101650000Y-113550000D02*
X103900000Y-115800000D01*
D14*
X101500000Y-113400000D02*
X101650000Y-113550000D01*
D12*
X103900000Y-115800000D02*
X107600000Y-115800000D01*
X107600000Y-115800000D02*
X108200000Y-116400000D01*
D14*
X120300000Y-117700000D02*
X119000000Y-116400000D01*
X119000000Y-116400000D02*
X118525000Y-116400000D01*
X120300000Y-120650000D02*
X120300000Y-117700000D01*
X95600000Y-113400000D02*
X101500000Y-113400000D01*
D11*
%TO.N,PCIE0_RX0_N*%
X105465795Y-71573487D02*
X105516836Y-71522446D01*
X105870389Y-71376000D02*
X124304611Y-71376000D01*
X124769000Y-83086693D02*
X124769000Y-84704611D01*
X124622553Y-85058165D02*
X123928164Y-85752554D01*
X94781693Y-71676000D02*
X105218307Y-71676000D01*
X123574611Y-85899000D02*
X122072699Y-85899000D01*
X125219000Y-76436693D02*
X125219000Y-82284611D01*
X124658165Y-71522447D02*
X125362554Y-72226836D01*
X125509000Y-72580389D02*
X125509000Y-75794611D01*
X125072553Y-82638165D02*
X124871512Y-82839206D01*
X121966633Y-85942934D02*
X121862567Y-86047000D01*
X93293934Y-70333216D02*
X94534206Y-71573488D01*
X125362553Y-76148165D02*
X125321512Y-76189206D01*
X93250000Y-70030000D02*
X93250000Y-70227150D01*
X122072699Y-85899000D02*
G75*
G03*
X121966633Y-85942934I1J-150000D01*
G01*
X123574611Y-85899007D02*
G75*
G03*
X123928163Y-85752553I-11J500007D01*
G01*
X94534210Y-71573484D02*
G75*
G03*
X94781693Y-71676000I247490J247484D01*
G01*
X125509007Y-72580389D02*
G75*
G03*
X125362553Y-72226837I-500007J-11D01*
G01*
X125321516Y-76189210D02*
G75*
G03*
X125219000Y-76436693I247484J-247490D01*
G01*
X124658159Y-71522453D02*
G75*
G03*
X124304611Y-71376000I-353559J-353547D01*
G01*
X125072547Y-82638159D02*
G75*
G03*
X125219000Y-82284611I-353547J353559D01*
G01*
X105870389Y-71375993D02*
G75*
G03*
X105516837Y-71522447I11J-500007D01*
G01*
X124622547Y-85058159D02*
G75*
G03*
X124769000Y-84704611I-353547J353559D01*
G01*
X93250036Y-70227150D02*
G75*
G03*
X93293934Y-70333216I149964J-50D01*
G01*
X105218307Y-71676005D02*
G75*
G03*
X105465795Y-71573487I-7J350005D01*
G01*
X125362547Y-76148159D02*
G75*
G03*
X125509000Y-75794611I-353547J353559D01*
G01*
X124871516Y-82839210D02*
G75*
G03*
X124769000Y-83086693I247484J-247490D01*
G01*
%TO.N,PCIE0_RX0_P*%
X124368487Y-84890795D02*
X123760794Y-85498488D01*
X124490795Y-71776513D02*
X125108488Y-72394206D01*
X124471000Y-83025389D02*
X124471000Y-83099000D01*
X125108487Y-75980795D02*
X125067446Y-76021836D01*
X93981037Y-71441755D02*
X94016392Y-71477110D01*
X105931693Y-71674000D02*
X124243307Y-71674000D01*
X124471000Y-83799000D02*
X124471000Y-84643307D01*
X94016392Y-71477110D02*
X94366836Y-71827554D01*
X93013216Y-70473934D02*
X93344641Y-70805359D01*
X124258509Y-83624000D02*
X124296000Y-83624000D01*
X124818487Y-82470795D02*
X124617446Y-82671836D01*
X125211000Y-72641693D02*
X125211000Y-75733307D01*
X123513307Y-85601000D02*
X122072699Y-85601000D01*
X94720389Y-71974000D02*
X105279611Y-71974000D01*
X92800000Y-70430000D02*
X92907150Y-70430000D01*
X93344640Y-71123558D02*
X93344641Y-71123557D01*
X124296000Y-83274000D02*
X124258509Y-83274000D01*
X105633165Y-71827553D02*
X105684206Y-71776512D01*
X93662840Y-71441754D02*
X93662839Y-71441755D01*
X121966633Y-85557066D02*
X121862567Y-85453000D01*
X124921000Y-76375389D02*
X124921000Y-82223307D01*
X124471000Y-83799000D02*
G75*
G03*
X124296000Y-83624000I-175000J0D01*
G01*
X93981036Y-71441756D02*
G75*
G03*
X93662840Y-71441756I-159098J-159098D01*
G01*
X124368483Y-84890791D02*
G75*
G03*
X124471000Y-84643307I-247483J247491D01*
G01*
X123513307Y-85601005D02*
G75*
G03*
X123760794Y-85498488I-7J350005D01*
G01*
X93344685Y-71123601D02*
G75*
G03*
X93344641Y-71441755I159015J-159099D01*
G01*
X94366842Y-71827548D02*
G75*
G03*
X94720389Y-71974000I353558J353548D01*
G01*
X121966633Y-85557066D02*
G75*
G03*
X122072699Y-85601000I106067J106066D01*
G01*
X124258509Y-83274009D02*
G75*
G03*
X124083509Y-83449000I-9J-174991D01*
G01*
X93344682Y-71123600D02*
G75*
G03*
X93344641Y-70805359I-159182J159100D01*
G01*
X124617452Y-82671842D02*
G75*
G03*
X124471000Y-83025389I353548J-353558D01*
G01*
X124490791Y-71776517D02*
G75*
G03*
X124243307Y-71674000I-247491J-247483D01*
G01*
X105279611Y-71974007D02*
G75*
G03*
X105633164Y-71827552I-11J500007D01*
G01*
X124296000Y-83274000D02*
G75*
G03*
X124471000Y-83099000I0J175000D01*
G01*
X124083500Y-83449000D02*
G75*
G03*
X124258509Y-83624000I175000J0D01*
G01*
X93344601Y-71441795D02*
G75*
G03*
X93662840Y-71441754I159099J159095D01*
G01*
X125108483Y-75980791D02*
G75*
G03*
X125211000Y-75733307I-247483J247491D01*
G01*
X93013241Y-70473909D02*
G75*
G03*
X92907150Y-70430000I-106041J-106091D01*
G01*
X124818483Y-82470791D02*
G75*
G03*
X124921000Y-82223307I-247483J247491D01*
G01*
X105931693Y-71673995D02*
G75*
G03*
X105684206Y-71776512I7J-350005D01*
G01*
X125211005Y-72641693D02*
G75*
G03*
X125108488Y-72394206I-350005J-7D01*
G01*
X125067452Y-76021842D02*
G75*
G03*
X124921000Y-76375389I353548J-353558D01*
G01*
%TO.N,PCIE0_RX1_N*%
X111784611Y-79491000D02*
X109196693Y-79491000D01*
X94989205Y-77468487D02*
X94718164Y-77197446D01*
X102743307Y-77571000D02*
X95236693Y-77571000D01*
X121680000Y-89047000D02*
X121784066Y-88942934D01*
X112972553Y-80471835D02*
X112138164Y-79637446D01*
X113119000Y-83188307D02*
X113119000Y-80825389D01*
X103411835Y-77047447D02*
X102990794Y-77468488D01*
X120576150Y-88171000D02*
X118101693Y-88171000D01*
X122531132Y-87790414D02*
X122299586Y-87558868D01*
X105990271Y-77104553D02*
X105933164Y-77047446D01*
X121890132Y-88899000D02*
X122067454Y-88899000D01*
X108599000Y-78893307D02*
X108599000Y-78020389D01*
X122619000Y-88347454D02*
X122619000Y-88002546D01*
X122279586Y-88811132D02*
X122531132Y-88559586D01*
X120970414Y-87838868D02*
X120682216Y-88127066D01*
X92748000Y-77051000D02*
X92600000Y-76903000D01*
X108949205Y-79388487D02*
X108701512Y-79140794D01*
X108452553Y-77666835D02*
X108183164Y-77397446D01*
X121426150Y-87751000D02*
X121182546Y-87751000D01*
X117854205Y-88068487D02*
X113221512Y-83435794D01*
X122087454Y-87471000D02*
X121892546Y-87471000D01*
X94364611Y-77051000D02*
X92748000Y-77051000D01*
X107829611Y-77251000D02*
X106343825Y-77251000D01*
X105579611Y-76901000D02*
X103765389Y-76901000D01*
X121680414Y-87558868D02*
X121532216Y-87707066D01*
X121182546Y-87751033D02*
G75*
G03*
X120970414Y-87838868I-46J-299967D01*
G01*
X113119007Y-80825389D02*
G75*
G03*
X112972552Y-80471836I-500007J-11D01*
G01*
X112138158Y-79637452D02*
G75*
G03*
X111784611Y-79491000I-353558J-353548D01*
G01*
X102743307Y-77571005D02*
G75*
G03*
X102990794Y-77468488I-7J350005D01*
G01*
X103765389Y-76900993D02*
G75*
G03*
X103411836Y-77047448I11J-500007D01*
G01*
X105933158Y-77047452D02*
G75*
G03*
X105579611Y-76901000I-353558J-353548D01*
G01*
X122531155Y-88559609D02*
G75*
G03*
X122619000Y-88347454I-212155J212109D01*
G01*
X113118995Y-83188307D02*
G75*
G03*
X113221512Y-83435794I350005J7D01*
G01*
X121892546Y-87471033D02*
G75*
G03*
X121680414Y-87558868I-46J-299967D01*
G01*
X108949209Y-79388483D02*
G75*
G03*
X109196693Y-79491000I247491J247483D01*
G01*
X94989209Y-77468483D02*
G75*
G03*
X95236693Y-77571000I247491J247483D01*
G01*
X108598995Y-78893307D02*
G75*
G03*
X108701512Y-79140794I350005J7D01*
G01*
X117854209Y-88068483D02*
G75*
G03*
X118101693Y-88171000I247491J247483D01*
G01*
X120576150Y-88170964D02*
G75*
G03*
X120682216Y-88127066I50J149964D01*
G01*
X121426150Y-87750964D02*
G75*
G03*
X121532216Y-87707066I50J149964D01*
G01*
X122067454Y-88898967D02*
G75*
G03*
X122279586Y-88811132I46J299967D01*
G01*
X108183158Y-77397452D02*
G75*
G03*
X107829611Y-77251000I-353558J-353548D01*
G01*
X105990259Y-77104565D02*
G75*
G03*
X106343825Y-77251000I353541J353565D01*
G01*
X122618967Y-88002546D02*
G75*
G03*
X122531132Y-87790414I-299967J46D01*
G01*
X121890132Y-88899023D02*
G75*
G03*
X121784066Y-88942934I-32J-149977D01*
G01*
X108599007Y-78020389D02*
G75*
G03*
X108452552Y-77666836I-500007J-11D01*
G01*
X122299609Y-87558845D02*
G75*
G03*
X122087454Y-87471000I-212109J-212155D01*
G01*
X94718158Y-77197452D02*
G75*
G03*
X94364611Y-77051000I-353558J-353548D01*
G01*
%TO.N,PCIE0_RX1_P*%
X117686835Y-88322553D02*
X112967446Y-83603164D01*
X108301000Y-78954611D02*
X108301000Y-78081693D01*
X121847784Y-87812934D02*
X121699586Y-87961132D01*
X102804611Y-77869000D02*
X95175389Y-77869000D01*
X122321000Y-88286150D02*
X122321000Y-88063850D01*
X119674036Y-88643964D02*
X119674036Y-88643965D01*
X103579205Y-77301513D02*
X103158164Y-77722554D01*
X108198487Y-77834205D02*
X108015794Y-77651512D01*
X122112216Y-88557066D02*
X122277066Y-88392216D01*
X105518307Y-77199000D02*
X103826693Y-77199000D01*
X107768307Y-77549000D02*
X106220389Y-77549000D01*
X111723307Y-79789000D02*
X109135389Y-79789000D01*
X112821000Y-83249611D02*
X112821000Y-80886693D01*
X119324036Y-88643965D02*
X119324036Y-88643964D01*
X108781835Y-79642553D02*
X108447446Y-79308164D01*
X122026150Y-87769000D02*
X121953850Y-87769000D01*
X121487454Y-88049000D02*
X121243850Y-88049000D01*
X105866835Y-77402553D02*
X105765794Y-77301512D01*
X112718487Y-80639205D02*
X111970794Y-79891512D01*
X94821835Y-77722553D02*
X94550794Y-77451512D01*
X119149072Y-88469000D02*
X119149000Y-88469000D01*
X121680000Y-88453000D02*
X121784066Y-88557066D01*
X120637454Y-88469000D02*
X119849000Y-88469000D01*
X121137784Y-88092934D02*
X120849586Y-88381132D01*
X92748000Y-77349000D02*
X92600000Y-77497000D01*
X119499072Y-88818929D02*
X119499000Y-88818929D01*
X94303307Y-77349000D02*
X92748000Y-77349000D01*
X121890132Y-88601000D02*
X122006150Y-88601000D01*
X122277066Y-87957784D02*
X122132216Y-87812934D01*
X119149000Y-88469000D02*
X118040389Y-88469000D01*
X103826693Y-77198995D02*
G75*
G03*
X103579205Y-77301513I7J-350005D01*
G01*
X122132241Y-87812909D02*
G75*
G03*
X122026150Y-87769000I-106041J-106091D01*
G01*
X108301005Y-78081693D02*
G75*
G03*
X108198487Y-77834205I-350005J-7D01*
G01*
X121487454Y-88048967D02*
G75*
G03*
X121699586Y-87961132I46J299967D01*
G01*
X119324071Y-88643965D02*
G75*
G03*
X119499000Y-88818929I174929J-35D01*
G01*
X121243850Y-88049036D02*
G75*
G03*
X121137784Y-88092934I-50J-149964D01*
G01*
X112821005Y-80886693D02*
G75*
G03*
X112718487Y-80639205I-350005J-7D01*
G01*
X111970790Y-79891516D02*
G75*
G03*
X111723307Y-79789000I-247490J-247484D01*
G01*
X94821841Y-77722547D02*
G75*
G03*
X95175389Y-77869000I353559J353547D01*
G01*
X121953850Y-87769036D02*
G75*
G03*
X121847784Y-87812934I-50J-149964D01*
G01*
X119499072Y-88818936D02*
G75*
G03*
X119674036Y-88643965I28J174936D01*
G01*
X112820993Y-83249611D02*
G75*
G03*
X112967447Y-83603163I500007J11D01*
G01*
X102804611Y-77869007D02*
G75*
G03*
X103158163Y-77722553I-11J500007D01*
G01*
X121784050Y-88557082D02*
G75*
G03*
X121890132Y-88601000I106050J106082D01*
G01*
X108300993Y-78954611D02*
G75*
G03*
X108447447Y-79308163I500007J11D01*
G01*
X119849000Y-88469036D02*
G75*
G03*
X119674036Y-88643964I0J-174964D01*
G01*
X117686841Y-88322547D02*
G75*
G03*
X118040389Y-88469000I353559J353547D01*
G01*
X122320964Y-88063850D02*
G75*
G03*
X122277066Y-87957784I-149964J50D01*
G01*
X108781841Y-79642547D02*
G75*
G03*
X109135389Y-79789000I353559J353547D01*
G01*
X94550790Y-77451516D02*
G75*
G03*
X94303307Y-77349000I-247490J-247484D01*
G01*
X105866841Y-77402547D02*
G75*
G03*
X106220389Y-77549000I353559J353547D01*
G01*
X122006150Y-88600964D02*
G75*
G03*
X122112216Y-88557066I50J149964D01*
G01*
X120637454Y-88468967D02*
G75*
G03*
X120849586Y-88381132I46J299967D01*
G01*
X122277091Y-88392241D02*
G75*
G03*
X122321000Y-88286150I-106091J106041D01*
G01*
X108015790Y-77651516D02*
G75*
G03*
X107768307Y-77549000I-247490J-247484D01*
G01*
X119324100Y-88643964D02*
G75*
G03*
X119149072Y-88469000I-175000J-36D01*
G01*
X105765790Y-77301516D02*
G75*
G03*
X105518307Y-77199000I-247490J-247484D01*
G01*
%TO.N,PCIE0_RX2_N*%
X89251000Y-73629000D02*
X89230788Y-73629000D01*
X88651000Y-77854611D02*
X88651000Y-77045389D01*
X89971835Y-79382553D02*
X88797446Y-78208164D01*
X106263307Y-79529000D02*
X90325389Y-79529000D01*
X89451000Y-73029000D02*
X89451000Y-72370000D01*
X89451000Y-72370000D02*
X89306000Y-72225000D01*
X118631835Y-91752553D02*
X106510794Y-79631512D01*
X121200000Y-92037500D02*
X121105434Y-91942934D01*
X120999368Y-91899000D02*
X118985389Y-91899000D01*
X89230788Y-73229000D02*
X89251000Y-73229000D01*
X88797447Y-76691835D02*
X89348488Y-76140794D01*
X89451000Y-75893307D02*
X89451000Y-73829000D01*
X118631841Y-91752547D02*
G75*
G03*
X118985389Y-91899000I353559J353547D01*
G01*
X88650993Y-77854611D02*
G75*
G03*
X88797447Y-78208163I500007J11D01*
G01*
X89451000Y-73829000D02*
G75*
G03*
X89251000Y-73629000I-200000J0D01*
G01*
X121105450Y-91942918D02*
G75*
G03*
X120999368Y-91899000I-106050J-106082D01*
G01*
X89348484Y-76140790D02*
G75*
G03*
X89451000Y-75893307I-247484J247490D01*
G01*
X88797453Y-76691841D02*
G75*
G03*
X88651000Y-77045389I353547J-353559D01*
G01*
X89251000Y-73229000D02*
G75*
G03*
X89451000Y-73029000I0J200000D01*
G01*
X89030800Y-73429000D02*
G75*
G03*
X89230788Y-73629000I200000J0D01*
G01*
X89230788Y-73228988D02*
G75*
G03*
X89030788Y-73429000I12J-200012D01*
G01*
X89971841Y-79382547D02*
G75*
G03*
X90325389Y-79529000I353559J353547D01*
G01*
X106510790Y-79631516D02*
G75*
G03*
X106263307Y-79529000I-247490J-247484D01*
G01*
%TO.N,PCIE0_RX2_P*%
X89051513Y-78040795D02*
X90139206Y-79128488D01*
X119046693Y-91601000D02*
X120999368Y-91601000D01*
X88949000Y-77106693D02*
X88949000Y-77793307D01*
X89749000Y-72325000D02*
X89749000Y-75954611D01*
X89894000Y-72180000D02*
X89749000Y-72325000D01*
X90386693Y-79231000D02*
X106324611Y-79231000D01*
X121105434Y-91557066D02*
X121200000Y-91462500D01*
X89602553Y-76308165D02*
X89051512Y-76859206D01*
X106678165Y-79377447D02*
X118799206Y-91498488D01*
X90139210Y-79128484D02*
G75*
G03*
X90386693Y-79231000I247490J247484D01*
G01*
X89602547Y-76308159D02*
G75*
G03*
X89749000Y-75954611I-353547J353559D01*
G01*
X120999368Y-91600977D02*
G75*
G03*
X121105434Y-91557066I32J149977D01*
G01*
X106678159Y-79377453D02*
G75*
G03*
X106324611Y-79231000I-353559J-353547D01*
G01*
X118799210Y-91498484D02*
G75*
G03*
X119046693Y-91601000I247490J247484D01*
G01*
X88948995Y-77793307D02*
G75*
G03*
X89051513Y-78040795I350005J7D01*
G01*
X89051516Y-76859210D02*
G75*
G03*
X88949000Y-77106693I247484J-247490D01*
G01*
%TO.N,PCIE0_RX3_N*%
X82195389Y-75751000D02*
X83687454Y-75751000D01*
X105693307Y-80799000D02*
X82395389Y-80799000D01*
X120936868Y-94899000D02*
X118895389Y-94899000D01*
X118541835Y-94752553D02*
X117647446Y-93858164D01*
X82041835Y-80652553D02*
X81147446Y-79758164D01*
X121200000Y-95100000D02*
X121042934Y-94942934D01*
X83899586Y-75838868D02*
X84017784Y-75957066D01*
X84632216Y-75957066D02*
X84807066Y-75782216D01*
X117501000Y-93504611D02*
X117501000Y-92606693D01*
X84548000Y-75149000D02*
X84400000Y-75297000D01*
X84851000Y-75676150D02*
X84851000Y-75423850D01*
X81147447Y-76591835D02*
X81841836Y-75897446D01*
X84807066Y-75317784D02*
X84682216Y-75192934D01*
X81001000Y-79404611D02*
X81001000Y-76945389D01*
X84576150Y-75149000D02*
X84548000Y-75149000D01*
X84123850Y-76001000D02*
X84526150Y-76001000D01*
X117398487Y-92359205D02*
X105940794Y-80901512D01*
X82195389Y-75750993D02*
G75*
G03*
X81841837Y-75897447I11J-500007D01*
G01*
X83899609Y-75838845D02*
G75*
G03*
X83687454Y-75751000I-212109J-212155D01*
G01*
X84850964Y-75423850D02*
G75*
G03*
X84807066Y-75317784I-149964J50D01*
G01*
X84526150Y-76000964D02*
G75*
G03*
X84632216Y-75957066I50J149964D01*
G01*
X118541841Y-94752547D02*
G75*
G03*
X118895389Y-94899000I353559J353547D01*
G01*
X84682241Y-75192909D02*
G75*
G03*
X84576150Y-75149000I-106041J-106091D01*
G01*
X81147453Y-76591841D02*
G75*
G03*
X81001000Y-76945389I353547J-353559D01*
G01*
X117500993Y-93504611D02*
G75*
G03*
X117647447Y-93858163I500007J11D01*
G01*
X105940790Y-80901516D02*
G75*
G03*
X105693307Y-80799000I-247490J-247484D01*
G01*
X82041841Y-80652547D02*
G75*
G03*
X82395389Y-80799000I353559J353547D01*
G01*
X81000993Y-79404611D02*
G75*
G03*
X81147447Y-79758163I500007J11D01*
G01*
X84807091Y-75782241D02*
G75*
G03*
X84851000Y-75676150I-106091J106041D01*
G01*
X84017759Y-75957091D02*
G75*
G03*
X84123850Y-76001000I106041J106091D01*
G01*
X117501005Y-92606693D02*
G75*
G03*
X117398487Y-92359205I-350005J-7D01*
G01*
X121042950Y-94942918D02*
G75*
G03*
X120936868Y-94899000I-106050J-106082D01*
G01*
%TO.N,PCIE0_RX3_P*%
X121042934Y-94557066D02*
X121200000Y-94400000D01*
X117799000Y-92545389D02*
X117799000Y-93443307D01*
X117901513Y-93690795D02*
X118709206Y-94498488D01*
X83626150Y-76049000D02*
X82256693Y-76049000D01*
X84587454Y-76299000D02*
X84062546Y-76299000D01*
X81299000Y-79343307D02*
X81299000Y-78591000D01*
X84849586Y-74938868D02*
X85061132Y-75150414D01*
X81499000Y-77991000D02*
X81518382Y-77991000D01*
X82009205Y-76151513D02*
X81401512Y-76759206D01*
X85149000Y-75362546D02*
X85149000Y-75737454D01*
X85061132Y-75949586D02*
X84799586Y-76211132D01*
X83850414Y-76211132D02*
X83732216Y-76092934D01*
X81518382Y-78391000D02*
X81499000Y-78391000D01*
X81299000Y-77006693D02*
X81299000Y-77791000D01*
X106108165Y-80647447D02*
X117652554Y-92191836D01*
X82456693Y-80501000D02*
X105754611Y-80501000D01*
X118956693Y-94601000D02*
X120936868Y-94601000D01*
X84400000Y-74703000D02*
X84504066Y-74807066D01*
X81401513Y-79590795D02*
X82209206Y-80398488D01*
X84610132Y-74851000D02*
X84637454Y-74851000D01*
X118709210Y-94498484D02*
G75*
G03*
X118956693Y-94601000I247490J247484D01*
G01*
X81718400Y-78191000D02*
G75*
G03*
X81518382Y-77991000I-200000J0D01*
G01*
X81401516Y-76759210D02*
G75*
G03*
X81299000Y-77006693I247484J-247490D01*
G01*
X85148967Y-75362546D02*
G75*
G03*
X85061132Y-75150414I-299967J46D01*
G01*
X84504050Y-74807082D02*
G75*
G03*
X84610132Y-74851000I106050J106082D01*
G01*
X85061155Y-75949609D02*
G75*
G03*
X85149000Y-75737454I-212155J212109D01*
G01*
X82256693Y-76048995D02*
G75*
G03*
X82009205Y-76151513I7J-350005D01*
G01*
X83732241Y-76092909D02*
G75*
G03*
X83626150Y-76049000I-106041J-106091D01*
G01*
X84587454Y-76298967D02*
G75*
G03*
X84799586Y-76211132I46J299967D01*
G01*
X117798995Y-93443307D02*
G75*
G03*
X117901513Y-93690795I350005J7D01*
G01*
X106108159Y-80647453D02*
G75*
G03*
X105754611Y-80501000I-353559J-353547D01*
G01*
X117799007Y-92545389D02*
G75*
G03*
X117652553Y-92191837I-500007J-11D01*
G01*
X81499000Y-78391000D02*
G75*
G03*
X81299000Y-78591000I0J-200000D01*
G01*
X83850391Y-76211155D02*
G75*
G03*
X84062546Y-76299000I212109J212155D01*
G01*
X81298995Y-79343307D02*
G75*
G03*
X81401513Y-79590795I350005J7D01*
G01*
X81299000Y-77791000D02*
G75*
G03*
X81499000Y-77991000I200000J0D01*
G01*
X84849609Y-74938845D02*
G75*
G03*
X84637454Y-74851000I-212109J-212155D01*
G01*
X81518382Y-78390982D02*
G75*
G03*
X81718382Y-78191000I18J199982D01*
G01*
X120936868Y-94600977D02*
G75*
G03*
X121042934Y-94557066I32J149977D01*
G01*
X82209210Y-80398484D02*
G75*
G03*
X82456693Y-80501000I247490J247484D01*
G01*
%TO.N,PCIE0_CLK_N*%
X122642553Y-73011835D02*
X122428164Y-72797446D01*
X84743307Y-77951000D02*
X84356693Y-77951000D01*
X84109205Y-77848487D02*
X83763945Y-77503227D01*
X93359205Y-72848487D02*
X90608164Y-70097446D01*
X121960132Y-82899000D02*
X122654611Y-82899000D01*
X122789000Y-77603307D02*
X122789000Y-73365389D01*
X103094611Y-72951000D02*
X93606693Y-72951000D01*
X86198487Y-76640795D02*
X84990794Y-77848488D01*
X86301000Y-71745389D02*
X86301000Y-76393307D01*
X103939205Y-73588487D02*
X103448164Y-73097446D01*
X122074611Y-72651000D02*
X106470389Y-72651000D01*
X123652553Y-78611835D02*
X122891512Y-77850794D01*
X106116835Y-72797447D02*
X105325794Y-73588488D01*
X86498487Y-71340795D02*
X86447446Y-71391836D01*
X123799000Y-81754611D02*
X123799000Y-78965389D01*
X86991835Y-70097447D02*
X86747446Y-70341836D01*
X83720011Y-77397161D02*
X83720011Y-77249989D01*
X121750000Y-83047000D02*
X121854066Y-82942934D01*
X105078307Y-73691000D02*
X104186693Y-73691000D01*
X86601000Y-70695389D02*
X86601000Y-71093307D01*
X123008165Y-82752553D02*
X123652554Y-82108164D01*
X90254611Y-69951000D02*
X87345389Y-69951000D01*
X122654611Y-82899007D02*
G75*
G03*
X123008164Y-82752552I-11J500007D01*
G01*
X86498483Y-71340791D02*
G75*
G03*
X86601000Y-71093307I-247483J247491D01*
G01*
X122428158Y-72797452D02*
G75*
G03*
X122074611Y-72651000I-353558J-353548D01*
G01*
X86747452Y-70341842D02*
G75*
G03*
X86601000Y-70695389I353548J-353558D01*
G01*
X90608158Y-70097452D02*
G75*
G03*
X90254611Y-69951000I-353558J-353548D01*
G01*
X84109209Y-77848483D02*
G75*
G03*
X84356693Y-77951000I247491J247483D01*
G01*
X103448158Y-73097452D02*
G75*
G03*
X103094611Y-72951000I-353558J-353548D01*
G01*
X123652548Y-82108158D02*
G75*
G03*
X123799000Y-81754611I-353548J353558D01*
G01*
X86198483Y-76640791D02*
G75*
G03*
X86301000Y-76393307I-247483J247491D01*
G01*
X105078307Y-73691005D02*
G75*
G03*
X105325794Y-73588488I-7J350005D01*
G01*
X121960132Y-82899023D02*
G75*
G03*
X121854066Y-82942934I-32J-149977D01*
G01*
X123799007Y-78965389D02*
G75*
G03*
X123652552Y-78611836I-500007J-11D01*
G01*
X84743307Y-77951005D02*
G75*
G03*
X84990794Y-77848488I-7J350005D01*
G01*
X93359209Y-72848483D02*
G75*
G03*
X93606693Y-72951000I247491J247483D01*
G01*
X86447452Y-71391842D02*
G75*
G03*
X86301000Y-71745389I353548J-353558D01*
G01*
X87345389Y-69950993D02*
G75*
G03*
X86991836Y-70097448I11J-500007D01*
G01*
X106470389Y-72650993D02*
G75*
G03*
X106116836Y-72797448I11J-500007D01*
G01*
X103939209Y-73588483D02*
G75*
G03*
X104186693Y-73691000I247491J247483D01*
G01*
X83720036Y-77397161D02*
G75*
G03*
X83763945Y-77503227I149964J-39D01*
G01*
X122788995Y-77603307D02*
G75*
G03*
X122891512Y-77850794I350005J7D01*
G01*
X122789007Y-73365389D02*
G75*
G03*
X122642552Y-73011836I-500007J-11D01*
G01*
%TO.N,USBSS0_RX_N*%
X83751000Y-96852000D02*
X83751000Y-93361718D01*
X74501000Y-84111718D02*
X73151000Y-82761718D01*
X73651000Y-80688282D02*
X73651000Y-75838282D01*
X83560718Y-70150000D02*
X83720000Y-70150000D01*
X74501000Y-85711718D02*
X74501000Y-84111718D01*
X79148282Y-69641000D02*
X83051718Y-69641000D01*
X73151000Y-82761718D02*
X73151000Y-81188282D01*
X77851000Y-70938282D02*
X79148282Y-69641000D01*
X77851000Y-71638282D02*
X77851000Y-70938282D01*
X73151000Y-81188282D02*
X73651000Y-80688282D01*
X78838282Y-90049000D02*
X74501000Y-85711718D01*
X83603000Y-97000000D02*
X83751000Y-96852000D01*
X83751000Y-93361718D02*
X80438282Y-90049000D01*
X80438282Y-90049000D02*
X78838282Y-90049000D01*
X83051718Y-69641000D02*
X83560718Y-70150000D01*
X73651000Y-75838282D02*
X77851000Y-71638282D01*
%TO.N,PCIE0_CLK_P*%
X84295389Y-78249000D02*
X85011718Y-78249000D01*
X123398487Y-81940795D02*
X122840794Y-82498488D01*
X122593307Y-82601000D02*
X121960132Y-82601000D01*
X86899000Y-71154611D02*
X86899000Y-70756693D01*
X86226728Y-77033986D02*
X86226729Y-77033986D01*
X86240162Y-77613106D02*
X86240162Y-77613105D01*
X86240162Y-77330261D02*
X86240162Y-77330262D01*
X122260795Y-73051513D02*
X122388488Y-73179206D01*
X122637447Y-78018165D02*
X123398488Y-78779206D01*
X85674476Y-77895948D02*
X85661043Y-77882515D01*
X83299989Y-77670011D02*
X83447161Y-77670011D01*
X86599000Y-76454610D02*
X86599000Y-71806693D01*
X85661043Y-77599672D02*
X85661045Y-77599673D01*
X121854066Y-82557066D02*
X121750000Y-82453000D01*
X103280795Y-73351513D02*
X103771836Y-73842554D01*
X85943887Y-77599673D02*
X85957319Y-77613105D01*
X87406693Y-70249000D02*
X90193307Y-70249000D01*
X86226729Y-77033986D02*
X86452552Y-76808165D01*
X85674476Y-78178792D02*
X85674476Y-78178791D01*
X104125389Y-73989000D02*
X105139611Y-73989000D01*
X86240162Y-77330262D02*
X86226729Y-77316829D01*
X122491000Y-73426693D02*
X122491000Y-77664611D01*
X123501000Y-79026693D02*
X123501000Y-81693307D01*
X86701513Y-71559205D02*
X86752554Y-71508164D01*
X85661042Y-77599672D02*
X85661043Y-77599672D01*
X85378201Y-78165359D02*
X85391633Y-78178791D01*
X85011718Y-78249000D02*
X85095359Y-78165359D01*
X93545389Y-73249000D02*
X103033307Y-73249000D01*
X106531693Y-72949000D02*
X122013307Y-72949000D01*
X83553227Y-77713945D02*
X83941836Y-78102554D01*
X105493165Y-73842553D02*
X106284206Y-73051512D01*
X90440795Y-70351513D02*
X93191836Y-73102554D01*
X85674476Y-77895947D02*
X85674476Y-77895948D01*
X87001513Y-70509205D02*
X87159206Y-70351512D01*
X85943886Y-77599674D02*
G75*
G03*
X85661046Y-77599674I-141420J-141422D01*
G01*
X86701517Y-71559209D02*
G75*
G03*
X86599000Y-71806693I247483J-247491D01*
G01*
X85378200Y-78165360D02*
G75*
G03*
X85095360Y-78165360I-141420J-141422D01*
G01*
X86240179Y-77613122D02*
G75*
G03*
X86240162Y-77330261I-141479J141422D01*
G01*
X86752548Y-71508158D02*
G75*
G03*
X86899000Y-71154611I-353548J353558D01*
G01*
X90440791Y-70351517D02*
G75*
G03*
X90193307Y-70249000I-247491J-247483D01*
G01*
X85661050Y-77599680D02*
G75*
G03*
X85661044Y-77882514I141450J-141420D01*
G01*
X106531693Y-72948995D02*
G75*
G03*
X106284206Y-73051512I7J-350005D01*
G01*
X122490993Y-77664611D02*
G75*
G03*
X122637448Y-78018164I500007J11D01*
G01*
X85957279Y-77613145D02*
G75*
G03*
X86240161Y-77613105I141421J141445D01*
G01*
X103771842Y-73842548D02*
G75*
G03*
X104125389Y-73989000I353558J353548D01*
G01*
X87001517Y-70509209D02*
G75*
G03*
X86899000Y-70756693I247483J-247491D01*
G01*
X85391678Y-78178746D02*
G75*
G03*
X85674476Y-78178792I141422J141346D01*
G01*
X105139611Y-73989007D02*
G75*
G03*
X105493164Y-73842552I-11J500007D01*
G01*
X83553244Y-77713928D02*
G75*
G03*
X83447161Y-77670011I-106044J-106072D01*
G01*
X122260791Y-73051517D02*
G75*
G03*
X122013307Y-72949000I-247491J-247483D01*
G01*
X85674507Y-78178822D02*
G75*
G03*
X85674476Y-77895947I-141407J141422D01*
G01*
X86452547Y-76808160D02*
G75*
G03*
X86599000Y-76454610I-353547J353560D01*
G01*
X93191842Y-73102548D02*
G75*
G03*
X93545389Y-73249000I353558J353548D01*
G01*
X87406693Y-70248995D02*
G75*
G03*
X87159206Y-70351512I7J-350005D01*
G01*
X83941842Y-78102548D02*
G75*
G03*
X84295389Y-78249000I353558J353548D01*
G01*
X103280791Y-73351517D02*
G75*
G03*
X103033307Y-73249000I-247491J-247483D01*
G01*
X121854050Y-82557082D02*
G75*
G03*
X121960132Y-82601000I106050J106082D01*
G01*
X123398483Y-81940791D02*
G75*
G03*
X123501000Y-81693307I-247483J247491D01*
G01*
X122491005Y-73426693D02*
G75*
G03*
X122388488Y-73179206I-350005J-7D01*
G01*
X123501005Y-79026693D02*
G75*
G03*
X123398488Y-78779206I-350005J-7D01*
G01*
X122593307Y-82601005D02*
G75*
G03*
X122840794Y-82498488I-7J350005D01*
G01*
X86226721Y-77033979D02*
G75*
G03*
X86226729Y-77316829I141479J-141421D01*
G01*
%TO.N,USBSS0_RX_P*%
X78807873Y-70650335D02*
X78824321Y-70666783D01*
X84197000Y-97000000D02*
X84049000Y-96852000D01*
X78824321Y-70666783D02*
X78824321Y-70666784D01*
X73949000Y-80811718D02*
X73949000Y-75961718D01*
X74799000Y-85588282D02*
X74799000Y-83988282D01*
X83280000Y-70290718D02*
X83280000Y-70530000D01*
X79071807Y-70666784D02*
X79071807Y-70666783D01*
X80561718Y-89751000D02*
X78961718Y-89751000D01*
X79055359Y-70155359D02*
X79271718Y-69939000D01*
X78149000Y-71761718D02*
X78149000Y-71061718D01*
X74799000Y-83988282D02*
X73449000Y-82638282D01*
X82928282Y-69939000D02*
X83280000Y-70290718D01*
X84049000Y-93238282D02*
X80561718Y-89751000D01*
X78149000Y-71061718D02*
X78560386Y-70650336D01*
X78961718Y-89751000D02*
X74799000Y-85588282D01*
X73949000Y-75961718D02*
X78149000Y-71761718D01*
X73449000Y-81311718D02*
X73949000Y-80811718D01*
X84049000Y-96852000D02*
X84049000Y-93238282D01*
X79071808Y-70419296D02*
X79055359Y-70402847D01*
X79271718Y-69939000D02*
X82928282Y-69939000D01*
X73449000Y-82638282D02*
X73449000Y-81311718D01*
X78807843Y-70650365D02*
G75*
G03*
X78560386Y-70650336I-123743J-123735D01*
G01*
X79071768Y-70666743D02*
G75*
G03*
X79071808Y-70419296I-123668J123743D01*
G01*
X78824322Y-70666783D02*
G75*
G03*
X79071806Y-70666783I123742J123746D01*
G01*
X79055356Y-70155356D02*
G75*
G03*
X79055359Y-70402847I123744J-123744D01*
G01*
%TO.N,USBSS0_TX_N*%
X74801000Y-77888282D02*
X74801000Y-82611718D01*
X75288282Y-77401000D02*
X74801000Y-77888282D01*
X76250000Y-77253000D02*
X76102000Y-77401000D01*
X85551000Y-93361718D02*
X85551000Y-97543282D01*
X84144282Y-98950000D02*
X83925000Y-98950000D01*
X85551000Y-97543282D02*
X84144282Y-98950000D01*
X74801000Y-82611718D02*
X85551000Y-93361718D01*
X76102000Y-77401000D02*
X75288282Y-77401000D01*
%TO.N,PCIE1_RX0_N*%
X115801000Y-96204611D02*
X115801000Y-92756693D01*
X120508894Y-97901824D02*
X119908164Y-98502554D01*
X79171000Y-79424611D02*
X79171000Y-76695389D01*
X80452110Y-75145040D02*
X80452110Y-75002110D01*
X120757890Y-97857890D02*
X120614960Y-97857890D01*
X117891835Y-98502553D02*
X115947446Y-96558164D01*
X105143307Y-82099000D02*
X81845389Y-82099000D01*
X119554611Y-98649000D02*
X118245389Y-98649000D01*
X79317447Y-76341835D02*
X80408176Y-75251106D01*
X115698487Y-92509205D02*
X105390794Y-82201512D01*
X81491835Y-81952553D02*
X79317446Y-79778164D01*
X117891841Y-98502547D02*
G75*
G03*
X118245389Y-98649000I353559J353547D01*
G01*
X80408158Y-75251088D02*
G75*
G03*
X80452110Y-75145040I-106058J106088D01*
G01*
X120614960Y-97857865D02*
G75*
G03*
X120508894Y-97901824I40J-150035D01*
G01*
X119554611Y-98649007D02*
G75*
G03*
X119908163Y-98502553I-11J500007D01*
G01*
X81491841Y-81952547D02*
G75*
G03*
X81845389Y-82099000I353559J353547D01*
G01*
X105390790Y-82201516D02*
G75*
G03*
X105143307Y-82099000I-247490J-247484D01*
G01*
X79170993Y-79424611D02*
G75*
G03*
X79317447Y-79778163I500007J11D01*
G01*
X115800993Y-96204611D02*
G75*
G03*
X115947447Y-96558163I500007J11D01*
G01*
X115801005Y-92756693D02*
G75*
G03*
X115698487Y-92509205I-350005J-7D01*
G01*
X79317453Y-76341841D02*
G75*
G03*
X79171000Y-76695389I353547J-353559D01*
G01*
%TO.N,PCIE1_RX0_P*%
X79709280Y-77781279D02*
X79709279Y-77781279D01*
X116099000Y-92695389D02*
X116099000Y-96143307D01*
X79709279Y-77181279D02*
X79709280Y-77181279D01*
X116799268Y-96599640D02*
X116799267Y-96599641D01*
X80618894Y-75461824D02*
X79571513Y-76509205D01*
X118306693Y-98351000D02*
X119493307Y-98351000D01*
X79949559Y-77421558D02*
X79949559Y-77541000D01*
X80867890Y-75417890D02*
X80724960Y-75417890D01*
X79469000Y-79171558D02*
X79469000Y-79341000D01*
X116201513Y-96390795D02*
X116410359Y-96599641D01*
X120342110Y-97585040D02*
X120342110Y-97442110D01*
X117329597Y-96847127D02*
X117188176Y-96988549D01*
X79571513Y-79610795D02*
X79651527Y-79690809D01*
X81906693Y-81801000D02*
X105204611Y-81801000D01*
X105558165Y-81947447D02*
X115952554Y-92341836D01*
X79651527Y-79690809D02*
X81659206Y-81698488D01*
X117329596Y-96847128D02*
X117329597Y-96847127D01*
X79684279Y-78356279D02*
X79684280Y-78356279D01*
X79469000Y-78021558D02*
X79469000Y-78141000D01*
X117329598Y-96458221D02*
X117329597Y-96458219D01*
X116799267Y-96599641D02*
X116940689Y-96458220D01*
X117188175Y-97377457D02*
X118059206Y-98248488D01*
X79469000Y-79341000D02*
X79469000Y-79363307D01*
X79684280Y-78956279D02*
X79684279Y-78956279D01*
X79899559Y-78571558D02*
X79899559Y-78741000D01*
X119740795Y-98248487D02*
X120298176Y-97691106D01*
X117188177Y-97377458D02*
X117188175Y-97377457D01*
X79469000Y-76756693D02*
X79469000Y-76941000D01*
X79709279Y-77781300D02*
G75*
G03*
X79469000Y-78021558I21J-240300D01*
G01*
X79571517Y-76509209D02*
G75*
G03*
X79469000Y-76756693I247483J-247491D01*
G01*
X80724960Y-75417865D02*
G75*
G03*
X80618894Y-75461824I40J-150035D01*
G01*
X79899621Y-78571558D02*
G75*
G03*
X79684280Y-78356279I-215321J-42D01*
G01*
X79684280Y-78956259D02*
G75*
G03*
X79899559Y-78741000I20J215259D01*
G01*
X120298158Y-97691088D02*
G75*
G03*
X120342110Y-97585040I-106058J106088D01*
G01*
X118059210Y-98248484D02*
G75*
G03*
X118306693Y-98351000I247490J247484D01*
G01*
X79468995Y-79363307D02*
G75*
G03*
X79571513Y-79610795I350005J7D01*
G01*
X116410346Y-96599654D02*
G75*
G03*
X116799268Y-96599640I194454J194454D01*
G01*
X79684279Y-78956300D02*
G75*
G03*
X79469000Y-79171558I21J-215300D01*
G01*
X79949621Y-77421558D02*
G75*
G03*
X79709280Y-77181279I-240321J-42D01*
G01*
X116098995Y-96143307D02*
G75*
G03*
X116201513Y-96390795I350005J7D01*
G01*
X117329555Y-96458264D02*
G75*
G03*
X116940689Y-96458220I-194455J-194436D01*
G01*
X116099007Y-92695389D02*
G75*
G03*
X115952553Y-92341837I-500007J-11D01*
G01*
X117188173Y-96988546D02*
G75*
G03*
X117188177Y-97377458I194427J-194454D01*
G01*
X105558159Y-81947453D02*
G75*
G03*
X105204611Y-81801000I-353559J-353547D01*
G01*
X79469021Y-76941000D02*
G75*
G03*
X79709279Y-77181279I240279J0D01*
G01*
X79469021Y-78141000D02*
G75*
G03*
X79684279Y-78356279I215279J0D01*
G01*
X81659210Y-81698484D02*
G75*
G03*
X81906693Y-81801000I247490J247484D01*
G01*
X79709280Y-77781259D02*
G75*
G03*
X79949559Y-77541000I20J240259D01*
G01*
X117329622Y-96847154D02*
G75*
G03*
X117329596Y-96458220I-194522J194454D01*
G01*
X119493307Y-98351005D02*
G75*
G03*
X119740795Y-98248487I-7J350005D01*
G01*
%TO.N,PCIE1_CLK_N*%
X120604611Y-99999000D02*
X117695389Y-99999000D01*
X120958164Y-99852553D02*
X121380784Y-99429933D01*
X79795389Y-83499000D02*
X104343307Y-83499000D01*
X114198487Y-93209205D02*
X104590794Y-83601512D01*
X120604611Y-99999000D02*
X120604610Y-99999000D01*
X117341835Y-99852553D02*
X114447446Y-96958164D01*
X121380784Y-99429933D02*
X121590088Y-99429933D01*
X79441835Y-83352553D02*
X77397446Y-81308164D01*
X114301000Y-96604611D02*
X114301000Y-93456693D01*
X76485040Y-75807890D02*
X76342110Y-75807890D01*
X77251000Y-80954611D02*
X77251000Y-76656693D01*
X77148487Y-76409205D02*
X76591106Y-75851824D01*
X114301005Y-93456693D02*
G75*
G03*
X114198487Y-93209205I-350005J-7D01*
G01*
X117341841Y-99852547D02*
G75*
G03*
X117695389Y-99999000I353559J353547D01*
G01*
X120604610Y-99999007D02*
G75*
G03*
X120958164Y-99852553I-10J500007D01*
G01*
X77250993Y-80954611D02*
G75*
G03*
X77397447Y-81308163I500007J11D01*
G01*
X114300993Y-96604611D02*
G75*
G03*
X114447447Y-96958163I500007J11D01*
G01*
X77251005Y-76656693D02*
G75*
G03*
X77148487Y-76409205I-350005J-7D01*
G01*
X76591088Y-75851842D02*
G75*
G03*
X76485040Y-75807890I-106088J-106058D01*
G01*
X104590790Y-83601516D02*
G75*
G03*
X104343307Y-83499000I-247490J-247484D01*
G01*
X79441841Y-83352547D02*
G75*
G03*
X79795389Y-83499000I353559J353547D01*
G01*
%TO.N,PCIE1_CLK_P*%
X78471044Y-81677483D02*
X78493292Y-81655234D01*
X121170066Y-99009911D02*
X121170066Y-99219215D01*
X78471043Y-81960325D02*
X78471043Y-81960326D01*
X114452554Y-93041836D02*
X104758165Y-83347447D01*
X104404611Y-83201000D02*
X79918825Y-83201000D01*
X117509206Y-99598488D02*
X114701513Y-96790795D01*
X77549000Y-80831175D02*
X77549000Y-76595389D01*
X121170066Y-99219215D02*
X120834727Y-99554554D01*
X114599000Y-96543307D02*
X114599000Y-93395389D01*
X78493293Y-81372391D02*
X78493294Y-81372391D01*
X78210451Y-81372392D02*
X78188202Y-81394640D01*
X77905359Y-81394641D02*
X77695447Y-81184729D01*
X76757890Y-75535040D02*
X76757890Y-75392110D01*
X77402554Y-76241836D02*
X76801824Y-75641106D01*
X120481174Y-99701000D02*
X117756693Y-99701000D01*
X79565272Y-83054554D02*
X78471043Y-81960325D01*
X77905379Y-81394621D02*
G75*
G03*
X78188202Y-81394640I141421J141421D01*
G01*
X79565260Y-83054566D02*
G75*
G03*
X79918825Y-83201000I353540J353566D01*
G01*
X76757865Y-75535040D02*
G75*
G03*
X76801824Y-75641106I150035J40D01*
G01*
X78471039Y-81677478D02*
G75*
G03*
X78471043Y-81960326I141461J-141422D01*
G01*
X117509210Y-99598484D02*
G75*
G03*
X117756693Y-99701000I247490J247484D01*
G01*
X104758159Y-83347453D02*
G75*
G03*
X104404611Y-83201000I-353559J-353547D01*
G01*
X78493280Y-81655222D02*
G75*
G03*
X78493293Y-81372391I-141380J141422D01*
G01*
X77549007Y-76595389D02*
G75*
G03*
X77402553Y-76241837I-500007J-11D01*
G01*
X78493321Y-81372364D02*
G75*
G03*
X78210451Y-81372392I-141421J-141436D01*
G01*
X114598995Y-96543307D02*
G75*
G03*
X114701513Y-96790795I350005J7D01*
G01*
X114599007Y-93395389D02*
G75*
G03*
X114452553Y-93041837I-500007J-11D01*
G01*
X77549018Y-80831175D02*
G75*
G03*
X77695447Y-81184729I499982J-25D01*
G01*
X120481174Y-99700981D02*
G75*
G03*
X120834726Y-99554553I26J499981D01*
G01*
D14*
%TO.N,I2S0_SDOUT*%
X101775000Y-103075000D02*
X108000000Y-109300000D01*
X86300000Y-104200000D02*
X89150000Y-104200000D01*
X76410000Y-100010000D02*
X78810000Y-100010000D01*
X74220000Y-97820000D02*
X76410000Y-100010000D01*
X74220000Y-91620000D02*
X74220000Y-97820000D01*
X90275000Y-103075000D02*
X101775000Y-103075000D01*
X70200000Y-72750000D02*
X69680000Y-73270000D01*
X78810000Y-100010000D02*
X81570000Y-102770000D01*
X69680000Y-83780000D02*
X70000000Y-84100000D01*
X74160000Y-72750000D02*
X70200000Y-72750000D01*
X81570000Y-102770000D02*
X84870000Y-102770000D01*
X89150000Y-104200000D02*
X90275000Y-103075000D01*
X84870000Y-102770000D02*
X86300000Y-104200000D01*
X76100000Y-70810000D02*
X74160000Y-72750000D01*
X124683364Y-112050000D02*
X137358364Y-99375000D01*
X148290000Y-100610000D02*
X148290000Y-101010000D01*
X108700000Y-112050000D02*
X124683364Y-112050000D01*
X76100000Y-69800000D02*
X76100000Y-70810000D01*
X70000000Y-84100000D02*
X70000000Y-87400000D01*
X147055000Y-99375000D02*
X148290000Y-100610000D01*
X137358364Y-99375000D02*
X147055000Y-99375000D01*
X69680000Y-73270000D02*
X69680000Y-83780000D01*
X70000000Y-87400000D02*
X74220000Y-91620000D01*
X147925000Y-101375000D02*
X147775000Y-101375000D01*
X148290000Y-101010000D02*
X147925000Y-101375000D01*
X108000000Y-111350000D02*
X108700000Y-112050000D01*
X108000000Y-109300000D02*
X108000000Y-111350000D01*
%TO.N,I2S0_SDIN*%
X69380000Y-83880000D02*
X69712500Y-84212500D01*
X101650000Y-103350000D02*
X107700000Y-109400000D01*
X107700000Y-111450000D02*
X108600000Y-112350000D01*
X78660000Y-100260000D02*
X81480000Y-103080000D01*
X70090000Y-72450000D02*
X69380000Y-73160000D01*
X124770000Y-112350000D02*
X135620000Y-101500000D01*
X76260000Y-100260000D02*
X78660000Y-100260000D01*
X73920000Y-97920000D02*
X76260000Y-100260000D01*
X135620000Y-101500000D02*
X136310000Y-101500000D01*
X90353554Y-103350000D02*
X101650000Y-103350000D01*
X69380000Y-73160000D02*
X69380000Y-83880000D01*
X107700000Y-109400000D02*
X107700000Y-111450000D01*
X74050000Y-72450000D02*
X70090000Y-72450000D01*
X108600000Y-112350000D02*
X124770000Y-112350000D01*
X73920000Y-91720000D02*
X73920000Y-97920000D01*
X69712500Y-87512500D02*
X73920000Y-91720000D01*
X86150000Y-104450000D02*
X89253554Y-104450000D01*
X81480000Y-103080000D02*
X84780000Y-103080000D01*
X69712500Y-84212500D02*
X69712500Y-87512500D01*
X75600000Y-70900000D02*
X74050000Y-72450000D01*
X84780000Y-103080000D02*
X86150000Y-104450000D01*
X89253554Y-104450000D02*
X90353554Y-103350000D01*
X75600000Y-69450000D02*
X75600000Y-70900000D01*
%TO.N,I2S0_LRCK*%
X76080000Y-100520000D02*
X78566446Y-100520000D01*
X78566446Y-100520000D02*
X81446446Y-103400000D01*
X73630000Y-91830000D02*
X73630000Y-98070000D01*
X73630000Y-98070000D02*
X76080000Y-100520000D01*
X75100000Y-70960000D02*
X73900000Y-72160000D01*
X68887500Y-73242500D02*
X68887500Y-87087500D01*
X84676777Y-103400000D02*
X85976777Y-104700000D01*
X85976777Y-104700000D02*
X89357108Y-104700000D01*
X90457108Y-103600000D02*
X101500000Y-103600000D01*
X108500000Y-112650000D02*
X124880000Y-112650000D01*
X107400000Y-111550000D02*
X108500000Y-112650000D01*
X68887500Y-87087500D02*
X73630000Y-91830000D01*
X89357108Y-104700000D02*
X90457108Y-103600000D01*
X101500000Y-103600000D02*
X107400000Y-109500000D01*
X81446446Y-103400000D02*
X84676777Y-103400000D01*
X124880000Y-112650000D02*
X135470000Y-102060000D01*
X75100000Y-69800000D02*
X75100000Y-70960000D01*
X135470000Y-102060000D02*
X135880000Y-102060000D01*
X69970000Y-72160000D02*
X68887500Y-73242500D01*
X73900000Y-72160000D02*
X69970000Y-72160000D01*
X107400000Y-109500000D02*
X107400000Y-111550000D01*
%TO.N,I2S0_SCLK*%
X136780000Y-100340000D02*
X137470000Y-99650000D01*
X74600000Y-70900000D02*
X73620000Y-71880000D01*
X68637500Y-87191054D02*
X73330000Y-91883554D01*
X73330000Y-91883554D02*
X73330000Y-99130000D01*
X136040000Y-102510000D02*
X136780000Y-101770000D01*
X74600000Y-69450000D02*
X74600000Y-70900000D01*
X73620000Y-71880000D02*
X69840000Y-71880000D01*
X90535000Y-103900000D02*
X101400000Y-103900000D01*
X108400000Y-112950000D02*
X125060000Y-112950000D01*
X147825000Y-100715000D02*
X147825000Y-100800000D01*
X69840000Y-71880000D02*
X68637500Y-73082500D01*
X84600000Y-103700000D02*
X85850000Y-104950000D01*
X85850000Y-104950000D02*
X89485000Y-104950000D01*
X89485000Y-104950000D02*
X90535000Y-103900000D01*
X136780000Y-101770000D02*
X136780000Y-100340000D01*
X107100000Y-111650000D02*
X108400000Y-112950000D01*
X101400000Y-103900000D02*
X107100000Y-109600000D01*
X68637500Y-73082500D02*
X68637500Y-87191054D01*
X146760000Y-99650000D02*
X147825000Y-100715000D01*
X135500000Y-102510000D02*
X136040000Y-102510000D01*
X77900000Y-103700000D02*
X84600000Y-103700000D01*
X107100000Y-109600000D02*
X107100000Y-111650000D01*
X125060000Y-112950000D02*
X135500000Y-102510000D01*
X73330000Y-99130000D02*
X77900000Y-103700000D01*
X137470000Y-99650000D02*
X146760000Y-99650000D01*
%TO.N,GPIO09*%
X135870000Y-103390000D02*
X136950000Y-103390000D01*
X71450000Y-71000000D02*
X69450000Y-71000000D01*
X136950000Y-103390000D02*
X137630000Y-102710000D01*
X67850000Y-72600000D02*
X67850000Y-87550000D01*
X137630000Y-100560000D02*
X137600000Y-100530000D01*
X125410000Y-113850000D02*
X135870000Y-103390000D01*
X89807108Y-105700000D02*
X90778554Y-104728554D01*
X105570000Y-111370000D02*
X108050000Y-113850000D01*
X69450000Y-71000000D02*
X67850000Y-72600000D01*
X67850000Y-87550000D02*
X72450000Y-92150000D01*
X108050000Y-113850000D02*
X125410000Y-113850000D01*
X72450000Y-99450000D02*
X77600000Y-104600000D01*
X71600000Y-69950000D02*
X71600000Y-70850000D01*
X77600000Y-104600000D02*
X84300000Y-104600000D01*
X85400000Y-105700000D02*
X89807108Y-105700000D01*
X71600000Y-70850000D02*
X71450000Y-71000000D01*
X84300000Y-104600000D02*
X85400000Y-105700000D01*
X101028554Y-104728554D02*
X105570000Y-109270000D01*
X137630000Y-102710000D02*
X137630000Y-100560000D01*
X90778554Y-104728554D02*
X101028554Y-104728554D01*
X72450000Y-92150000D02*
X72450000Y-99450000D01*
X105570000Y-109270000D02*
X105570000Y-111370000D01*
%TO.N,SDA_CAM*%
X71050000Y-73250000D02*
X70590000Y-73250000D01*
X70500000Y-74300000D02*
X71100000Y-74300000D01*
X86600000Y-103700000D02*
X85070000Y-102170000D01*
X71300000Y-74100000D02*
X71300000Y-73500000D01*
X76704000Y-99504000D02*
X74800000Y-97600000D01*
X71300000Y-73500000D02*
X71050000Y-73250000D01*
X94950000Y-102075000D02*
X94125000Y-101250000D01*
X79104000Y-99504000D02*
X76704000Y-99504000D01*
X85070000Y-102170000D02*
X81770000Y-102170000D01*
X70600000Y-83903364D02*
X70287500Y-83590864D01*
X70600000Y-87243614D02*
X70600000Y-83903364D01*
X74800000Y-97600000D02*
X74800000Y-91443614D01*
X74800000Y-91443614D02*
X70600000Y-87243614D01*
X81770000Y-102170000D02*
X79104000Y-99504000D01*
X94125000Y-101250000D02*
X90270000Y-101250000D01*
X90270000Y-101250000D02*
X87820000Y-103700000D01*
X70287500Y-74512500D02*
X70500000Y-74300000D01*
X70287500Y-83590864D02*
X70287500Y-74512500D01*
X87820000Y-103700000D02*
X86600000Y-103700000D01*
X71100000Y-74300000D02*
X71300000Y-74100000D01*
%TO.N,SCL_CAM*%
X84980000Y-102480000D02*
X86450000Y-103950000D01*
X70300000Y-84000000D02*
X70300000Y-87300000D01*
X90270000Y-101610000D02*
X93620000Y-101610000D01*
X94740000Y-102730000D02*
X94920000Y-102730000D01*
X70569854Y-73824149D02*
X70175851Y-73824149D01*
X94920000Y-102730000D02*
X95500000Y-102150000D01*
X70300000Y-87300000D02*
X74500000Y-91500000D01*
X69970000Y-74030000D02*
X69970000Y-83670000D01*
X74500000Y-91500000D02*
X74500000Y-97710000D01*
X70175851Y-73824149D02*
X69970000Y-74030000D01*
X86450000Y-103950000D02*
X87930000Y-103950000D01*
X81680000Y-102480000D02*
X84980000Y-102480000D01*
X69970000Y-83670000D02*
X70300000Y-84000000D01*
X93620000Y-101610000D02*
X94740000Y-102730000D01*
X76550000Y-99760000D02*
X78960000Y-99760000D01*
X78960000Y-99760000D02*
X81680000Y-102480000D01*
X87930000Y-103950000D02*
X90270000Y-101610000D01*
X74500000Y-97710000D02*
X76550000Y-99760000D01*
D12*
%TO.N,~{RESET}*%
X65200000Y-84700000D02*
X65200000Y-86725000D01*
X65950000Y-83950000D02*
X65200000Y-84700000D01*
X64550000Y-70475500D02*
X65765000Y-71690500D01*
X65950000Y-78550000D02*
X65950000Y-83950000D01*
X65200000Y-86725000D02*
X64166588Y-87758412D01*
X65765000Y-71690500D02*
X65765000Y-78365000D01*
X65765000Y-78365000D02*
X65950000Y-78550000D01*
X64166588Y-87758412D02*
X64166588Y-88186635D01*
D15*
%TO.N,+3V3*%
X137825000Y-96325000D02*
X138475000Y-96975000D01*
X138475000Y-96975000D02*
X138475000Y-97050000D01*
X134300000Y-95850000D02*
X134775000Y-96325000D01*
X134775000Y-96325000D02*
X137825000Y-96325000D01*
D12*
%TO.N,GPIO07*%
X63000000Y-96650000D02*
X63000000Y-109700000D01*
X67025000Y-113725000D02*
X69575000Y-113725000D01*
X64900000Y-86600000D02*
X63700000Y-87800000D01*
X63000000Y-109700000D02*
X67025000Y-113725000D01*
X63700000Y-95950000D02*
X63000000Y-96650000D01*
X64900000Y-84500000D02*
X64900000Y-86600000D01*
X65675000Y-79825000D02*
X65675000Y-83725000D01*
X65675000Y-83725000D02*
X64900000Y-84500000D01*
D16*
X65058564Y-78647074D02*
X65058564Y-79208564D01*
D12*
X65058564Y-79208564D02*
X65675000Y-79825000D01*
X63700000Y-87800000D02*
X63700000Y-95950000D01*
X69575000Y-113725000D02*
X70300000Y-113000000D01*
%TO.N,Net-(A1-Pad124)*%
X89410307Y-113668914D02*
X89410307Y-112539693D01*
X89950000Y-112000000D02*
X95700000Y-112000000D01*
X89410307Y-112539693D02*
X89950000Y-112000000D01*
D11*
%TO.N,/USB Debug\u002C DP/USBC0_RX2_N*%
X77076000Y-113074000D02*
X76950000Y-113200000D01*
X76950000Y-109660000D02*
X77270000Y-109980000D01*
X77270000Y-110844282D02*
X77076000Y-111038282D01*
X77270000Y-109980000D02*
X77270000Y-110844282D01*
X76930000Y-109660000D02*
X76950000Y-109660000D01*
X77076000Y-111038282D02*
X77076000Y-113074000D01*
D14*
%TO.N,I2C2_SCL*%
X124783304Y-121697645D02*
X125147903Y-121659324D01*
X127537397Y-120107568D02*
X127720701Y-119790077D01*
D12*
X64400000Y-83050000D02*
X64300000Y-83150000D01*
D14*
X67100000Y-122400000D02*
X81900000Y-122400000D01*
D12*
X133125000Y-109575000D02*
X132950000Y-109750000D01*
X148850000Y-109250000D02*
X135450000Y-109250000D01*
D14*
X128100000Y-112100000D02*
X130600000Y-109600000D01*
X124600000Y-121700000D02*
X124783304Y-121697645D01*
X123100000Y-121700000D02*
X124600000Y-121700000D01*
X132800000Y-109600000D02*
X132950000Y-109750000D01*
D12*
X135450000Y-109250000D02*
X134900000Y-108700000D01*
X63100000Y-95600000D02*
X62400000Y-96300000D01*
D14*
X128100000Y-118200000D02*
X128100000Y-112100000D01*
D12*
X133375000Y-109326041D02*
X133126041Y-109575000D01*
X134900000Y-108700000D02*
X134000000Y-108700000D01*
D14*
X127321911Y-120404160D02*
X127537397Y-120107568D01*
D12*
X133375000Y-109325000D02*
X133375000Y-109326041D01*
D14*
X64000000Y-111500000D02*
X66050000Y-113550000D01*
X108300000Y-122900000D02*
X121900000Y-122900000D01*
X126507568Y-121137397D02*
X126804160Y-120921911D01*
X128097645Y-118383304D02*
X128100000Y-118200000D01*
X128059324Y-118747903D02*
X128097645Y-118383304D01*
X121900000Y-122900000D02*
X123100000Y-121700000D01*
X126804160Y-120921911D02*
X127076602Y-120676602D01*
D12*
X63100000Y-87600000D02*
X63100000Y-95600000D01*
D14*
X83900000Y-120400000D02*
X105800000Y-120400000D01*
X125855164Y-121469814D02*
X126190077Y-121320701D01*
X125147903Y-121659324D02*
X125506499Y-121583102D01*
D12*
X133126041Y-109575000D02*
X133125000Y-109575000D01*
X64300000Y-86400000D02*
X63100000Y-87600000D01*
D14*
X66050000Y-121350000D02*
X67100000Y-122400000D01*
D12*
X62400000Y-109900000D02*
X64000000Y-111500000D01*
D14*
X130600000Y-109600000D02*
X132800000Y-109600000D01*
X127076602Y-120676602D02*
X127321911Y-120404160D01*
X125506499Y-121583102D02*
X125855164Y-121469814D01*
D12*
X62400000Y-96300000D02*
X62400000Y-109900000D01*
X64300000Y-83150000D02*
X64300000Y-86400000D01*
D14*
X105800000Y-120400000D02*
X108300000Y-122900000D01*
X126190077Y-121320701D02*
X126507568Y-121137397D01*
X66050000Y-113550000D02*
X66050000Y-121350000D01*
X127869814Y-119455164D02*
X127983102Y-119106499D01*
X127720701Y-119790077D02*
X127869814Y-119455164D01*
D12*
X134000000Y-108700000D02*
X133375000Y-109325000D01*
D14*
X81900000Y-122400000D02*
X83900000Y-120400000D01*
X127983102Y-119106499D02*
X128059324Y-118747903D01*
D12*
X149100000Y-109500000D02*
X148850000Y-109250000D01*
D14*
%TO.N,I2C2_SDA*%
X67200000Y-122100000D02*
X81800000Y-122100000D01*
X127800000Y-118100000D02*
X127800000Y-112000000D01*
X81800000Y-122100000D02*
X83800000Y-120100000D01*
X127800000Y-112000000D02*
X130500000Y-109300000D01*
X122900000Y-121400000D02*
X124500000Y-121400000D01*
X130500000Y-109300000D02*
X132800000Y-109300000D01*
D12*
X63400000Y-95750000D02*
X62700000Y-96450000D01*
D14*
X66350000Y-113450000D02*
X66350000Y-121250000D01*
D12*
X62700000Y-96450000D02*
X62700000Y-109800000D01*
X63400000Y-87700000D02*
X63400000Y-95750000D01*
D14*
X105887500Y-120100000D02*
X108387500Y-122600000D01*
X83800000Y-120100000D02*
X105887500Y-120100000D01*
D12*
X135400000Y-108800000D02*
X134950000Y-108350000D01*
X62700000Y-109800000D02*
X64300000Y-111400000D01*
X148800000Y-108800000D02*
X135400000Y-108800000D01*
X64600000Y-83500000D02*
X64600000Y-86500000D01*
X149100000Y-108500000D02*
X148800000Y-108800000D01*
X64975997Y-83049500D02*
X64975997Y-83124003D01*
D14*
X108387500Y-122600000D02*
X121700000Y-122600000D01*
X66350000Y-121250000D02*
X67200000Y-122100000D01*
D12*
X133750000Y-108350000D02*
X132950000Y-109150000D01*
D14*
X121700000Y-122600000D02*
X122900000Y-121400000D01*
X64300000Y-111400000D02*
X66350000Y-113450000D01*
X132800000Y-109300000D02*
X132950000Y-109150000D01*
D12*
X64975997Y-83124003D02*
X64600000Y-83500000D01*
X134950000Y-108350000D02*
X133750000Y-108350000D01*
X64600000Y-86500000D02*
X63400000Y-87700000D01*
D14*
X124500000Y-121400000D02*
G75*
G03*
X127800000Y-118100000I0J3300000D01*
G01*
D11*
%TO.N,USBSS1_TX_N*%
X132274282Y-91840000D02*
X132401000Y-91713282D01*
X130898282Y-90869000D02*
X130176000Y-90146718D01*
X130176000Y-83911718D02*
X129376000Y-83111718D01*
X126198282Y-69889000D02*
X116678282Y-69889000D01*
X115321718Y-69629000D02*
X114959000Y-69991718D01*
X130176000Y-88156000D02*
X130176000Y-83911718D01*
X114959000Y-69991718D02*
X114959000Y-70239000D01*
X130176000Y-90146718D02*
X130176000Y-88956000D01*
X132401000Y-91121718D02*
X132148282Y-90869000D01*
X114959000Y-70239000D02*
X115120000Y-70400000D01*
X116678282Y-69889000D02*
X116418282Y-69629000D01*
X116418282Y-69629000D02*
X115321718Y-69629000D01*
X126651000Y-70341718D02*
X126198282Y-69889000D01*
X132148282Y-90869000D02*
X130898282Y-90869000D01*
X129376000Y-83111718D02*
X129376000Y-76111718D01*
X126651000Y-73386718D02*
X126651000Y-70341718D01*
X131910000Y-91840000D02*
X132274282Y-91840000D01*
X132401000Y-91713282D02*
X132401000Y-91121718D01*
X129976000Y-88756000D02*
X129735774Y-88756000D01*
X129376000Y-76111718D02*
X126651000Y-73386718D01*
X129735774Y-88356000D02*
X129976000Y-88356000D01*
X129535800Y-88556000D02*
G75*
G03*
X129735774Y-88756000I200000J0D01*
G01*
X129976000Y-88356000D02*
G75*
G03*
X130176000Y-88156000I0J200000D01*
G01*
X130176000Y-88956000D02*
G75*
G03*
X129976000Y-88756000I-200000J0D01*
G01*
X129735774Y-88355974D02*
G75*
G03*
X129535774Y-88556000I26J-200026D01*
G01*
D12*
%TO.N,/USB Debug\u002C DP/PDC_LDO_3V3*%
X66617342Y-98550000D02*
X66833671Y-98333671D01*
X63600000Y-98550000D02*
X66617342Y-98550000D01*
X63700000Y-107150000D02*
X63300000Y-106750000D01*
X63300000Y-98850000D02*
X63600000Y-98550000D01*
X65700000Y-107150000D02*
X63700000Y-107150000D01*
X63300000Y-106750000D02*
X63300000Y-98850000D01*
D14*
%TO.N,Net-(C116-Pad2)*%
X54387500Y-78112500D02*
X54387500Y-75712500D01*
X64850000Y-125300000D02*
X64850000Y-118000000D01*
X64850000Y-125300000D02*
X65150000Y-125600000D01*
X53050000Y-114100000D02*
X52200000Y-113250000D01*
X54387500Y-75712500D02*
X54575500Y-75524500D01*
X52200000Y-113250000D02*
X52200000Y-80300000D01*
X60950000Y-114100000D02*
X53050000Y-114100000D01*
X52200000Y-80300000D02*
X54387500Y-78112500D01*
X54575500Y-75524500D02*
X57200000Y-75524500D01*
X64850000Y-118000000D02*
G75*
G03*
X60950000Y-114100000I-3900000J0D01*
G01*
D11*
%TO.N,/USB Debug\u002C DP/USBC0_RX2_P*%
X77525000Y-113200000D02*
X77374000Y-113049000D01*
X77374000Y-113049000D02*
X77374000Y-111161718D01*
X77570000Y-110965718D02*
X77570000Y-109750000D01*
X77342334Y-109522334D02*
X77342334Y-109257666D01*
X77570000Y-109750000D02*
X77342334Y-109522334D01*
X77374000Y-111161718D02*
X77570000Y-110965718D01*
%TO.N,USBSS1_TX_P*%
X115198282Y-69331000D02*
X114661000Y-69868282D01*
X130474000Y-90023282D02*
X130474000Y-83788282D01*
X132699000Y-91836718D02*
X132699000Y-90998282D01*
X132271718Y-90571000D02*
X131021718Y-90571000D01*
X114661000Y-70259000D02*
X114540000Y-70380000D01*
X116801718Y-69591000D02*
X116541718Y-69331000D01*
X129674000Y-82988282D02*
X129674000Y-75988282D01*
X114661000Y-69868282D02*
X114661000Y-70259000D01*
X131021718Y-90571000D02*
X130474000Y-90023282D01*
X130474000Y-83788282D02*
X129674000Y-82988282D01*
X129674000Y-75988282D02*
X126949000Y-73263282D01*
X126949000Y-73263282D02*
X126949000Y-70218282D01*
X116541718Y-69331000D02*
X115198282Y-69331000D01*
X132380000Y-92155718D02*
X132699000Y-91836718D01*
X126321718Y-69591000D02*
X116801718Y-69591000D01*
X132380000Y-92280000D02*
X132380000Y-92155718D01*
X132699000Y-90998282D02*
X132271718Y-90571000D01*
X126949000Y-70218282D02*
X126321718Y-69591000D01*
D12*
%TO.N,SYS_SDA*%
X61500000Y-79100000D02*
X61500000Y-90400000D01*
D14*
X122100000Y-123200000D02*
X108200000Y-123200000D01*
X86100000Y-120700000D02*
X85950000Y-120850000D01*
X65750000Y-113650000D02*
X65750000Y-121450000D01*
X59700000Y-98700000D02*
X59950000Y-98950000D01*
X61650000Y-98950000D02*
X62100000Y-99400000D01*
X62100000Y-99400000D02*
X62100000Y-110000000D01*
D12*
X62350520Y-77949479D02*
X62350520Y-78250521D01*
X59700000Y-97900000D02*
X59800000Y-98000000D01*
D14*
X124700000Y-122000000D02*
X123300000Y-122000000D01*
D12*
X62076041Y-78525000D02*
X62075000Y-78525000D01*
D14*
X128400000Y-112400000D02*
X128400000Y-118300000D01*
X123300000Y-122000000D02*
X122100000Y-123200000D01*
X62100000Y-110000000D02*
X65750000Y-113650000D01*
X82000000Y-122700000D02*
X83850000Y-120850000D01*
D12*
X61500000Y-90400000D02*
X59700000Y-92200000D01*
X61900000Y-77500000D02*
X61901041Y-77500000D01*
D14*
X83850000Y-120850000D02*
X85950000Y-120850000D01*
X129800000Y-111000000D02*
X128400000Y-112400000D01*
X108200000Y-123200000D02*
X105700000Y-120700000D01*
X59800000Y-98000000D02*
X59700000Y-98100000D01*
X105700000Y-120700000D02*
X86100000Y-120700000D01*
X65750000Y-121450000D02*
X67000000Y-122700000D01*
X67000000Y-122700000D02*
X82000000Y-122700000D01*
X59700000Y-98100000D02*
X59700000Y-98700000D01*
D12*
X62350520Y-78250521D02*
X62076041Y-78525000D01*
X61901041Y-77500000D02*
X62350520Y-77949479D01*
X59700000Y-92200000D02*
X59700000Y-97900000D01*
D14*
X59950000Y-98950000D02*
X61650000Y-98950000D01*
D12*
X62075000Y-78525000D02*
X61500000Y-79100000D01*
D14*
X124700000Y-122000000D02*
G75*
G03*
X128400000Y-118300000I0J3700000D01*
G01*
%TO.N,SYS_SCL*%
X86350000Y-121300000D02*
X86650000Y-121000000D01*
D12*
X61200000Y-90300000D02*
X59400000Y-92100000D01*
D14*
X83800000Y-121300000D02*
X82100000Y-123000000D01*
X59400000Y-98200000D02*
X59200000Y-98000000D01*
X66900000Y-123000000D02*
X65450000Y-121550000D01*
X130300000Y-111100000D02*
X130300000Y-110500000D01*
X65450000Y-113750000D02*
X61800000Y-110100000D01*
X123500000Y-122300000D02*
X124800000Y-122300000D01*
X108100000Y-123500000D02*
X122300000Y-123500000D01*
D12*
X61900000Y-78100000D02*
X61200000Y-78800000D01*
X59400000Y-97800000D02*
X59200000Y-98000000D01*
D14*
X128700000Y-112700000D02*
X130300000Y-111100000D01*
X59800000Y-99200000D02*
X59400000Y-98800000D01*
X122300000Y-123500000D02*
X123500000Y-122300000D01*
X61800000Y-99500000D02*
X61500000Y-99200000D01*
X82100000Y-123000000D02*
X66900000Y-123000000D01*
X86650000Y-121000000D02*
X105600000Y-121000000D01*
X61500000Y-99200000D02*
X59800000Y-99200000D01*
X61800000Y-110100000D02*
X61800000Y-99500000D01*
D12*
X59400000Y-92100000D02*
X59400000Y-97800000D01*
D14*
X65450000Y-121550000D02*
X65450000Y-113750000D01*
X86350000Y-121300000D02*
X83800000Y-121300000D01*
X59400000Y-98800000D02*
X59400000Y-98200000D01*
X128700000Y-118400000D02*
X128700000Y-112700000D01*
X105600000Y-121000000D02*
X108100000Y-123500000D01*
D12*
X61200000Y-78800000D02*
X61200000Y-90300000D01*
D14*
X124800000Y-122300000D02*
G75*
G03*
X128700000Y-118400000I0J3900000D01*
G01*
D12*
%TO.N,/USB Debug\u002C DP/FTDI_LED_TX*%
X47600000Y-117700000D02*
X47600000Y-125400000D01*
X55000000Y-115112000D02*
X54312000Y-115800000D01*
X49500000Y-115800000D02*
X47600000Y-117700000D01*
X47600000Y-125400000D02*
X47200000Y-125800000D01*
X54312000Y-115800000D02*
X49500000Y-115800000D01*
X46200000Y-125800000D02*
X46000000Y-126000000D01*
X47200000Y-125800000D02*
X46200000Y-125800000D01*
D16*
%TO.N,/USB Debug\u002C DP/FTDI_LED_RX*%
X47300000Y-125200000D02*
X47300000Y-117600000D01*
X50700000Y-112950000D02*
X50725000Y-112925000D01*
X47300000Y-117600000D02*
X50700000Y-114200000D01*
X45800000Y-125500000D02*
X47000000Y-125500000D01*
X50700000Y-114200000D02*
X50700000Y-112950000D01*
X47000000Y-125500000D02*
X47300000Y-125200000D01*
X45300000Y-126000000D02*
X45800000Y-125500000D01*
D14*
%TO.N,/USB Debug\u002C DP/USBC0_CC1*%
X72000000Y-108700000D02*
X72000000Y-104850000D01*
X71500000Y-104350000D02*
X71500000Y-102250000D01*
X73186339Y-109886339D02*
X72000000Y-108700000D01*
X71000000Y-101100000D02*
X70500000Y-101100000D01*
X71500000Y-102250000D02*
X71150000Y-101900000D01*
X73186339Y-112563661D02*
X73186339Y-109886339D01*
X72000000Y-104850000D02*
X71500000Y-104350000D01*
X71150000Y-101900000D02*
X71150000Y-101250000D01*
X71150000Y-101250000D02*
X71000000Y-101100000D01*
X74072001Y-113449322D02*
X73186339Y-112563661D01*
D12*
%TO.N,/USB Debug\u002C DP/USBC0_CC2*%
X72900000Y-110050000D02*
X72900000Y-113050000D01*
X72900000Y-113050000D02*
X74000000Y-114150000D01*
X71200000Y-102500000D02*
X71200000Y-104450000D01*
X70925000Y-102225000D02*
X71200000Y-102500000D01*
X70425000Y-102225000D02*
X70925000Y-102225000D01*
X74000000Y-114150000D02*
X75550000Y-114150000D01*
X75550000Y-114150000D02*
X76000000Y-114600000D01*
X71700000Y-108850000D02*
X72900000Y-110050000D01*
X71700000Y-104950000D02*
X71700000Y-108850000D01*
X71200000Y-104450000D02*
X71700000Y-104950000D01*
D14*
%TO.N,PWR_SOFT*%
X59585000Y-75735000D02*
X59585000Y-76066617D01*
X53100000Y-109300000D02*
X57170000Y-109300000D01*
X52800000Y-109000000D02*
X53100000Y-109300000D01*
X57170000Y-109300000D02*
X58400000Y-110530000D01*
X52800000Y-82851617D02*
X52800000Y-109000000D01*
X59585000Y-76066617D02*
X52800000Y-82851617D01*
D13*
%TO.N,/USB3/USBC1_CC2*%
X116100000Y-121100000D02*
X116700000Y-120500000D01*
X117100000Y-119100000D02*
X116400000Y-118400000D01*
X114500000Y-118000000D02*
X114500000Y-117200000D01*
X114900000Y-118400000D02*
X114500000Y-118000000D01*
X114200000Y-120600000D02*
X114700000Y-121100000D01*
X116700000Y-120500000D02*
X116700000Y-120000000D01*
X117100000Y-119600000D02*
X117100000Y-119100000D01*
X116400000Y-118400000D02*
X114900000Y-118400000D01*
X116700000Y-120000000D02*
X117100000Y-119600000D01*
X114200000Y-120150000D02*
X114200000Y-120600000D01*
X114700000Y-121100000D02*
X116100000Y-121100000D01*
D14*
%TO.N,CSIA_FLG*%
X105550000Y-114600000D02*
X108650000Y-114600000D01*
X92275000Y-113200000D02*
X92925000Y-112550000D01*
X96050000Y-112350000D02*
X103300000Y-112350000D01*
X95850000Y-112550000D02*
X96050000Y-112350000D01*
X92925000Y-112550000D02*
X95850000Y-112550000D01*
X103300000Y-112350000D02*
X105550000Y-114600000D01*
X92272500Y-113200000D02*
X92275000Y-113200000D01*
%TO.N,CSIA_PEN*%
X90878340Y-105000000D02*
X89928340Y-105950000D01*
X107900000Y-114150000D02*
X105250000Y-111500000D01*
X88262000Y-105950000D02*
X88100000Y-106112000D01*
X89928340Y-105950000D02*
X88262000Y-105950000D01*
X105250000Y-111500000D02*
X105250000Y-109350000D01*
X100900000Y-105000000D02*
X90878340Y-105000000D01*
X105250000Y-109350000D02*
X100900000Y-105000000D01*
X127250000Y-114150000D02*
X107900000Y-114150000D01*
D12*
%TO.N,CSIB_PEN*%
X95172238Y-99154205D02*
X93426443Y-100900000D01*
X88575000Y-102550000D02*
X87350000Y-102550000D01*
X90225000Y-100900000D02*
X88575000Y-102550000D01*
X93426443Y-100900000D02*
X90225000Y-100900000D01*
D14*
%TO.N,Net-(C124-Pad2)*%
X65150000Y-117900000D02*
X65150000Y-121650000D01*
X54900000Y-76000000D02*
X54900000Y-78050000D01*
X83250000Y-126600000D02*
X83250000Y-124550000D01*
X66800000Y-123300000D02*
X82000000Y-123300000D01*
X54900000Y-78050000D02*
X52500000Y-80450000D01*
X53250000Y-113800000D02*
X61050000Y-113800000D01*
X83250000Y-124550000D02*
X82000000Y-123300000D01*
X52500000Y-80450000D02*
X52500000Y-113050000D01*
X52500000Y-113050000D02*
X53250000Y-113800000D01*
X65150000Y-121650000D02*
X66800000Y-123300000D01*
X65150000Y-117900000D02*
G75*
G03*
X61050000Y-113800000I-4100000J0D01*
G01*
%TO.N,CSIB_FLG*%
X96825500Y-105442844D02*
X96825500Y-106074500D01*
X96825500Y-106074500D02*
X94050000Y-108850000D01*
X94050000Y-108850000D02*
X92500000Y-108850000D01*
D11*
%TO.N,USB0_D_P*%
X112800500Y-110311218D02*
X112800500Y-110701138D01*
X106688282Y-107099000D02*
X108768935Y-107099000D01*
X112800500Y-110701138D02*
X112652500Y-110849138D01*
X111385561Y-108896279D02*
X112800500Y-110311218D01*
X105801000Y-106211718D02*
X106688282Y-107099000D01*
X104158282Y-102749000D02*
X105801000Y-104391718D01*
X103618282Y-102749000D02*
X104158282Y-102749000D01*
X105801000Y-104391718D02*
X105801000Y-106211718D01*
X100651000Y-97345000D02*
X100651000Y-99781718D01*
X108768935Y-107099000D02*
X110566214Y-108896279D01*
X100651000Y-99781718D02*
X103618282Y-102749000D01*
X110566214Y-108896279D02*
X111385561Y-108896279D01*
X100506000Y-97200000D02*
X100651000Y-97345000D01*
%TO.N,USB2_D_N*%
X85485000Y-109979000D02*
X85340000Y-110124000D01*
X96951718Y-109979000D02*
X85485000Y-109979000D01*
X101050000Y-106060000D02*
X100870718Y-106060000D01*
X101050000Y-106060000D02*
X100860718Y-106060000D01*
X100870718Y-106060000D02*
X96951718Y-109979000D01*
%TO.N,USB2_D_P*%
X85485000Y-109681000D02*
X85340000Y-109536000D01*
X96828282Y-109681000D02*
X85485000Y-109681000D01*
X100660000Y-105590000D02*
X100660000Y-105839282D01*
X100660000Y-105590000D02*
X100660000Y-105849282D01*
X100660000Y-105849282D02*
X96828282Y-109681000D01*
%TO.N,PCIE0_TX0_N*%
X124641513Y-87449205D02*
X124869206Y-87221512D01*
X112697447Y-97058165D02*
X117041836Y-101402554D01*
X117395389Y-101549000D02*
X121454611Y-101549000D01*
X123214611Y-97341000D02*
X122986693Y-97341000D01*
X128605434Y-84430434D02*
X128700000Y-84525000D01*
X112551000Y-94356693D02*
X112551000Y-96704611D01*
X122509000Y-96863307D02*
X122509000Y-91016693D01*
X123156693Y-90369000D02*
X123634611Y-90369000D01*
X103440795Y-85101513D02*
X112448488Y-94109206D01*
X122611513Y-90769205D02*
X122909206Y-90471512D01*
X123988165Y-90222553D02*
X124392554Y-89818164D01*
X90531066Y-85042934D02*
X90430000Y-85144000D01*
X122739205Y-97238487D02*
X122611512Y-97110794D01*
X124049000Y-98954611D02*
X124049000Y-98175389D01*
X125116693Y-87119000D02*
X125814611Y-87119000D01*
X126168165Y-86972553D02*
X126932554Y-86208164D01*
X123902553Y-97821835D02*
X123568164Y-97487446D01*
X121808165Y-101402553D02*
X123902554Y-99308164D01*
X127079000Y-85854611D02*
X127079000Y-84976693D01*
X127669193Y-84386500D02*
X128499368Y-84386500D01*
X103193307Y-84999000D02*
X90637132Y-84999000D01*
X124539000Y-89464611D02*
X124539000Y-87696693D01*
X127181513Y-84729205D02*
X127421706Y-84489012D01*
X126932548Y-86208158D02*
G75*
G03*
X127079000Y-85854611I-353548J353558D01*
G01*
X123634611Y-90369007D02*
G75*
G03*
X123988164Y-90222552I-11J500007D01*
G01*
X121454611Y-101549007D02*
G75*
G03*
X121808164Y-101402552I-11J500007D01*
G01*
X122508995Y-96863307D02*
G75*
G03*
X122611512Y-97110794I350005J7D01*
G01*
X122739209Y-97238483D02*
G75*
G03*
X122986693Y-97341000I247491J247483D01*
G01*
X112550993Y-96704611D02*
G75*
G03*
X112697448Y-97058164I500007J11D01*
G01*
X90637132Y-84999023D02*
G75*
G03*
X90531066Y-85042934I-32J-149977D01*
G01*
X122611517Y-90769209D02*
G75*
G03*
X122509000Y-91016693I247483J-247491D01*
G01*
X125116693Y-87118995D02*
G75*
G03*
X124869206Y-87221512I7J-350005D01*
G01*
X103440791Y-85101517D02*
G75*
G03*
X103193307Y-84999000I-247491J-247483D01*
G01*
X123568158Y-97487452D02*
G75*
G03*
X123214611Y-97341000I-353558J-353548D01*
G01*
X124392548Y-89818158D02*
G75*
G03*
X124539000Y-89464611I-353548J353558D01*
G01*
X124049007Y-98175389D02*
G75*
G03*
X123902552Y-97821836I-500007J-11D01*
G01*
X112551005Y-94356693D02*
G75*
G03*
X112448488Y-94109206I-350005J-7D01*
G01*
X125814611Y-87119007D02*
G75*
G03*
X126168164Y-86972552I-11J500007D01*
G01*
X127669193Y-84386495D02*
G75*
G03*
X127421706Y-84489012I7J-350005D01*
G01*
X128605450Y-84430418D02*
G75*
G03*
X128499368Y-84386500I-106050J-106082D01*
G01*
X123902548Y-99308158D02*
G75*
G03*
X124049000Y-98954611I-353548J353558D01*
G01*
X124641517Y-87449209D02*
G75*
G03*
X124539000Y-87696693I247483J-247491D01*
G01*
X123156693Y-90368995D02*
G75*
G03*
X122909206Y-90471512I7J-350005D01*
G01*
X127181517Y-84729209D02*
G75*
G03*
X127079000Y-84976693I247483J-247491D01*
G01*
X117041842Y-101402548D02*
G75*
G03*
X117395389Y-101549000I353558J353548D01*
G01*
%TO.N,PCIE0_TX0_P*%
X117456693Y-101251000D02*
X121393307Y-101251000D01*
X123153307Y-97639000D02*
X122925389Y-97639000D01*
X125055389Y-86821000D02*
X125753307Y-86821000D01*
X90637132Y-84701000D02*
X103254611Y-84701000D01*
X103608165Y-84847447D02*
X112702554Y-93941836D01*
X122357447Y-90601835D02*
X122741836Y-90217446D01*
X127607889Y-84088500D02*
X128499368Y-84088500D01*
X122211000Y-96924611D02*
X122211000Y-90955389D01*
X123648487Y-97989205D02*
X123400794Y-97741512D01*
X126000795Y-86718487D02*
X126678488Y-86040794D01*
X126781000Y-85793307D02*
X126781000Y-84915389D01*
X112951513Y-96890795D02*
X117209206Y-101148488D01*
X112849000Y-94295389D02*
X112849000Y-96643307D01*
X122571835Y-97492553D02*
X122357446Y-97278164D01*
X128605434Y-84044566D02*
X128700000Y-83950000D01*
X123751000Y-98893307D02*
X123751000Y-98236693D01*
X123095389Y-90071000D02*
X123573307Y-90071000D01*
X126927447Y-84561835D02*
X127254336Y-84234946D01*
X121640795Y-101148487D02*
X123648488Y-99140794D01*
X123820795Y-89968487D02*
X124138488Y-89650794D01*
X124241000Y-89403307D02*
X124241000Y-87635389D01*
X90430000Y-84556000D02*
X90531066Y-84657066D01*
X124387447Y-87281835D02*
X124701836Y-86967446D01*
X90531050Y-84657082D02*
G75*
G03*
X90637132Y-84701000I106050J106082D01*
G01*
X123648484Y-99140790D02*
G75*
G03*
X123751000Y-98893307I-247484J247490D01*
G01*
X123751005Y-98236693D02*
G75*
G03*
X123648487Y-97989205I-350005J-7D01*
G01*
X112848995Y-96643307D02*
G75*
G03*
X112951513Y-96890795I350005J7D01*
G01*
X117209210Y-101148484D02*
G75*
G03*
X117456693Y-101251000I247490J247484D01*
G01*
X123400790Y-97741516D02*
G75*
G03*
X123153307Y-97639000I-247490J-247484D01*
G01*
X122357453Y-90601841D02*
G75*
G03*
X122211000Y-90955389I353547J-353559D01*
G01*
X124138484Y-89650790D02*
G75*
G03*
X124241000Y-89403307I-247484J247490D01*
G01*
X128499368Y-84088477D02*
G75*
G03*
X128605434Y-84044566I32J149977D01*
G01*
X125753307Y-86821005D02*
G75*
G03*
X126000795Y-86718487I-7J350005D01*
G01*
X123095389Y-90070993D02*
G75*
G03*
X122741837Y-90217447I11J-500007D01*
G01*
X126678484Y-86040790D02*
G75*
G03*
X126781000Y-85793307I-247484J247490D01*
G01*
X124387453Y-87281841D02*
G75*
G03*
X124241000Y-87635389I353547J-353559D01*
G01*
X112849007Y-94295389D02*
G75*
G03*
X112702553Y-93941837I-500007J-11D01*
G01*
X121393307Y-101251005D02*
G75*
G03*
X121640795Y-101148487I-7J350005D01*
G01*
X103608159Y-84847453D02*
G75*
G03*
X103254611Y-84701000I-353559J-353547D01*
G01*
X127607889Y-84088493D02*
G75*
G03*
X127254337Y-84234947I11J-500007D01*
G01*
X126927453Y-84561841D02*
G75*
G03*
X126781000Y-84915389I353547J-353559D01*
G01*
X125055389Y-86820993D02*
G75*
G03*
X124701837Y-86967447I11J-500007D01*
G01*
X123573307Y-90071005D02*
G75*
G03*
X123820795Y-89968487I-7J350005D01*
G01*
X122571841Y-97492547D02*
G75*
G03*
X122925389Y-97639000I353559J353547D01*
G01*
X122210993Y-96924611D02*
G75*
G03*
X122357447Y-97278163I500007J11D01*
G01*
%TO.N,PCIE0_TX1_N*%
X88825389Y-86579000D02*
X91623307Y-86579000D01*
X122358165Y-102702553D02*
X125222554Y-99838164D01*
X127451513Y-87759205D02*
X127721706Y-87489012D01*
X92785389Y-87389000D02*
X102933307Y-87389000D01*
X125369000Y-99484611D02*
X125369000Y-97685389D01*
X127349000Y-88594611D02*
X127349000Y-88006693D01*
X128655434Y-87430434D02*
X128750000Y-87525000D01*
X124499000Y-96463307D02*
X124499000Y-91796693D01*
X124601513Y-91549205D02*
X127202554Y-88948164D01*
X111151000Y-95606693D02*
X111151000Y-97154611D01*
X87892110Y-86057890D02*
X88035040Y-86057890D01*
X127969193Y-87386500D02*
X128549368Y-87386500D01*
X88141106Y-86101824D02*
X88471836Y-86432554D01*
X91870795Y-86681513D02*
X92431836Y-87242554D01*
X103180795Y-87491513D02*
X111048488Y-95359206D01*
X111297447Y-97508165D02*
X116491836Y-102702554D01*
X125222553Y-97331835D02*
X124601512Y-96710794D01*
X116845389Y-102849000D02*
X122004611Y-102849000D01*
X124498995Y-96463307D02*
G75*
G03*
X124601512Y-96710794I350005J7D01*
G01*
X125369007Y-97685389D02*
G75*
G03*
X125222552Y-97331836I-500007J-11D01*
G01*
X111150993Y-97154611D02*
G75*
G03*
X111297448Y-97508164I500007J11D01*
G01*
X91870791Y-86681517D02*
G75*
G03*
X91623307Y-86579000I-247491J-247483D01*
G01*
X111151005Y-95606693D02*
G75*
G03*
X111048488Y-95359206I-350005J-7D01*
G01*
X103180791Y-87491517D02*
G75*
G03*
X102933307Y-87389000I-247491J-247483D01*
G01*
X88471842Y-86432548D02*
G75*
G03*
X88825389Y-86579000I353558J353548D01*
G01*
X122004611Y-102849007D02*
G75*
G03*
X122358164Y-102702552I-11J500007D01*
G01*
X127969193Y-87386495D02*
G75*
G03*
X127721706Y-87489012I7J-350005D01*
G01*
X128655450Y-87430418D02*
G75*
G03*
X128549368Y-87386500I-106050J-106082D01*
G01*
X116491842Y-102702548D02*
G75*
G03*
X116845389Y-102849000I353558J353548D01*
G01*
X88141088Y-86101842D02*
G75*
G03*
X88035040Y-86057890I-106088J-106058D01*
G01*
X124601517Y-91549209D02*
G75*
G03*
X124499000Y-91796693I247483J-247491D01*
G01*
X127202548Y-88948158D02*
G75*
G03*
X127349000Y-88594611I-353548J353558D01*
G01*
X125222548Y-99838158D02*
G75*
G03*
X125369000Y-99484611I-353548J353558D01*
G01*
X127451517Y-87759209D02*
G75*
G03*
X127349000Y-88006693I247483J-247491D01*
G01*
X92431842Y-87242548D02*
G75*
G03*
X92785389Y-87389000I353558J353548D01*
G01*
%TO.N,PCIE0_TX1_P*%
X88307890Y-85785040D02*
X88307890Y-85642110D01*
X127554336Y-87234946D02*
X127197447Y-87591835D01*
X128750000Y-86950000D02*
X128655434Y-87044566D01*
X124201000Y-94759000D02*
X124201000Y-96524611D01*
X91684611Y-86281000D02*
X88886693Y-86281000D01*
X121943307Y-102551000D02*
X116906693Y-102551000D01*
X92599206Y-86988488D02*
X92038165Y-86427447D01*
X124026000Y-94234000D02*
X124023912Y-94234000D01*
X88639206Y-86178488D02*
X88351824Y-85891106D01*
X124347446Y-96878164D02*
X124968487Y-97499205D01*
X128549368Y-87088500D02*
X127907889Y-87088500D01*
X124201000Y-91735389D02*
X124201000Y-93961000D01*
X124201000Y-93961000D02*
X124201000Y-94059000D01*
X126948488Y-88780794D02*
X124347447Y-91381835D01*
X124023912Y-94584000D02*
X124026000Y-94584000D01*
X125071000Y-97746693D02*
X125071000Y-99423307D01*
X124968488Y-99670794D02*
X122190795Y-102448487D01*
X93409000Y-87091000D02*
X92846693Y-87091000D01*
X111449000Y-97093307D02*
X111449000Y-95545389D01*
X116659206Y-102448488D02*
X111551513Y-97340795D01*
X102994611Y-87091000D02*
X94509000Y-87091000D01*
X111302554Y-95191836D02*
X103348165Y-87237447D01*
X94009000Y-86591000D02*
X93909000Y-86591000D01*
X127051000Y-87945389D02*
X127051000Y-88533307D01*
X111448995Y-97093307D02*
G75*
G03*
X111551513Y-97340795I350005J7D01*
G01*
X124347453Y-91381841D02*
G75*
G03*
X124201000Y-91735389I353547J-353559D01*
G01*
X127197453Y-87591841D02*
G75*
G03*
X127051000Y-87945389I353547J-353559D01*
G01*
X124200993Y-96524611D02*
G75*
G03*
X124347447Y-96878163I500007J11D01*
G01*
X88307865Y-85785040D02*
G75*
G03*
X88351824Y-85891106I150035J40D01*
G01*
X126948484Y-88780790D02*
G75*
G03*
X127051000Y-88533307I-247484J247490D01*
G01*
X111449007Y-95545389D02*
G75*
G03*
X111302553Y-95191837I-500007J-11D01*
G01*
X92038159Y-86427453D02*
G75*
G03*
X91684611Y-86281000I-353559J-353547D01*
G01*
X93409000Y-87091000D02*
G75*
G03*
X93659000Y-86841000I0J250000D01*
G01*
X127907889Y-87088493D02*
G75*
G03*
X127554337Y-87234947I11J-500007D01*
G01*
X116659210Y-102448484D02*
G75*
G03*
X116906693Y-102551000I247490J247484D01*
G01*
X88639210Y-86178484D02*
G75*
G03*
X88886693Y-86281000I247490J247484D01*
G01*
X124023912Y-94234012D02*
G75*
G03*
X123848912Y-94409000I-12J-174988D01*
G01*
X93909000Y-86591000D02*
G75*
G03*
X93659000Y-86841000I0J-250000D01*
G01*
X128549368Y-87088477D02*
G75*
G03*
X128655434Y-87044566I32J149977D01*
G01*
X103348159Y-87237453D02*
G75*
G03*
X102994611Y-87091000I-353559J-353547D01*
G01*
X124026000Y-94234000D02*
G75*
G03*
X124201000Y-94059000I0J175000D01*
G01*
X123848900Y-94409000D02*
G75*
G03*
X124023912Y-94584000I175000J0D01*
G01*
X124968484Y-99670790D02*
G75*
G03*
X125071000Y-99423307I-247484J247490D01*
G01*
X94259000Y-86841000D02*
G75*
G03*
X94009000Y-86591000I-250000J0D01*
G01*
X125071005Y-97746693D02*
G75*
G03*
X124968487Y-97499205I-350005J-7D01*
G01*
X124201000Y-94759000D02*
G75*
G03*
X124026000Y-94584000I-175000J0D01*
G01*
X92599210Y-86988484D02*
G75*
G03*
X92846693Y-87091000I247490J247484D01*
G01*
X94259000Y-86841000D02*
G75*
G03*
X94509000Y-87091000I250000J0D01*
G01*
X121943307Y-102551005D02*
G75*
G03*
X122190795Y-102448487I-7J350005D01*
G01*
%TO.N,PCIE0_TX2_N*%
X127252553Y-100258165D02*
X120808164Y-106702554D01*
X120454611Y-106849000D02*
X117745389Y-106849000D01*
X128900000Y-90547000D02*
X128795934Y-90442934D01*
X109601000Y-98704611D02*
X109601000Y-96056693D01*
X117391835Y-106702553D02*
X109747446Y-99058164D01*
X127909205Y-90501513D02*
X127501512Y-90909206D01*
X109498487Y-95809205D02*
X102640794Y-88951512D01*
X102393307Y-88849000D02*
X88995389Y-88849000D01*
X127399000Y-91156693D02*
X127399000Y-99904611D01*
X128689868Y-90399000D02*
X128156693Y-90399000D01*
X88641835Y-88702553D02*
X85541106Y-85601824D01*
X85435040Y-85557890D02*
X85292110Y-85557890D01*
X85541088Y-85601842D02*
G75*
G03*
X85435040Y-85557890I-106088J-106058D01*
G01*
X128156693Y-90398995D02*
G75*
G03*
X127909205Y-90501513I7J-350005D01*
G01*
X102640790Y-88951516D02*
G75*
G03*
X102393307Y-88849000I-247490J-247484D01*
G01*
X120454611Y-106849007D02*
G75*
G03*
X120808163Y-106702553I-11J500007D01*
G01*
X109601005Y-96056693D02*
G75*
G03*
X109498487Y-95809205I-350005J-7D01*
G01*
X128795950Y-90442918D02*
G75*
G03*
X128689868Y-90399000I-106050J-106082D01*
G01*
X109600993Y-98704611D02*
G75*
G03*
X109747447Y-99058163I500007J11D01*
G01*
X127501516Y-90909210D02*
G75*
G03*
X127399000Y-91156693I247484J-247490D01*
G01*
X88641841Y-88702547D02*
G75*
G03*
X88995389Y-88849000I353559J353547D01*
G01*
X117391841Y-106702547D02*
G75*
G03*
X117745389Y-106849000I353559J353547D01*
G01*
X127252547Y-100258159D02*
G75*
G03*
X127399000Y-99904611I-353547J353559D01*
G01*
%TO.N,PCIE0_TX2_P*%
X116111945Y-104359525D02*
X115932515Y-104538954D01*
X88809206Y-88448488D02*
X85751824Y-85391106D01*
X127741836Y-90247446D02*
X127247447Y-90741835D01*
X128900000Y-89953000D02*
X128795934Y-90057066D01*
X117559206Y-106448488D02*
X116215359Y-105104641D01*
X85707890Y-85285040D02*
X85707890Y-85142110D01*
X116215359Y-104821798D02*
X116394788Y-104642368D01*
X128689868Y-90101000D02*
X128095389Y-90101000D01*
X127101000Y-91095389D02*
X127101000Y-99843307D01*
X126998488Y-100090794D02*
X120640795Y-106448487D01*
X120393307Y-106551000D02*
X117806693Y-106551000D01*
X116111945Y-104359524D02*
X116111945Y-104359525D01*
X115649672Y-104538954D02*
X110001513Y-98890795D01*
X116215358Y-104821798D02*
X116215359Y-104821798D01*
X102454611Y-88551000D02*
X89056693Y-88551000D01*
X109752554Y-95641836D02*
X102808165Y-88697447D01*
X109899000Y-98643307D02*
X109899000Y-95995389D01*
X116394789Y-104359525D02*
X116394788Y-104359525D01*
X115649672Y-104538955D02*
X115649672Y-104538954D01*
X109898995Y-98643307D02*
G75*
G03*
X110001513Y-98890795I350005J7D01*
G01*
X115649679Y-104538948D02*
G75*
G03*
X115932515Y-104538954I141421J141448D01*
G01*
X128689868Y-90100977D02*
G75*
G03*
X128795934Y-90057066I32J149977D01*
G01*
X109899007Y-95995389D02*
G75*
G03*
X109752553Y-95641837I-500007J-11D01*
G01*
X126998484Y-100090790D02*
G75*
G03*
X127101000Y-99843307I-247484J247490D01*
G01*
X116394742Y-104642322D02*
G75*
G03*
X116394789Y-104359525I-141342J141422D01*
G01*
X120393307Y-106551005D02*
G75*
G03*
X120640795Y-106448487I-7J350005D01*
G01*
X116215340Y-104821780D02*
G75*
G03*
X116215360Y-105104640I141460J-141420D01*
G01*
X128095389Y-90100993D02*
G75*
G03*
X127741837Y-90247447I11J-500007D01*
G01*
X116394821Y-104359492D02*
G75*
G03*
X116111946Y-104359525I-141421J-141408D01*
G01*
X85707865Y-85285040D02*
G75*
G03*
X85751824Y-85391106I150035J40D01*
G01*
X127247453Y-90741841D02*
G75*
G03*
X127101000Y-91095389I353547J-353559D01*
G01*
X88809210Y-88448484D02*
G75*
G03*
X89056693Y-88551000I247490J247484D01*
G01*
X117559210Y-106448484D02*
G75*
G03*
X117806693Y-106551000I247490J247484D01*
G01*
X102808159Y-88697453D02*
G75*
G03*
X102454611Y-88551000I-353559J-353547D01*
G01*
%TO.N,PCIE0_TX3_N*%
X90556000Y-93076000D02*
X90556000Y-93070363D01*
X128400000Y-93547000D02*
X128504066Y-93442934D01*
X129895325Y-94206043D02*
X129895324Y-94206042D01*
X82842934Y-87201066D02*
X82944000Y-87100000D01*
X129489910Y-94328615D02*
X129612482Y-94206042D01*
X90006000Y-93070363D02*
X90006000Y-93076000D01*
X106049000Y-99093307D02*
X106049000Y-97245389D01*
X88359206Y-93248488D02*
X82901513Y-87790795D01*
X129329640Y-93923202D02*
X129329641Y-93923201D01*
X129207069Y-94328616D02*
X129207068Y-94328615D01*
X102154611Y-93351000D02*
X90831000Y-93351000D01*
X129489911Y-94328614D02*
X129489910Y-94328615D01*
X105902554Y-96891836D02*
X102508165Y-93497447D01*
X89731000Y-93351000D02*
X88606693Y-93351000D01*
X130701000Y-95156693D02*
X130701000Y-100443307D01*
X121843307Y-109301000D02*
X116256693Y-109301000D01*
X82799000Y-87543307D02*
X82799000Y-87307132D01*
X129329641Y-93923201D02*
X129207068Y-94045773D01*
X128610132Y-93399000D02*
X128943307Y-93399000D01*
X129190794Y-93501512D02*
X129329641Y-93640359D01*
X130598488Y-100690794D02*
X122090795Y-109198487D01*
X116009206Y-109198488D02*
X106151513Y-99340795D01*
X129895324Y-94206042D02*
X130598487Y-94909205D01*
X130701005Y-95156693D02*
G75*
G03*
X130598487Y-94909205I-350005J-7D01*
G01*
X106048995Y-99093307D02*
G75*
G03*
X106151513Y-99340795I350005J7D01*
G01*
X129329659Y-93923221D02*
G75*
G03*
X129329640Y-93640360I-141459J141421D01*
G01*
X89731000Y-93351000D02*
G75*
G03*
X90006000Y-93076000I0J275000D01*
G01*
X128610132Y-93399023D02*
G75*
G03*
X128504066Y-93442934I-32J-149977D01*
G01*
X121843307Y-109301005D02*
G75*
G03*
X122090795Y-109198487I-7J350005D01*
G01*
X129190790Y-93501516D02*
G75*
G03*
X128943307Y-93399000I-247490J-247484D01*
G01*
X90556037Y-93070363D02*
G75*
G03*
X90281000Y-92795363I-275037J-37D01*
G01*
X90556000Y-93076000D02*
G75*
G03*
X90831000Y-93351000I275000J0D01*
G01*
X129895322Y-94206046D02*
G75*
G03*
X129612482Y-94206042I-141422J-141454D01*
G01*
X82842918Y-87201050D02*
G75*
G03*
X82799000Y-87307132I106082J-106050D01*
G01*
X106049007Y-97245389D02*
G75*
G03*
X105902553Y-96891837I-500007J-11D01*
G01*
X88359210Y-93248484D02*
G75*
G03*
X88606693Y-93351000I247490J247484D01*
G01*
X102508159Y-93497453D02*
G75*
G03*
X102154611Y-93351000I-353559J-353547D01*
G01*
X82798995Y-87543307D02*
G75*
G03*
X82901513Y-87790795I350005J7D01*
G01*
X116009210Y-109198484D02*
G75*
G03*
X116256693Y-109301000I247490J247484D01*
G01*
X130598484Y-100690790D02*
G75*
G03*
X130701000Y-100443307I-247484J247490D01*
G01*
X129207074Y-94045779D02*
G75*
G03*
X129207069Y-94328616I141426J-141421D01*
G01*
X90281000Y-92795400D02*
G75*
G03*
X90006000Y-93070363I0J-275000D01*
G01*
X129207079Y-94328604D02*
G75*
G03*
X129489911Y-94328614I141421J141404D01*
G01*
%TO.N,PCIE0_TX3_P*%
X105751000Y-99154611D02*
X105751000Y-97306693D01*
X130852553Y-100858165D02*
X122258164Y-109452554D01*
X115841835Y-109452553D02*
X105897446Y-99508164D01*
X82457066Y-87201066D02*
X82356000Y-87100000D01*
X121904611Y-109599000D02*
X116195389Y-109599000D01*
X102093307Y-93649000D02*
X88545389Y-93649000D01*
X88191835Y-93502553D02*
X82647446Y-87958164D01*
X128610132Y-93101000D02*
X129004611Y-93101000D01*
X128400000Y-92953000D02*
X128504066Y-93057066D01*
X82501000Y-87604611D02*
X82501000Y-87307132D01*
X129358165Y-93247447D02*
X130852554Y-94741836D01*
X105648487Y-97059205D02*
X102340794Y-93751512D01*
X130999000Y-95095389D02*
X130999000Y-100504611D01*
X88191841Y-93502547D02*
G75*
G03*
X88545389Y-93649000I353559J353547D01*
G01*
X105750993Y-99154611D02*
G75*
G03*
X105897447Y-99508163I500007J11D01*
G01*
X130999007Y-95095389D02*
G75*
G03*
X130852553Y-94741837I-500007J-11D01*
G01*
X129358159Y-93247453D02*
G75*
G03*
X129004611Y-93101000I-353559J-353547D01*
G01*
X82500977Y-87307132D02*
G75*
G03*
X82457066Y-87201066I-149977J32D01*
G01*
X105751005Y-97306693D02*
G75*
G03*
X105648487Y-97059205I-350005J-7D01*
G01*
X128504050Y-93057082D02*
G75*
G03*
X128610132Y-93101000I106050J106082D01*
G01*
X115841841Y-109452547D02*
G75*
G03*
X116195389Y-109599000I353559J353547D01*
G01*
X82500993Y-87604611D02*
G75*
G03*
X82647447Y-87958163I500007J11D01*
G01*
X121904611Y-109599007D02*
G75*
G03*
X122258163Y-109452553I-11J500007D01*
G01*
X102340790Y-93751516D02*
G75*
G03*
X102093307Y-93649000I-247490J-247484D01*
G01*
X130852547Y-100858159D02*
G75*
G03*
X130999000Y-100504611I-353547J353559D01*
G01*
%TO.N,USBSS0_TX_P*%
X84355000Y-99160718D02*
X84355000Y-99350000D01*
X75411718Y-77699000D02*
X75099000Y-78011718D01*
X75099000Y-82488282D02*
X85849000Y-93238282D01*
X75099000Y-79179000D02*
X75099000Y-82488282D01*
X75099000Y-78011718D02*
X75099000Y-78379000D01*
X85849000Y-97666718D02*
X84355000Y-99160718D01*
X85849000Y-93238282D02*
X85849000Y-97666718D01*
X75300518Y-78979000D02*
X75299000Y-78979000D01*
X75299000Y-78579000D02*
X75300518Y-78579000D01*
X76250000Y-77847000D02*
X76102000Y-77699000D01*
X76102000Y-77699000D02*
X75411718Y-77699000D01*
X75500500Y-78779000D02*
G75*
G03*
X75300518Y-78579000I-200000J0D01*
G01*
X75099000Y-78379000D02*
G75*
G03*
X75299000Y-78579000I200000J0D01*
G01*
X75300518Y-78979018D02*
G75*
G03*
X75500518Y-78779000I-18J200018D01*
G01*
X75299000Y-78979000D02*
G75*
G03*
X75099000Y-79179000I0J-200000D01*
G01*
%TO.N,PCIE1_TX0_N*%
X121293307Y-107851000D02*
X117106693Y-107851000D01*
X116859205Y-107748487D02*
X108501512Y-99390794D01*
X128597172Y-96107890D02*
X129198488Y-96709206D01*
X102754611Y-90851000D02*
X95909000Y-90851000D01*
X129301000Y-98929000D02*
X129301000Y-99843307D01*
X129301000Y-96956693D02*
X129301000Y-98079000D01*
X108399000Y-99143307D02*
X108399000Y-96495389D01*
X108252553Y-96141835D02*
X103108164Y-90997446D01*
X94909000Y-90851000D02*
X89156693Y-90851000D01*
X88909205Y-90748487D02*
X82876824Y-84716106D01*
X128597172Y-96107890D02*
X128392110Y-96107890D01*
X129198487Y-100090795D02*
X121540794Y-107748488D01*
X129301000Y-98879000D02*
X129301000Y-98929000D01*
X129101000Y-98279000D02*
X128891807Y-98279000D01*
X82832890Y-84610040D02*
X82832890Y-84467110D01*
X128891807Y-98679000D02*
X129101000Y-98679000D01*
X95659000Y-90601000D02*
G75*
G03*
X95909000Y-90851000I250000J0D01*
G01*
X108399007Y-96495389D02*
G75*
G03*
X108252552Y-96141836I-500007J-11D01*
G01*
X129198483Y-100090791D02*
G75*
G03*
X129301000Y-99843307I-247483J247491D01*
G01*
X82832865Y-84610040D02*
G75*
G03*
X82876824Y-84716106I150035J40D01*
G01*
X121293307Y-107851005D02*
G75*
G03*
X121540794Y-107748488I-7J350005D01*
G01*
X103108158Y-90997452D02*
G75*
G03*
X102754611Y-90851000I-353558J-353548D01*
G01*
X129101000Y-98279000D02*
G75*
G03*
X129301000Y-98079000I0J200000D01*
G01*
X88909209Y-90748483D02*
G75*
G03*
X89156693Y-90851000I247491J247483D01*
G01*
X129301005Y-96956693D02*
G75*
G03*
X129198488Y-96709206I-350005J-7D01*
G01*
X95659000Y-90601000D02*
G75*
G03*
X95409000Y-90351000I-250000J0D01*
G01*
X128691800Y-98479000D02*
G75*
G03*
X128891807Y-98679000I200000J0D01*
G01*
X128891807Y-98279007D02*
G75*
G03*
X128691807Y-98479000I-7J-199993D01*
G01*
X129301000Y-98879000D02*
G75*
G03*
X129101000Y-98679000I-200000J0D01*
G01*
X108398995Y-99143307D02*
G75*
G03*
X108501512Y-99390794I350005J7D01*
G01*
X94909000Y-90851000D02*
G75*
G03*
X95159000Y-90601000I0J250000D01*
G01*
X95409000Y-90351000D02*
G75*
G03*
X95159000Y-90601000I0J-250000D01*
G01*
X116859209Y-107748483D02*
G75*
G03*
X117106693Y-107851000I247491J247483D01*
G01*
%TO.N,PCIE1_TX0_P*%
X129599000Y-99904611D02*
X129599000Y-96895389D01*
X82560040Y-84882890D02*
X82417110Y-84882890D01*
X128807890Y-95897172D02*
X129452554Y-96541836D01*
X88741835Y-91002553D02*
X82666106Y-84926824D01*
X129452553Y-100258165D02*
X121708164Y-108002554D01*
X121354611Y-108149000D02*
X117045389Y-108149000D01*
X116691835Y-108002553D02*
X108247446Y-99558164D01*
X107998487Y-96309205D02*
X102940794Y-91251512D01*
X102693307Y-91149000D02*
X89095389Y-91149000D01*
X108101000Y-99204611D02*
X108101000Y-96556693D01*
X128807890Y-95897172D02*
X128807890Y-95692110D01*
X129599007Y-96895389D02*
G75*
G03*
X129452553Y-96541837I-500007J-11D01*
G01*
X108101005Y-96556693D02*
G75*
G03*
X107998487Y-96309205I-350005J-7D01*
G01*
X102940790Y-91251516D02*
G75*
G03*
X102693307Y-91149000I-247490J-247484D01*
G01*
X108100993Y-99204611D02*
G75*
G03*
X108247447Y-99558163I500007J11D01*
G01*
X121354611Y-108149007D02*
G75*
G03*
X121708163Y-108002553I-11J500007D01*
G01*
X88741841Y-91002547D02*
G75*
G03*
X89095389Y-91149000I353559J353547D01*
G01*
X116691841Y-108002547D02*
G75*
G03*
X117045389Y-108149000I353559J353547D01*
G01*
X129452547Y-100258159D02*
G75*
G03*
X129599000Y-99904611I-353547J353559D01*
G01*
X82666088Y-84926842D02*
G75*
G03*
X82560040Y-84882890I-106088J-106058D01*
G01*
D14*
%TO.N,UART1_TXD*%
X136210000Y-102810000D02*
X137070000Y-101950000D01*
X77800000Y-104000000D02*
X84500000Y-104000000D01*
X101250000Y-104150000D02*
X106150000Y-109050000D01*
X137070000Y-101950000D02*
X137070000Y-100450000D01*
X73040000Y-91947108D02*
X73040000Y-99240000D01*
X146675000Y-101400000D02*
X147075000Y-101800000D01*
X73140000Y-71580000D02*
X69720000Y-71580000D01*
X85700000Y-105200000D02*
X89600000Y-105200000D01*
X73600000Y-71120000D02*
X73140000Y-71580000D01*
X146675000Y-100625000D02*
X146675000Y-101400000D01*
X90650000Y-104150000D02*
X101250000Y-104150000D01*
X106150000Y-111100000D02*
X108300000Y-113250000D01*
X145975000Y-99925000D02*
X146675000Y-100625000D01*
X73600000Y-69450000D02*
X73600000Y-71120000D01*
X106150000Y-109050000D02*
X106150000Y-111100000D01*
X147075000Y-101800000D02*
X148150000Y-101800000D01*
X137595000Y-99925000D02*
X145975000Y-99925000D01*
X125170000Y-113250000D02*
X135610000Y-102810000D01*
X73040000Y-99240000D02*
X77800000Y-104000000D01*
X137070000Y-100450000D02*
X137595000Y-99925000D01*
X108300000Y-113250000D02*
X125170000Y-113250000D01*
X135610000Y-102810000D02*
X136210000Y-102810000D01*
X69720000Y-71580000D02*
X68387500Y-72912500D01*
X68387500Y-87294608D02*
X73040000Y-91947108D01*
X148150000Y-101800000D02*
X148450000Y-101500000D01*
X89600000Y-105200000D02*
X90650000Y-104150000D01*
X84500000Y-104000000D02*
X85700000Y-105200000D01*
X68387500Y-72912500D02*
X68387500Y-87294608D01*
%TO.N,UART1_RXD*%
X72760000Y-71300000D02*
X69650000Y-71300000D01*
X101150000Y-104450000D02*
X105855000Y-109155000D01*
X68100000Y-72790000D02*
X68100000Y-87400000D01*
X89703554Y-105450000D02*
X90703554Y-104450000D01*
X84400000Y-104300000D02*
X85550000Y-105450000D01*
X69600000Y-71290000D02*
X68100000Y-72790000D01*
X135730000Y-103110000D02*
X136590000Y-103110000D01*
X90703554Y-104450000D02*
X101150000Y-104450000D01*
X85550000Y-105450000D02*
X89703554Y-105450000D01*
X72760000Y-92060000D02*
X72760000Y-99360000D01*
X69650000Y-71300000D02*
X69640000Y-71290000D01*
X105855000Y-109155000D02*
X105855000Y-111205000D01*
X69640000Y-71290000D02*
X69600000Y-71290000D01*
X108200000Y-113550000D02*
X125290000Y-113550000D01*
X125290000Y-113550000D02*
X135730000Y-103110000D01*
X136590000Y-103110000D02*
X137090000Y-102610000D01*
X73100000Y-70960000D02*
X72760000Y-71300000D01*
X73100000Y-69800000D02*
X73100000Y-70960000D01*
X72760000Y-99360000D02*
X77700000Y-104300000D01*
X77700000Y-104300000D02*
X84400000Y-104300000D01*
X68100000Y-87400000D02*
X72760000Y-92060000D01*
X105855000Y-111205000D02*
X108200000Y-113550000D01*
D12*
%TO.N,FAN_TACH*%
X57200000Y-102527000D02*
X57200000Y-101450000D01*
X62900000Y-77000000D02*
X63246800Y-77346800D01*
X61200000Y-77000000D02*
X62900000Y-77000000D01*
X58700000Y-99950000D02*
X58700000Y-92300000D01*
X58700000Y-92300000D02*
X60900000Y-90100000D01*
X63246800Y-77346800D02*
X63246800Y-78246800D01*
X60900000Y-90100000D02*
X60900000Y-77300000D01*
X57200000Y-101450000D02*
X58700000Y-99950000D01*
X60900000Y-77300000D02*
X61200000Y-77000000D01*
D14*
%TO.N,I2S1_SDOUT*%
X66257500Y-82049417D02*
X66257500Y-78230500D01*
X85650000Y-107550000D02*
X83700000Y-105600000D01*
X74500000Y-103100000D02*
X71275000Y-99875000D01*
X90450688Y-107399312D02*
X90300000Y-107550000D01*
X71275000Y-99875000D02*
X71275000Y-92575000D01*
X66257500Y-78230500D02*
X66288000Y-78200000D01*
X66800000Y-82591918D02*
X66257500Y-82049417D01*
X92100688Y-107399312D02*
X90450688Y-107399312D01*
X90300000Y-107550000D02*
X85650000Y-107550000D01*
X75500000Y-105600000D02*
X74500000Y-104600000D01*
X66800000Y-88100000D02*
X66800000Y-82591918D01*
X71275000Y-92575000D02*
X66800000Y-88100000D01*
X74500000Y-104600000D02*
X74500000Y-103100000D01*
X83700000Y-105600000D02*
X75500000Y-105600000D01*
%TO.N,I2S1_SDIN*%
X66700000Y-78500000D02*
X66700000Y-77449500D01*
X67082500Y-87982500D02*
X67082500Y-82520864D01*
X66700000Y-77449500D02*
X66550500Y-77300000D01*
X66507500Y-81945864D02*
X66507500Y-78692500D01*
X71550000Y-92450000D02*
X67082500Y-87982500D01*
X90400167Y-106949833D02*
X90050000Y-107300000D01*
X91664500Y-106949833D02*
X90400167Y-106949833D01*
X71550000Y-99750000D02*
X71550000Y-92450000D01*
X75400000Y-103600000D02*
X71550000Y-99750000D01*
X76150000Y-105350000D02*
X75400000Y-104600000D01*
X85800000Y-107300000D02*
X83850000Y-105350000D01*
X75400000Y-104600000D02*
X75400000Y-103600000D01*
X90050000Y-107300000D02*
X85800000Y-107300000D01*
X67082500Y-82520864D02*
X66507500Y-81945864D01*
X66507500Y-78692500D02*
X66700000Y-78500000D01*
X83850000Y-105350000D02*
X76150000Y-105350000D01*
%TO.N,I2S1_LRCK*%
X66962500Y-78437500D02*
X66962500Y-77037834D01*
X67332500Y-78807500D02*
X66962500Y-78437500D01*
X71870000Y-92370000D02*
X67332500Y-87832500D01*
X84000000Y-105100000D02*
X76300000Y-105100000D01*
X89900000Y-107050000D02*
X85950000Y-107050000D01*
X75700000Y-103500000D02*
X71870000Y-99670000D01*
X71870000Y-99670000D02*
X71870000Y-92370000D01*
X76300000Y-105100000D02*
X75700000Y-104500000D01*
X92150000Y-106537833D02*
X90412167Y-106537833D01*
X66962500Y-77037834D02*
X67137917Y-76862417D01*
X90412167Y-106537833D02*
X89900000Y-107050000D01*
X67332500Y-87832500D02*
X67332500Y-78807500D01*
X85950000Y-107050000D02*
X84000000Y-105100000D01*
X75700000Y-104500000D02*
X75700000Y-103500000D01*
%TO.N,I2S1_SCLK*%
X67600000Y-87700000D02*
X67600000Y-78200911D01*
X91664500Y-106101467D02*
X90448533Y-106101467D01*
X72150000Y-99550000D02*
X72150000Y-92250000D01*
X90448533Y-106101467D02*
X89750000Y-106800000D01*
X84150000Y-104850000D02*
X77450000Y-104850000D01*
X86100000Y-106800000D02*
X84150000Y-104850000D01*
X77450000Y-104850000D02*
X72150000Y-99550000D01*
X67600000Y-78200911D02*
X67421691Y-78022602D01*
X89750000Y-106800000D02*
X86100000Y-106800000D01*
X72150000Y-92250000D02*
X67600000Y-87700000D01*
D11*
%TO.N,PCIE3_CLK_N*%
X81892619Y-99911976D02*
X81866754Y-99937838D01*
X107801512Y-103890794D02*
X111059205Y-107148487D01*
X147712546Y-90001000D02*
X147936868Y-90001000D01*
X71997000Y-77225000D02*
X71917934Y-77304066D01*
X82606693Y-100851000D02*
X87743307Y-100851000D01*
X107699000Y-103345389D02*
X107699000Y-103643307D01*
X71874000Y-77410132D02*
X71874000Y-86618307D01*
X147388868Y-90200414D02*
X147500414Y-90088868D01*
X101028164Y-95267446D02*
X103852553Y-98091835D01*
X93825389Y-95121000D02*
X100674611Y-95121000D01*
X87990794Y-100748488D02*
X93471835Y-95267447D01*
X112108164Y-107397446D02*
X115359205Y-110648487D01*
X73006693Y-87751000D02*
X74454611Y-87751000D01*
X123315794Y-110648488D02*
X135716835Y-98247447D01*
X81866754Y-100256036D02*
X81866755Y-100256037D01*
X81548557Y-99619641D02*
X81574421Y-99593778D01*
X81866755Y-100256037D02*
X82359205Y-100748487D01*
X143690794Y-97998488D02*
X147398487Y-94290795D01*
X111306693Y-107251000D02*
X111754611Y-107251000D01*
X81892618Y-99911977D02*
X81892619Y-99911976D01*
X74808164Y-87897446D02*
X75927553Y-89016835D01*
X147457066Y-91167784D02*
X147388868Y-91099586D01*
X147501000Y-94043307D02*
X147501000Y-91273850D01*
X77406693Y-98251000D02*
X79654611Y-98251000D01*
X115606693Y-110751000D02*
X123068307Y-110751000D01*
X71976512Y-86865794D02*
X72759205Y-87648487D01*
X80008164Y-98397446D02*
X81230359Y-99619641D01*
X81548558Y-99619640D02*
X81548557Y-99619641D01*
X136070389Y-98101000D02*
X143443307Y-98101000D01*
X147301000Y-90887454D02*
X147301000Y-90412546D01*
X104101512Y-99540794D02*
X107552553Y-102991835D01*
X148042934Y-89957066D02*
X148170000Y-89830000D01*
X103999000Y-98445389D02*
X103999000Y-99293307D01*
X76074000Y-89370389D02*
X76074000Y-96918307D01*
X76176512Y-97165794D02*
X77159205Y-98148487D01*
X101028158Y-95267452D02*
G75*
G03*
X100674611Y-95121000I-353558J-353548D01*
G01*
X107698995Y-103643307D02*
G75*
G03*
X107801512Y-103890794I350005J7D01*
G01*
X147712546Y-90001033D02*
G75*
G03*
X147500414Y-90088868I-46J-299967D01*
G01*
X147936868Y-90000977D02*
G75*
G03*
X148042934Y-89957066I32J149977D01*
G01*
X147500964Y-91273850D02*
G75*
G03*
X147457066Y-91167784I-149964J50D01*
G01*
X147388845Y-90200391D02*
G75*
G03*
X147301000Y-90412546I212155J-212109D01*
G01*
X81866717Y-99937801D02*
G75*
G03*
X81866754Y-100256036I159183J-159099D01*
G01*
X103998995Y-99293307D02*
G75*
G03*
X104101512Y-99540794I350005J7D01*
G01*
X74808158Y-87897452D02*
G75*
G03*
X74454611Y-87751000I-353558J-353548D01*
G01*
X71917918Y-77304050D02*
G75*
G03*
X71874000Y-77410132I106082J-106050D01*
G01*
X111059209Y-107148483D02*
G75*
G03*
X111306693Y-107251000I247491J247483D01*
G01*
X123068307Y-110751005D02*
G75*
G03*
X123315794Y-110648488I-7J350005D01*
G01*
X136070389Y-98100993D02*
G75*
G03*
X135716836Y-98247448I11J-500007D01*
G01*
X93825389Y-95120993D02*
G75*
G03*
X93471836Y-95267448I11J-500007D01*
G01*
X143443307Y-98101005D02*
G75*
G03*
X143690794Y-97998488I-7J350005D01*
G01*
X81892618Y-99593779D02*
G75*
G03*
X81574422Y-99593779I-159098J-159098D01*
G01*
X80008158Y-98397452D02*
G75*
G03*
X79654611Y-98251000I-353558J-353548D01*
G01*
X81892641Y-99912000D02*
G75*
G03*
X81892619Y-99593778I-159141J159100D01*
G01*
X115359209Y-110648483D02*
G75*
G03*
X115606693Y-110751000I247491J247483D01*
G01*
X77159209Y-98148483D02*
G75*
G03*
X77406693Y-98251000I247491J247483D01*
G01*
X71873995Y-86618307D02*
G75*
G03*
X71976512Y-86865794I350005J7D01*
G01*
X103999007Y-98445389D02*
G75*
G03*
X103852552Y-98091836I-500007J-11D01*
G01*
X112108158Y-107397452D02*
G75*
G03*
X111754611Y-107251000I-353558J-353548D01*
G01*
X107699007Y-103345389D02*
G75*
G03*
X107552552Y-102991836I-500007J-11D01*
G01*
X76074007Y-89370389D02*
G75*
G03*
X75927552Y-89016836I-500007J-11D01*
G01*
X72759209Y-87648483D02*
G75*
G03*
X73006693Y-87751000I247491J247483D01*
G01*
X147398483Y-94290791D02*
G75*
G03*
X147501000Y-94043307I-247483J247491D01*
G01*
X82359209Y-100748483D02*
G75*
G03*
X82606693Y-100851000I247491J247483D01*
G01*
X147301033Y-90887454D02*
G75*
G03*
X147388868Y-91099586I299967J-46D01*
G01*
X76073995Y-96918307D02*
G75*
G03*
X76176512Y-97165794I350005J7D01*
G01*
X87743307Y-100851005D02*
G75*
G03*
X87990794Y-100748488I-7J350005D01*
G01*
X81230402Y-99619598D02*
G75*
G03*
X81548557Y-99619639I159098J159098D01*
G01*
%TO.N,PCIE3_CLK_P*%
X147667784Y-90342934D02*
X147642934Y-90367784D01*
X147642934Y-90932216D02*
X147711132Y-91000414D01*
X135884205Y-98501513D02*
X123483164Y-110902554D01*
X71576000Y-86679611D02*
X71576000Y-77448132D01*
X71532066Y-77342066D02*
X71420000Y-77230000D01*
X115191835Y-110902553D02*
X111940794Y-107651512D01*
X82191835Y-101002553D02*
X79840794Y-98651512D01*
X110891835Y-107402553D02*
X107547446Y-104058164D01*
X76991835Y-98402553D02*
X75922446Y-97333164D01*
X75673487Y-89184205D02*
X74640794Y-88151512D01*
X72591835Y-87902553D02*
X71722446Y-87033164D01*
X103598487Y-98259205D02*
X100860794Y-95521512D01*
X79593307Y-98549000D02*
X77345389Y-98549000D01*
X148170000Y-90430000D02*
X148082934Y-90342934D01*
X103701000Y-99354611D02*
X103701000Y-98506693D01*
X75776000Y-96979611D02*
X75776000Y-89431693D01*
X143504611Y-98399000D02*
X136131693Y-98399000D01*
X147799000Y-91212546D02*
X147799000Y-94104611D01*
X87804611Y-101149000D02*
X82545389Y-101149000D01*
X123129611Y-111049000D02*
X115545389Y-111049000D01*
X93639205Y-95521513D02*
X88158164Y-101002554D01*
X100613307Y-95419000D02*
X93886693Y-95419000D01*
X107401000Y-103704611D02*
X107401000Y-103406693D01*
X147652553Y-94458165D02*
X143858164Y-98252554D01*
X111693307Y-107549000D02*
X111245389Y-107549000D01*
X147599000Y-90473850D02*
X147599000Y-90826150D01*
X107298487Y-103159205D02*
X103847446Y-99708164D01*
X147976868Y-90299000D02*
X147773850Y-90299000D01*
X74393307Y-88049000D02*
X72945389Y-88049000D01*
X107401005Y-103406693D02*
G75*
G03*
X107298487Y-103159205I-350005J-7D01*
G01*
X74640790Y-88151516D02*
G75*
G03*
X74393307Y-88049000I-247490J-247484D01*
G01*
X103701005Y-98506693D02*
G75*
G03*
X103598487Y-98259205I-350005J-7D01*
G01*
X147652547Y-94458159D02*
G75*
G03*
X147799000Y-94104611I-353547J353559D01*
G01*
X103700993Y-99354611D02*
G75*
G03*
X103847447Y-99708163I500007J11D01*
G01*
X148082950Y-90342918D02*
G75*
G03*
X147976868Y-90299000I-106050J-106082D01*
G01*
X71575993Y-86679611D02*
G75*
G03*
X71722447Y-87033163I500007J11D01*
G01*
X147642909Y-90367759D02*
G75*
G03*
X147599000Y-90473850I106091J-106041D01*
G01*
X76991841Y-98402547D02*
G75*
G03*
X77345389Y-98549000I353559J353547D01*
G01*
X111940790Y-107651516D02*
G75*
G03*
X111693307Y-107549000I-247490J-247484D01*
G01*
X71575977Y-77448132D02*
G75*
G03*
X71532066Y-77342066I-149977J32D01*
G01*
X87804611Y-101149007D02*
G75*
G03*
X88158163Y-101002553I-11J500007D01*
G01*
X75775993Y-96979611D02*
G75*
G03*
X75922447Y-97333163I500007J11D01*
G01*
X100860790Y-95521516D02*
G75*
G03*
X100613307Y-95419000I-247490J-247484D01*
G01*
X115191841Y-110902547D02*
G75*
G03*
X115545389Y-111049000I353559J353547D01*
G01*
X93886693Y-95418995D02*
G75*
G03*
X93639205Y-95521513I7J-350005D01*
G01*
X79840790Y-98651516D02*
G75*
G03*
X79593307Y-98549000I-247490J-247484D01*
G01*
X107400993Y-103704611D02*
G75*
G03*
X107547447Y-104058163I500007J11D01*
G01*
X82191841Y-101002547D02*
G75*
G03*
X82545389Y-101149000I353559J353547D01*
G01*
X72591841Y-87902547D02*
G75*
G03*
X72945389Y-88049000I353559J353547D01*
G01*
X110891841Y-107402547D02*
G75*
G03*
X111245389Y-107549000I353559J353547D01*
G01*
X147798967Y-91212546D02*
G75*
G03*
X147711132Y-91000414I-299967J46D01*
G01*
X147599036Y-90826150D02*
G75*
G03*
X147642934Y-90932216I149964J-50D01*
G01*
X136131693Y-98398995D02*
G75*
G03*
X135884205Y-98501513I7J-350005D01*
G01*
X143504611Y-98399007D02*
G75*
G03*
X143858163Y-98252553I-11J500007D01*
G01*
X123129611Y-111049007D02*
G75*
G03*
X123483163Y-110902553I-11J500007D01*
G01*
X147773850Y-90299036D02*
G75*
G03*
X147667784Y-90342934I-50J-149964D01*
G01*
X75776005Y-89431693D02*
G75*
G03*
X75673487Y-89184205I-350005J-7D01*
G01*
D12*
%TO.N,FAN_PWM*%
X65300167Y-77000167D02*
X65000000Y-76700000D01*
X65300167Y-78100000D02*
X65300167Y-77000167D01*
X65000000Y-76700000D02*
X60900000Y-76700000D01*
X60600000Y-89900000D02*
X58350000Y-92150000D01*
X56770500Y-101340591D02*
X56770500Y-103000000D01*
X60600000Y-77000000D02*
X60600000Y-89900000D01*
X58350000Y-99761091D02*
X56770500Y-101340591D01*
X60900000Y-76700000D02*
X60600000Y-77000000D01*
X58350000Y-92150000D02*
X58350000Y-99761091D01*
%TO.N,DEBUG_TXD*%
X58182790Y-108400000D02*
X56700000Y-108400000D01*
X54600000Y-106300000D02*
X54600000Y-103050000D01*
X56300000Y-85200000D02*
X56500000Y-85000000D01*
X58050000Y-99600000D02*
X58050000Y-89350000D01*
X54600000Y-103050000D02*
X58050000Y-99600000D01*
X56300000Y-87600000D02*
X56300000Y-85200000D01*
X58050000Y-89350000D02*
X56300000Y-87600000D01*
X56700000Y-108400000D02*
X54600000Y-106300000D01*
X58282600Y-108300190D02*
X58182790Y-108400000D01*
%TO.N,DEBUG_RXD*%
X57750000Y-99450000D02*
X54300000Y-102900000D01*
X54300000Y-106400000D02*
X56700000Y-108800000D01*
X57750000Y-89500000D02*
X57750000Y-99450000D01*
X57963049Y-108800000D02*
X58028373Y-108865324D01*
X56475000Y-84375000D02*
X56000000Y-84850000D01*
X56700000Y-108800000D02*
X57963049Y-108800000D01*
X54300000Y-102900000D02*
X54300000Y-106400000D01*
X56000000Y-87750000D02*
X57750000Y-89500000D01*
X56000000Y-84850000D02*
X56000000Y-87750000D01*
D14*
%TO.N,USBC1_FLG*%
X91412000Y-113500000D02*
X91925000Y-113500000D01*
X93438000Y-119688000D02*
X104500500Y-119688000D01*
X93150000Y-119400000D02*
X93438000Y-119688000D01*
X91925000Y-113500000D02*
X93150000Y-114725000D01*
X93150000Y-114725000D02*
X93150000Y-119400000D01*
D11*
%TO.N,/USB Debug\u002C DP/USBC0_SBU_P*%
X71111718Y-111526000D02*
X69538282Y-111526000D01*
X73686718Y-115251000D02*
X71949000Y-113513282D01*
X69538282Y-111526000D02*
X69101000Y-111963282D01*
X74884920Y-121000000D02*
X77400000Y-121000000D01*
X78300000Y-118110718D02*
X79149000Y-117261718D01*
X78300000Y-120100000D02*
X78300000Y-118110718D01*
X71949000Y-113513282D02*
X71949000Y-112363282D01*
X79149000Y-117261718D02*
X79149000Y-116338282D01*
X73949920Y-120065000D02*
X74884920Y-121000000D01*
X69101000Y-112852000D02*
X68953000Y-113000000D01*
X79149000Y-116338282D02*
X78061718Y-115251000D01*
X77400000Y-121000000D02*
X78300000Y-120100000D01*
X78061718Y-115251000D02*
X73686718Y-115251000D01*
X71949000Y-112363282D02*
X71111718Y-111526000D01*
X69101000Y-111963282D02*
X69101000Y-112852000D01*
%TO.N,/USB Debug\u002C DP/USBC0_SBU_N*%
X75500000Y-117200000D02*
X76200000Y-117200000D01*
X78851000Y-117138282D02*
X78851000Y-116461718D01*
X78851000Y-116461718D02*
X77938282Y-115549000D01*
X71651000Y-112486718D02*
X70988282Y-111824000D01*
X69399000Y-112852000D02*
X69547000Y-113000000D01*
X73563282Y-115549000D02*
X71651000Y-113636718D01*
X71651000Y-113636718D02*
X71651000Y-112486718D01*
X69399000Y-112086718D02*
X69399000Y-112852000D01*
X78089282Y-117900000D02*
X78851000Y-117138282D01*
X69661718Y-111824000D02*
X69399000Y-112086718D01*
X70988282Y-111824000D02*
X69661718Y-111824000D01*
X76900000Y-117900000D02*
X78089282Y-117900000D01*
X76200000Y-117200000D02*
X76900000Y-117900000D01*
X77938282Y-115549000D02*
X73563282Y-115549000D01*
D14*
%TO.N,I2C1_SCL*%
X64537758Y-117495036D02*
X64572885Y-117851730D01*
X61460905Y-114418161D02*
X61812438Y-114488086D01*
X63631182Y-115578198D02*
X63858559Y-115855262D01*
X86700000Y-127200000D02*
X87750000Y-126150000D01*
X107500000Y-126900000D02*
X128100000Y-126900000D01*
X63505940Y-115450000D02*
X63631182Y-115578198D01*
X63377735Y-115324764D02*
X63505940Y-115450000D01*
X130600000Y-124400000D02*
X130600000Y-122800000D01*
X106750000Y-126150000D02*
X107500000Y-126900000D01*
X64467837Y-117143503D02*
X64537758Y-117495036D01*
X64226639Y-116469378D02*
X64363797Y-116800516D01*
X63100673Y-115097383D02*
X63377735Y-115324764D01*
X65100000Y-127200000D02*
X86700000Y-127200000D01*
X52780940Y-114380940D02*
X60925000Y-114380940D01*
X54025122Y-74274878D02*
X53700000Y-74600000D01*
X53700000Y-78400000D02*
X51900000Y-80200000D01*
X64572885Y-117851730D02*
X64575000Y-118030940D01*
X51900000Y-80200000D02*
X51900000Y-113500000D01*
X62486561Y-114729293D02*
X62802659Y-114898253D01*
X53700000Y-74600000D02*
X53700000Y-78400000D01*
X54281432Y-74274878D02*
X54025122Y-74274878D01*
X64575000Y-126675000D02*
X65100000Y-127200000D01*
X64363797Y-116800516D02*
X64467837Y-117143503D01*
X130600000Y-122800000D02*
X130300000Y-122500000D01*
X60925000Y-114380940D02*
X61104210Y-114383029D01*
X64575000Y-118030940D02*
X64575000Y-126675000D01*
X128100000Y-126900000D02*
X130600000Y-124400000D01*
X61104210Y-114383029D02*
X61460905Y-114418161D01*
X51900000Y-113500000D02*
X52780940Y-114380940D01*
X63858559Y-115855262D02*
X64057684Y-116153279D01*
X62802659Y-114898253D02*
X63100673Y-115097383D01*
X64057684Y-116153279D02*
X64226639Y-116469378D01*
X62155425Y-114592131D02*
X62486561Y-114729293D01*
X87750000Y-126150000D02*
X106750000Y-126150000D01*
X61812438Y-114488086D02*
X62155425Y-114592131D01*
%TO.N,I2C1_SDA*%
X63159119Y-115550019D02*
X63293807Y-115681192D01*
X51600000Y-113700000D02*
X52600000Y-114700000D01*
X64272512Y-117862008D02*
X64275000Y-118050000D01*
X62546806Y-115115561D02*
X62865162Y-115315596D01*
X64275000Y-126975000D02*
X64800000Y-127500000D01*
X62208056Y-114952427D02*
X62546806Y-115115561D01*
X128200000Y-127200000D02*
X131000000Y-124400000D01*
X60924999Y-114699999D02*
X61112991Y-114702486D01*
X54084069Y-73862378D02*
X53400000Y-74546447D01*
X64230415Y-117488387D02*
X64272512Y-117862008D01*
X62865162Y-115315596D02*
X63159119Y-115550019D01*
X54475500Y-73734147D02*
X54347269Y-73862378D01*
X63859437Y-116428193D02*
X64022571Y-116766944D01*
X64022571Y-116766944D02*
X64146751Y-117121829D01*
X53400000Y-74546447D02*
X53400000Y-78300000D01*
X107400000Y-127200000D02*
X128200000Y-127200000D01*
X61853170Y-114828247D02*
X62208056Y-114952427D01*
X51600000Y-80100000D02*
X51600000Y-113700000D01*
X52600000Y-114700000D02*
X60924999Y-114699999D01*
X106600000Y-126400000D02*
X107400000Y-127200000D01*
X53400000Y-78300000D02*
X51600000Y-80100000D01*
X63424979Y-115815882D02*
X63659401Y-116109838D01*
X61486612Y-114744583D02*
X61853170Y-114828247D01*
X87900000Y-126400000D02*
X106600000Y-126400000D01*
X131000000Y-124400000D02*
X131000000Y-122800000D01*
X64146751Y-117121829D02*
X64230415Y-117488387D01*
X61112991Y-114702486D02*
X61486612Y-114744583D01*
X64275000Y-118050000D02*
X64275000Y-126975000D01*
X63293807Y-115681192D02*
X63424979Y-115815882D01*
X54347269Y-73862378D02*
X54084069Y-73862378D01*
X131000000Y-122800000D02*
X131300000Y-122500000D01*
X86800000Y-127500000D02*
X87900000Y-126400000D01*
X63659401Y-116109838D02*
X63859437Y-116428193D01*
X64800000Y-127500000D02*
X86800000Y-127500000D01*
D12*
%TO.N,USBC_HPD*%
X70900000Y-100200000D02*
X73325000Y-102625000D01*
X63988824Y-97900000D02*
X68800000Y-97900000D01*
X75388000Y-105888000D02*
X74225000Y-104725000D01*
X69350000Y-98450000D02*
X69350000Y-99950000D01*
X69600000Y-100200000D02*
X70900000Y-100200000D01*
X73325000Y-102625000D02*
X73400000Y-102625000D01*
X79400000Y-106200000D02*
X79088000Y-105888000D01*
X73400000Y-102625000D02*
X73387000Y-102625000D01*
X79400000Y-110850000D02*
X79400000Y-106200000D01*
X68800000Y-97900000D02*
X69350000Y-98450000D01*
X74225000Y-103450000D02*
X73400000Y-102625000D01*
X69350000Y-99950000D02*
X69600000Y-100200000D01*
X79088000Y-105888000D02*
X75388000Y-105888000D01*
X74225000Y-104725000D02*
X74225000Y-103450000D01*
X63919412Y-97969412D02*
X63988824Y-97900000D01*
%TD*%
M02*
