G04 #@! TF.GenerationSoftware,KiCad,Pcbnew,7.0.6-7.0.6~ubuntu22.04.1*
G04 #@! TF.CreationDate,2023-07-10T10:53:22+02:00*
G04 #@! TF.ProjectId,gerber_import,67657262-6572-45f6-996d-706f72742e6b,rev?*
G04 #@! TF.SameCoordinates,Original*
G04 #@! TF.FileFunction,Copper,L1,Top*
G04 #@! TF.FilePolarity,Positive*
%FSLAX46Y46*%
G04 Gerber Fmt 4.6, Leading zero omitted, Abs format (unit mm)*
G04 Created by KiCad (PCBNEW 7.0.6-7.0.6~ubuntu22.04.1) date 2023-07-10 10:53:22*
%MOMM*%
%LPD*%
G01*
G04 APERTURE LIST*
G04 #@! TA.AperFunction,Conductor*
%ADD10C,0.160000*%
G04 #@! TD*
G04 #@! TA.AperFunction,Conductor*
%ADD11C,0.100000*%
G04 #@! TD*
G04 APERTURE END LIST*
D10*
X150150000Y-98950000D02*
X149675000Y-98950000D01*
D11*
X143075000Y-109650000D02*
X143075000Y-109400000D01*
D10*
X149625000Y-96200000D02*
X150786284Y-96200000D01*
X149061328Y-94111328D02*
X149561328Y-94111328D01*
X143510000Y-108525000D02*
X143075000Y-108960000D01*
X149861328Y-90210008D02*
X149861328Y-92611328D01*
X150661328Y-93511328D02*
X149061328Y-93511328D01*
D11*
X142375000Y-110350000D02*
X143075000Y-109650000D01*
D10*
X149861328Y-94813672D02*
X149400000Y-95275000D01*
X149650000Y-99975000D02*
X150012240Y-99975000D01*
X149400000Y-95275000D02*
X149400000Y-95975000D01*
X149525000Y-96875000D02*
X149525000Y-98125000D01*
X150161328Y-92911328D02*
X150661328Y-92911328D01*
X149861328Y-94411328D02*
X149861328Y-94813672D01*
X149400000Y-99225000D02*
X149400000Y-99725000D01*
X150786284Y-96650000D02*
X149750000Y-96650000D01*
X146675000Y-108525000D02*
X143510000Y-108525000D01*
D11*
X141675000Y-110370000D02*
X141695000Y-110350000D01*
X141695000Y-110350000D02*
X142375000Y-110350000D01*
D10*
X143075000Y-108960000D02*
X143075000Y-109400000D01*
X149137760Y-100475000D02*
X150012240Y-100475000D01*
X149800000Y-98400000D02*
X150150000Y-98400000D01*
X149137760Y-101475000D02*
X150012240Y-101475000D01*
X149400000Y-105800000D02*
X146675000Y-108525000D01*
X149137760Y-101975000D02*
X149150000Y-101975000D01*
X149137760Y-100975000D02*
X150012240Y-100975000D01*
X149400000Y-102225000D02*
X149400000Y-105800000D01*
X150012240Y-100475040D02*
G75*
G03*
X150262240Y-100225000I-40J250040D01*
G01*
X149861272Y-92611328D02*
G75*
G03*
X150161328Y-92911328I300028J28D01*
G01*
X148887800Y-100725000D02*
G75*
G03*
X149137760Y-100975000I250000J0D01*
G01*
X149400000Y-95975000D02*
G75*
G03*
X149625000Y-96200000I225000J0D01*
G01*
X149400000Y-102225000D02*
G75*
G03*
X149150000Y-101975000I-250000J0D01*
G01*
X148761272Y-93811328D02*
G75*
G03*
X149061328Y-94111328I300028J28D01*
G01*
X150012240Y-101475040D02*
G75*
G03*
X150262240Y-101225000I-40J250040D01*
G01*
X149400000Y-99725000D02*
G75*
G03*
X149650000Y-99975000I250000J0D01*
G01*
X149137760Y-100474960D02*
G75*
G03*
X148887760Y-100725000I40J-250040D01*
G01*
X149750000Y-96650000D02*
G75*
G03*
X149525000Y-96875000I0J-225000D01*
G01*
X150786284Y-96649984D02*
G75*
G03*
X151011284Y-96425000I16J224984D01*
G01*
X150425000Y-98675000D02*
G75*
G03*
X150150000Y-98400000I-275000J0D01*
G01*
X150961272Y-93211328D02*
G75*
G03*
X150661328Y-92911328I-299972J28D01*
G01*
X150661328Y-93511328D02*
G75*
G03*
X150961328Y-93211328I-28J300028D01*
G01*
X148887800Y-101725000D02*
G75*
G03*
X149137760Y-101975000I250000J0D01*
G01*
X149137760Y-101474960D02*
G75*
G03*
X148887760Y-101725000I40J-250040D01*
G01*
X149675000Y-98950000D02*
G75*
G03*
X149400000Y-99225000I0J-275000D01*
G01*
X149525000Y-98125000D02*
G75*
G03*
X149800000Y-98400000I275000J0D01*
G01*
X149861272Y-94411328D02*
G75*
G03*
X149561328Y-94111328I-299972J28D01*
G01*
X150262200Y-100225000D02*
G75*
G03*
X150012240Y-99975000I-250000J0D01*
G01*
X149061328Y-93511328D02*
G75*
G03*
X148761328Y-93811328I-28J-299972D01*
G01*
X150150000Y-98950000D02*
G75*
G03*
X150425000Y-98675000I0J275000D01*
G01*
X150262200Y-101225000D02*
G75*
G03*
X150012240Y-100975000I-250000J0D01*
G01*
X151011300Y-96425000D02*
G75*
G03*
X150786284Y-96200000I-225000J0D01*
G01*
M02*
