%TF.GenerationSoftware,KiCad,Pcbnew,7.0.6-7.0.6~ubuntu22.04.1*%
%TF.CreationDate,2023-09-01T13:05:29+02:00*%
%TF.ProjectId,si-simulation-test-board,73692d73-696d-4756-9c61-74696f6e2d74,rev?*%
%TF.SameCoordinates,Original*%
%TF.FileFunction,Copper,L1,Top*%
%TF.FilePolarity,Positive*%
%FSLAX46Y46*%
G04 Gerber Fmt 4.6, Leading zero omitted, Abs format (unit mm)*
G04 Created by KiCad (PCBNEW 7.0.6-7.0.6~ubuntu22.04.1) date 2023-09-01 13:05:29*
%MOMM*%
%LPD*%
G01*
G04 APERTURE LIST*
%TA.AperFunction,NonConductor*%
%ADD10C,2.200000*%
%TD*%
%TA.AperFunction,ViaPad*%
%ADD11C,0.550000*%
%TD*%
G04 APERTURE END LIST*
%TA.AperFunction,NonConductor*%
G36*
X124850000Y-119365000D02*
G01*
X127040000Y-119365000D01*
X127040000Y-130915000D01*
X124850000Y-130915000D01*
X124850000Y-119365000D01*
G37*
%TD.AperFunction*%
%TA.AperFunction,NonConductor*%
G36*
X117455000Y-120085000D02*
G01*
X119045000Y-120085000D01*
X119045000Y-130915000D01*
X117455000Y-130915000D01*
X117455000Y-120085000D01*
G37*
%TD.AperFunction*%
%TA.AperFunction,NonConductor*%
G36*
X113250000Y-120085000D02*
G01*
X114840000Y-120085000D01*
X114840000Y-130915000D01*
X113250000Y-130915000D01*
X113250000Y-120085000D01*
G37*
%TD.AperFunction*%
%TA.AperFunction,NonConductor*%
G36*
X109450000Y-119365000D02*
G01*
X111640000Y-119365000D01*
X111640000Y-130915000D01*
X109450000Y-130915000D01*
X109450000Y-119365000D01*
G37*
%TD.AperFunction*%
D10*
X141825000Y-127622500D02*
X125945000Y-127615000D01*
%TA.AperFunction,NonConductor*%
G36*
X121655000Y-120085000D02*
G01*
X123245000Y-120085000D01*
X123245000Y-130915000D01*
X121655000Y-130915000D01*
X121655000Y-120085000D01*
G37*
%TD.AperFunction*%
X110495000Y-127615000D02*
X96700000Y-127615000D01*
D11*
%TO.N,GND*%
X125245000Y-130915000D03*
X110540000Y-130915000D03*
X117840000Y-130915000D03*
X113740000Y-120115000D03*
X122840000Y-120115000D03*
X125945000Y-130915000D03*
X109840000Y-130915000D03*
X122140000Y-120115000D03*
X118540000Y-130915000D03*
X111240000Y-130915000D03*
X126645000Y-130915000D03*
X114440000Y-120115000D03*
%TD*%
M02*
