%TF.GenerationSoftware,KiCad,Pcbnew,9.0.6+1*%
%TF.CreationDate,2026-01-27T15:49:49+01:00*%
%TF.ProjectId,si-simulation-test-board,73692d73-696d-4756-9c61-74696f6e2d74,rev?*%
%TF.SameCoordinates,Original*%
%TF.FileFunction,Copper,L1,Top*%
%TF.FilePolarity,Positive*%
%FSLAX46Y46*%
G04 Gerber Fmt 4.6, Leading zero omitted, Abs format (unit mm)*
G04 Created by KiCad (PCBNEW 9.0.6+1) date 2026-01-27 15:49:49*
%MOMM*%
%LPD*%
G01*
G04 APERTURE LIST*
%TA.AperFunction,Conductor*%
%ADD10C,0.275000*%
%TD*%
%TA.AperFunction,Conductor*%
%ADD11C,0.000000*%
%TD*%
%TA.AperFunction,SMDPad,CuDef*%
%ADD12R,4.191000X1.450000*%
%TD*%
%TA.AperFunction,ViaPad*%
%ADD13C,0.550000*%
%TD*%
%TA.AperFunction,Conductor*%
%ADD14C,2.200000*%
%TD*%
G04 APERTURE END LIST*
%TO.N,Filter*%
D10*
X126082500Y-130915000D02*
G75*
G02*
X125807500Y-130915000I-137500J0D01*
G01*
X125807500Y-130915000D02*
G75*
G02*
X126082500Y-130915000I137500J0D01*
G01*
D11*
%TA.AperFunction,Conductor*%
G36*
X111640000Y-130915000D02*
G01*
X109450000Y-130915000D01*
X109450000Y-119360000D01*
X111640000Y-119360000D01*
X111640000Y-130915000D01*
G37*
%TD.AperFunction*%
D10*
X118677500Y-130915000D02*
G75*
G02*
X118402500Y-130915000I-137500J0D01*
G01*
X118402500Y-130915000D02*
G75*
G02*
X118677500Y-130915000I137500J0D01*
G01*
D11*
%TA.AperFunction,Conductor*%
G36*
X123250000Y-130915000D02*
G01*
X121660000Y-130915000D01*
X121660000Y-120085000D01*
X123250000Y-120085000D01*
X123250000Y-130915000D01*
G37*
%TD.AperFunction*%
%TA.AperFunction,Conductor*%
G36*
X123245000Y-130915000D02*
G01*
X121655000Y-130915000D01*
X121655000Y-120085000D01*
X123245000Y-120085000D01*
X123245000Y-130915000D01*
G37*
%TD.AperFunction*%
D10*
X110677500Y-130915000D02*
G75*
G02*
X110402500Y-130915000I-137500J0D01*
G01*
X110402500Y-130915000D02*
G75*
G02*
X110677500Y-130915000I137500J0D01*
G01*
D11*
%TA.AperFunction,Conductor*%
G36*
X114840000Y-130915000D02*
G01*
X113250000Y-130915000D01*
X113250000Y-120085000D01*
X114840000Y-120085000D01*
X114840000Y-130915000D01*
G37*
%TD.AperFunction*%
%TA.AperFunction,Conductor*%
G36*
X114840000Y-130915000D02*
G01*
X113250000Y-130915000D01*
X113250000Y-120085000D01*
X114840000Y-120085000D01*
X114840000Y-130915000D01*
G37*
%TD.AperFunction*%
%TA.AperFunction,Conductor*%
G36*
X140714999Y-128715000D02*
G01*
X126710001Y-128715002D01*
X126710000Y-126525002D01*
X140715000Y-126525000D01*
X140714999Y-128715000D01*
G37*
%TD.AperFunction*%
%TA.AperFunction,Conductor*%
G36*
X127040000Y-130920000D02*
G01*
X124850000Y-130920000D01*
X124850000Y-119365000D01*
X127040000Y-119365000D01*
X127040000Y-130920000D01*
G37*
%TD.AperFunction*%
D10*
X111377500Y-130915000D02*
G75*
G02*
X111102500Y-130915000I-137500J0D01*
G01*
X111102500Y-130915000D02*
G75*
G02*
X111377500Y-130915000I137500J0D01*
G01*
D11*
%TA.AperFunction,Conductor*%
G36*
X119045000Y-130915000D02*
G01*
X117455000Y-130915000D01*
X117455000Y-120085000D01*
X119045000Y-120085000D01*
X119045000Y-130915000D01*
G37*
%TD.AperFunction*%
%TA.AperFunction,Conductor*%
G36*
X111640000Y-130915000D02*
G01*
X109450000Y-130915000D01*
X109450000Y-119365000D01*
X111640000Y-119365000D01*
X111640000Y-130915000D01*
G37*
%TD.AperFunction*%
D10*
X122977500Y-120115000D02*
G75*
G02*
X122702500Y-120115000I-137500J0D01*
G01*
X122702500Y-120115000D02*
G75*
G02*
X122977500Y-120115000I137500J0D01*
G01*
X109977500Y-130915000D02*
G75*
G02*
X109702500Y-130915000I-137500J0D01*
G01*
X109702500Y-130915000D02*
G75*
G02*
X109977500Y-130915000I137500J0D01*
G01*
D11*
%TA.AperFunction,Conductor*%
G36*
X127040000Y-130915000D02*
G01*
X124850000Y-130915000D01*
X124850000Y-119365000D01*
X127040000Y-119365000D01*
X127040000Y-130915000D01*
G37*
%TD.AperFunction*%
%TA.AperFunction,Conductor*%
G36*
X119045000Y-130915000D02*
G01*
X117455000Y-130915000D01*
X117455000Y-120085000D01*
X119045000Y-120085000D01*
X119045000Y-130915000D01*
G37*
%TD.AperFunction*%
D10*
X114577500Y-120115000D02*
G75*
G02*
X114302500Y-120115000I-137500J0D01*
G01*
X114302500Y-120115000D02*
G75*
G02*
X114577500Y-120115000I137500J0D01*
G01*
X126782500Y-130915000D02*
G75*
G02*
X126507500Y-130915000I-137500J0D01*
G01*
X126507500Y-130915000D02*
G75*
G02*
X126782500Y-130915000I137500J0D01*
G01*
X125382500Y-130915000D02*
G75*
G02*
X125107500Y-130915000I-137500J0D01*
G01*
X125107500Y-130915000D02*
G75*
G02*
X125382500Y-130915000I137500J0D01*
G01*
X113877500Y-120115000D02*
G75*
G02*
X113602500Y-120115000I-137500J0D01*
G01*
X113602500Y-120115000D02*
G75*
G02*
X113877500Y-120115000I137500J0D01*
G01*
X122277500Y-120115000D02*
G75*
G02*
X122002500Y-120115000I-137500J0D01*
G01*
X122002500Y-120115000D02*
G75*
G02*
X122277500Y-120115000I137500J0D01*
G01*
X117977500Y-130915000D02*
G75*
G02*
X117702500Y-130915000I-137500J0D01*
G01*
X117702500Y-130915000D02*
G75*
G02*
X117977500Y-130915000I137500J0D01*
G01*
D11*
%TA.AperFunction,Conductor*%
G36*
X109864999Y-128700000D02*
G01*
X98310001Y-128700000D01*
X98310000Y-126510000D01*
X109865000Y-126510000D01*
X109864999Y-128700000D01*
G37*
%TD.AperFunction*%
%TD*%
D12*
%TO.P,,2,2*%
%TO.N,GND*%
X96325000Y-130584499D03*
%TD*%
%TO.P,,2,2*%
%TO.N,GND*%
X141825000Y-130585500D03*
%TD*%
%TO.P,,2,2*%
%TO.N,GND*%
X141825000Y-124635500D03*
%TD*%
%TO.P,,2,2*%
%TO.N,GND*%
X96325000Y-124634499D03*
%TD*%
D13*
%TO.N,GND*%
X120800000Y-117210000D03*
X113000000Y-133810000D03*
X132340000Y-133810000D03*
X131600000Y-119410000D03*
X102300719Y-123509281D03*
X120940000Y-133810000D03*
X94800000Y-130560000D03*
X109400000Y-117210000D03*
X99800000Y-123510000D03*
X107179756Y-118630244D03*
X128760000Y-117210000D03*
X118640000Y-133810000D03*
X119800000Y-133810000D03*
X105553411Y-120256589D03*
X121960000Y-117210000D03*
X99400000Y-133810000D03*
X133226346Y-121036346D03*
X141825000Y-130510000D03*
X134852691Y-122662691D03*
X111700000Y-117210000D03*
X107340000Y-133810000D03*
X134046589Y-121856589D03*
X110700000Y-133810000D03*
X96325000Y-124635000D03*
X105040000Y-133810000D03*
X102740000Y-133810000D03*
X143600000Y-130510000D03*
X104747309Y-121062691D03*
X98100000Y-124635000D03*
X124400000Y-133810000D03*
X141825000Y-124610000D03*
X116440000Y-133810000D03*
X127600000Y-117210000D03*
X115160000Y-117210000D03*
X115300000Y-133810000D03*
X103927065Y-121882935D03*
X103900000Y-133810000D03*
X96325000Y-130585000D03*
X98100000Y-130585000D03*
X114000000Y-117210000D03*
X109540000Y-133810000D03*
X106373654Y-119436346D03*
X100440000Y-133810000D03*
X108000000Y-117810000D03*
X138100000Y-133810000D03*
X124260000Y-117210000D03*
X134640000Y-133810000D03*
X112860000Y-117210000D03*
X139900000Y-132710000D03*
X106200000Y-133810000D03*
X114140000Y-133810000D03*
X123240000Y-133810000D03*
X135672935Y-123482935D03*
X143600000Y-124610000D03*
X138100000Y-123482935D03*
X140300000Y-124585000D03*
X108500000Y-133810000D03*
X117460000Y-117210000D03*
X119660000Y-117210000D03*
X110560000Y-117210000D03*
X101600000Y-133810000D03*
X122100000Y-133810000D03*
X125400000Y-117210000D03*
X136940000Y-133810000D03*
X103120963Y-122689037D03*
X94800000Y-124610000D03*
X136940000Y-123482935D03*
X130040000Y-133810000D03*
X116300000Y-117210000D03*
X127740000Y-133810000D03*
X128900000Y-133810000D03*
X125540000Y-133810000D03*
X135800000Y-133810000D03*
X129973654Y-117783654D03*
X117600000Y-133810000D03*
X126560000Y-117210000D03*
X123100000Y-117210000D03*
X130793898Y-118603898D03*
X126700000Y-133810000D03*
X139000000Y-123910000D03*
X118500000Y-117210000D03*
X140300000Y-130485000D03*
X131200000Y-133810000D03*
X111840000Y-133810000D03*
X133500000Y-133810000D03*
X100960000Y-123510000D03*
X132420244Y-120230244D03*
%TO.N,Filter*%
X126645000Y-130915000D03*
X122840000Y-120115000D03*
X114440000Y-120115000D03*
X117840000Y-130915000D03*
X113740000Y-120115000D03*
X125945000Y-130915000D03*
X122140000Y-120115000D03*
X109840000Y-130915000D03*
X111240000Y-130915000D03*
X110540000Y-130915000D03*
X125245000Y-130915000D03*
X118540000Y-130915000D03*
%TD*%
D14*
%TO.N,Filter*%
X141825000Y-127622500D02*
X125945000Y-127615000D01*
X110495000Y-127615000D02*
X96700000Y-127615000D01*
%TD*%
M02*
