M48
; DRILL file {KiCad 9.0.6+1} date 2026-01-27T15:49:50+0100
; FORMAT={-:-/ absolute / metric / decimal}
; #@! TF.CreationDate,2026-01-27T15:49:50+01:00
; #@! TF.GenerationSoftware,Kicad,Pcbnew,9.0.6+1
; #@! TF.FileFunction,Plated,1,4,PTH
FMAT,2
METRIC
; #@! TA.AperFunction,Plated,PTH,ViaDrill
T1C0.200
%
G90
G05
T1
X1.05Y10.46
X1.05Y4.51
X2.575Y10.435
X2.575Y4.485
X4.35Y10.435
X4.35Y4.485
X5.65Y1.26
X6.05Y11.56
X6.69Y1.26
X7.21Y11.56
X7.85Y1.26
X8.551Y11.561
X8.99Y1.26
X9.371Y12.381
X10.15Y1.26
X10.177Y13.187
X10.997Y14.007
X11.29Y1.26
X11.803Y14.813
X12.45Y1.26
X12.624Y15.634
X13.43Y16.44
X13.59Y1.26
X14.25Y17.26
X14.75Y1.26
X15.65Y17.86
X15.79Y1.26
X16.09Y4.155
X16.79Y4.155
X16.81Y17.86
X16.95Y1.26
X17.49Y4.155
X17.95Y17.86
X18.09Y1.26
X19.11Y17.86
X19.25Y1.26
X19.99Y14.955
X20.25Y17.86
X20.39Y1.26
X20.69Y14.955
X21.41Y17.86
X21.55Y1.26
X22.55Y17.86
X22.69Y1.26
X23.71Y17.86
X23.85Y1.26
X24.09Y4.155
X24.75Y17.86
X24.79Y4.155
X24.89Y1.26
X25.91Y17.86
X26.05Y1.26
X27.05Y17.86
X27.19Y1.26
X28.21Y17.86
X28.35Y1.26
X28.39Y14.955
X29.09Y14.955
X29.35Y17.86
X29.49Y1.26
X30.51Y17.86
X30.65Y1.26
X31.495Y4.155
X31.65Y17.86
X31.79Y1.26
X32.195Y4.155
X32.81Y17.86
X32.895Y4.155
X32.95Y1.26
X33.85Y17.86
X33.99Y1.26
X35.01Y17.86
X35.15Y1.26
X36.224Y17.286
X36.29Y1.26
X37.044Y16.466
X37.45Y1.26
X37.85Y15.66
X38.59Y1.26
X38.67Y14.84
X39.476Y14.034
X39.75Y1.26
X40.297Y13.213
X40.89Y1.26
X41.103Y12.407
X41.923Y11.587
X42.05Y1.26
X43.19Y11.587
X43.19Y1.26
X44.35Y11.587
X44.35Y1.26
X45.25Y11.16
X46.15Y2.36
X46.55Y10.485
X46.55Y4.585
X48.075Y10.46
X48.075Y4.56
X49.85Y10.46
X49.85Y4.56
M30
