%TF.GenerationSoftware,KiCad,Pcbnew,9.0.6+1*%
%TF.CreationDate,2026-01-27T15:49:49+01:00*%
%TF.ProjectId,si-simulation-test-board,73692d73-696d-4756-9c61-74696f6e2d74,rev?*%
%TF.SameCoordinates,Original*%
%TF.FileFunction,Copper,L2,Inr*%
%TF.FilePolarity,Positive*%
%FSLAX46Y46*%
G04 Gerber Fmt 4.6, Leading zero omitted, Abs format (unit mm)*
G04 Created by KiCad (PCBNEW 9.0.6+1) date 2026-01-27 15:49:49*
%MOMM*%
%LPD*%
G01*
G04 APERTURE LIST*
%TA.AperFunction,Conductor*%
%ADD10C,0.275000*%
%TD*%
%TA.AperFunction,ViaPad*%
%ADD11C,0.550000*%
%TD*%
G04 APERTURE END LIST*
%TO.N,Filter*%
D10*
X126782500Y-130915000D02*
G75*
G02*
X126507500Y-130915000I-137500J0D01*
G01*
X126507500Y-130915000D02*
G75*
G02*
X126782500Y-130915000I137500J0D01*
G01*
X109977500Y-130915000D02*
G75*
G02*
X109702500Y-130915000I-137500J0D01*
G01*
X109702500Y-130915000D02*
G75*
G02*
X109977500Y-130915000I137500J0D01*
G01*
X122977500Y-120115000D02*
G75*
G02*
X122702500Y-120115000I-137500J0D01*
G01*
X122702500Y-120115000D02*
G75*
G02*
X122977500Y-120115000I137500J0D01*
G01*
X126082500Y-130915000D02*
G75*
G02*
X125807500Y-130915000I-137500J0D01*
G01*
X125807500Y-130915000D02*
G75*
G02*
X126082500Y-130915000I137500J0D01*
G01*
X110677500Y-130915000D02*
G75*
G02*
X110402500Y-130915000I-137500J0D01*
G01*
X110402500Y-130915000D02*
G75*
G02*
X110677500Y-130915000I137500J0D01*
G01*
X117977500Y-130915000D02*
G75*
G02*
X117702500Y-130915000I-137500J0D01*
G01*
X117702500Y-130915000D02*
G75*
G02*
X117977500Y-130915000I137500J0D01*
G01*
X114577500Y-120115000D02*
G75*
G02*
X114302500Y-120115000I-137500J0D01*
G01*
X114302500Y-120115000D02*
G75*
G02*
X114577500Y-120115000I137500J0D01*
G01*
X111377500Y-130915000D02*
G75*
G02*
X111102500Y-130915000I-137500J0D01*
G01*
X111102500Y-130915000D02*
G75*
G02*
X111377500Y-130915000I137500J0D01*
G01*
X122277500Y-120115000D02*
G75*
G02*
X122002500Y-120115000I-137500J0D01*
G01*
X122002500Y-120115000D02*
G75*
G02*
X122277500Y-120115000I137500J0D01*
G01*
X113877500Y-120115000D02*
G75*
G02*
X113602500Y-120115000I-137500J0D01*
G01*
X113602500Y-120115000D02*
G75*
G02*
X113877500Y-120115000I137500J0D01*
G01*
X118677500Y-130915000D02*
G75*
G02*
X118402500Y-130915000I-137500J0D01*
G01*
X118402500Y-130915000D02*
G75*
G02*
X118677500Y-130915000I137500J0D01*
G01*
X125382500Y-130915000D02*
G75*
G02*
X125107500Y-130915000I-137500J0D01*
G01*
X125107500Y-130915000D02*
G75*
G02*
X125382500Y-130915000I137500J0D01*
G01*
%TD*%
D11*
%TO.N,GND*%
X120800000Y-117210000D03*
X113000000Y-133810000D03*
X132340000Y-133810000D03*
X131600000Y-119410000D03*
X102300719Y-123509281D03*
X120940000Y-133810000D03*
X94800000Y-130560000D03*
X109400000Y-117210000D03*
X99800000Y-123510000D03*
X107179756Y-118630244D03*
X128760000Y-117210000D03*
X118640000Y-133810000D03*
X119800000Y-133810000D03*
X105553411Y-120256589D03*
X121960000Y-117210000D03*
X99400000Y-133810000D03*
X133226346Y-121036346D03*
X141825000Y-130510000D03*
X134852691Y-122662691D03*
X111700000Y-117210000D03*
X107340000Y-133810000D03*
X134046589Y-121856589D03*
X110700000Y-133810000D03*
X96325000Y-124635000D03*
X105040000Y-133810000D03*
X102740000Y-133810000D03*
X143600000Y-130510000D03*
X104747309Y-121062691D03*
X98100000Y-124635000D03*
X124400000Y-133810000D03*
X141825000Y-124610000D03*
X116440000Y-133810000D03*
X127600000Y-117210000D03*
X115160000Y-117210000D03*
X115300000Y-133810000D03*
X103927065Y-121882935D03*
X103900000Y-133810000D03*
X96325000Y-130585000D03*
X98100000Y-130585000D03*
X114000000Y-117210000D03*
X109540000Y-133810000D03*
X106373654Y-119436346D03*
X100440000Y-133810000D03*
X108000000Y-117810000D03*
X138100000Y-133810000D03*
X124260000Y-117210000D03*
X134640000Y-133810000D03*
X112860000Y-117210000D03*
X139900000Y-132710000D03*
X106200000Y-133810000D03*
X114140000Y-133810000D03*
X123240000Y-133810000D03*
X135672935Y-123482935D03*
X143600000Y-124610000D03*
X138100000Y-123482935D03*
X140300000Y-124585000D03*
X108500000Y-133810000D03*
X117460000Y-117210000D03*
X119660000Y-117210000D03*
X110560000Y-117210000D03*
X101600000Y-133810000D03*
X122100000Y-133810000D03*
X125400000Y-117210000D03*
X136940000Y-133810000D03*
X103120963Y-122689037D03*
X94800000Y-124610000D03*
X136940000Y-123482935D03*
X130040000Y-133810000D03*
X116300000Y-117210000D03*
X127740000Y-133810000D03*
X128900000Y-133810000D03*
X125540000Y-133810000D03*
X135800000Y-133810000D03*
X129973654Y-117783654D03*
X117600000Y-133810000D03*
X126560000Y-117210000D03*
X123100000Y-117210000D03*
X130793898Y-118603898D03*
X126700000Y-133810000D03*
X139000000Y-123910000D03*
X118500000Y-117210000D03*
X140300000Y-130485000D03*
X131200000Y-133810000D03*
X111840000Y-133810000D03*
X133500000Y-133810000D03*
X100960000Y-123510000D03*
X132420244Y-120230244D03*
%TO.N,Filter*%
X126645000Y-130915000D03*
X122840000Y-120115000D03*
X114440000Y-120115000D03*
X117840000Y-130915000D03*
X113740000Y-120115000D03*
X125945000Y-130915000D03*
X122140000Y-120115000D03*
X109840000Y-130915000D03*
X111240000Y-130915000D03*
X110540000Y-130915000D03*
X125245000Y-130915000D03*
X118540000Y-130915000D03*
%TD*%
%TA.AperFunction,Conductor*%
%TO.N,GND*%
G36*
X98515677Y-129729685D02*
G01*
X98536319Y-129746319D01*
X98763681Y-129973681D01*
X98797166Y-130035004D01*
X98800000Y-130061362D01*
X98800000Y-133410000D01*
X139300000Y-133410000D01*
X139300000Y-130261362D01*
X139319685Y-130194323D01*
X139336319Y-130173681D01*
X139763681Y-129746319D01*
X139825004Y-129712834D01*
X139851362Y-129710000D01*
X143965500Y-129710000D01*
X144032539Y-129729685D01*
X144078294Y-129782489D01*
X144089500Y-129834000D01*
X144089500Y-134845500D01*
X144069815Y-134912539D01*
X144017011Y-134958294D01*
X143965500Y-134969500D01*
X93974500Y-134969500D01*
X93907461Y-134949815D01*
X93861706Y-134897011D01*
X93850500Y-134845500D01*
X93850500Y-129834000D01*
X93870185Y-129766961D01*
X93922989Y-129721206D01*
X93974500Y-129710000D01*
X98448638Y-129710000D01*
X98515677Y-129729685D01*
G37*
%TD.AperFunction*%
%TA.AperFunction,Conductor*%
G36*
X144032539Y-115140185D02*
G01*
X144078294Y-115192989D01*
X144089500Y-115244500D01*
X144089500Y-125486000D01*
X144069815Y-125553039D01*
X144017011Y-125598794D01*
X143965500Y-125610000D01*
X139651362Y-125610000D01*
X139584323Y-125590315D01*
X139563681Y-125573681D01*
X139336319Y-125346319D01*
X139302834Y-125284996D01*
X139300000Y-125258638D01*
X139300000Y-125010000D01*
X138300000Y-124010000D01*
X135351362Y-124010000D01*
X135284323Y-123990315D01*
X135263681Y-123973681D01*
X129100000Y-117810000D01*
X108900000Y-117810000D01*
X108899999Y-117810000D01*
X102636319Y-124073681D01*
X102574996Y-124107166D01*
X102548638Y-124110000D01*
X98900000Y-124110000D01*
X98900000Y-125058638D01*
X98880315Y-125125677D01*
X98863681Y-125146319D01*
X98536319Y-125473681D01*
X98474996Y-125507166D01*
X98448638Y-125510000D01*
X93974500Y-125510000D01*
X93907461Y-125490315D01*
X93861706Y-125437511D01*
X93850500Y-125386000D01*
X93850500Y-115244500D01*
X93870185Y-115177461D01*
X93922989Y-115131706D01*
X93974500Y-115120500D01*
X143965500Y-115120500D01*
X144032539Y-115140185D01*
G37*
%TD.AperFunction*%
%TD*%
M02*
