%TF.GenerationSoftware,KiCad,Pcbnew,7.0.9-7.0.9~ubuntu22.04.1*%
%TF.CreationDate,2023-12-01T07:41:36+01:00*%
%TF.ProjectId,real,7265616c-2e6b-4696-9361-645f70636258,rev?*%
%TF.SameCoordinates,Original*%
%TF.FileFunction,Copper,L1,Top*%
%TF.FilePolarity,Positive*%
%FSLAX46Y46*%
G04 Gerber Fmt 4.6, Leading zero omitted, Abs format (unit mm)*
G04 Created by KiCad (PCBNEW 7.0.9-7.0.9~ubuntu22.04.1) date 2023-12-01 07:41:36*
%MOMM*%
%LPD*%
G01*
G04 APERTURE LIST*
%TA.AperFunction,SMDPad,CuDef*%
%ADD10C,0.750000*%
%TD*%
%TA.AperFunction,Conductor*%
%ADD11C,0.200000*%
%TD*%
G04 APERTURE END LIST*
D10*
%TO.P,TP1,1,1*%
%TO.N,/net*%
X148775000Y-95925000D03*
%TD*%
D11*
%TO.N,/net*%
X143670000Y-94620000D02*
X143690000Y-94600000D01*
X144220000Y-86090000D02*
X144770000Y-86090000D01*
X143440000Y-94060000D02*
X143200000Y-94300000D01*
X144250000Y-93400000D02*
X143950000Y-93400000D01*
X143820000Y-93530000D02*
X143820000Y-93730000D01*
X143970000Y-90440000D02*
X143970000Y-90540000D01*
X143820000Y-93730000D02*
X144100000Y-94010000D01*
X144070000Y-84740000D02*
X144470000Y-85140000D01*
X144470000Y-88640000D02*
X144470000Y-88740000D01*
X144470000Y-93180000D02*
X144250000Y-93400000D01*
X143950000Y-93400000D02*
X143820000Y-93530000D01*
X142510000Y-96240000D02*
X142510000Y-97700000D01*
X144100000Y-94920000D02*
X143880000Y-95140000D01*
X144470000Y-89840000D02*
X144470000Y-89940000D01*
X144470000Y-91040000D02*
X144470000Y-91140000D01*
X144770000Y-86690000D02*
X144220000Y-86690000D01*
X142940000Y-95810000D02*
X142510000Y-96240000D01*
X143970000Y-89240000D02*
X143970000Y-89340000D01*
X143670000Y-95050000D02*
X143670000Y-94620000D01*
X144570000Y-91915000D02*
X144570000Y-92415000D01*
X143200000Y-95680000D02*
X143070000Y-95810000D01*
X143970000Y-86940000D02*
X143970000Y-87040000D01*
X143760000Y-95140000D02*
X143670000Y-95050000D01*
X143690000Y-94600000D02*
X143690000Y-94200000D01*
X144470000Y-92515000D02*
X144470000Y-93180000D01*
X144220000Y-91390000D02*
X144220000Y-91740000D01*
X143690000Y-94200000D02*
X143550000Y-94060000D01*
X144470000Y-85140000D02*
X144470000Y-85240000D01*
X144100000Y-94010000D02*
X144100000Y-94920000D01*
X143550000Y-94060000D02*
X143440000Y-94060000D01*
X144345000Y-91865000D02*
X144520000Y-91865000D01*
X143970000Y-85740000D02*
X143970000Y-85840000D01*
X143070000Y-95810000D02*
X142940000Y-95810000D01*
X143200000Y-94300000D02*
X143200000Y-95680000D01*
X143880000Y-95140000D02*
X143760000Y-95140000D01*
X143970000Y-88040000D02*
X143970000Y-88140000D01*
X145070000Y-86390000D02*
G75*
G03*
X144770000Y-86090000I-300000J0D01*
G01*
X144470000Y-89840000D02*
G75*
G03*
X144220000Y-89590000I-250000J0D01*
G01*
X143970000Y-87040000D02*
G75*
G03*
X144220000Y-87290000I250000J0D01*
G01*
X144220000Y-90190000D02*
G75*
G03*
X143970000Y-90440000I0J-250000D01*
G01*
X144520000Y-92465000D02*
G75*
G03*
X144570000Y-92415000I0J50000D01*
G01*
X144220000Y-86690000D02*
G75*
G03*
X143970000Y-86940000I0J-250000D01*
G01*
X144470000Y-91040000D02*
G75*
G03*
X144220000Y-90790000I-250000J0D01*
G01*
X144220000Y-90190000D02*
G75*
G03*
X144470000Y-89940000I0J250000D01*
G01*
X143970000Y-88140000D02*
G75*
G03*
X144220000Y-88390000I250000J0D01*
G01*
X144345000Y-91265000D02*
G75*
G03*
X144220000Y-91390000I0J-125000D01*
G01*
X144220000Y-88990000D02*
G75*
G03*
X143970000Y-89240000I0J-250000D01*
G01*
X144220000Y-87790000D02*
G75*
G03*
X143970000Y-88040000I0J-250000D01*
G01*
X144220000Y-85490000D02*
G75*
G03*
X143970000Y-85740000I0J-250000D01*
G01*
X144220000Y-88990000D02*
G75*
G03*
X144470000Y-88740000I0J250000D01*
G01*
X144220000Y-87790000D02*
G75*
G03*
X144470000Y-87540000I0J250000D01*
G01*
X144470000Y-87540000D02*
G75*
G03*
X144220000Y-87290000I-250000J0D01*
G01*
X144345000Y-91265000D02*
G75*
G03*
X144470000Y-91140000I0J125000D01*
G01*
X143970000Y-85840000D02*
G75*
G03*
X144220000Y-86090000I250000J0D01*
G01*
X144770000Y-86690000D02*
G75*
G03*
X145070000Y-86390000I0J300000D01*
G01*
X143970000Y-90540000D02*
G75*
G03*
X144220000Y-90790000I250000J0D01*
G01*
X144570000Y-91915000D02*
G75*
G03*
X144520000Y-91865000I-50000J0D01*
G01*
X143970000Y-89340000D02*
G75*
G03*
X144220000Y-89590000I250000J0D01*
G01*
X144220000Y-91740000D02*
G75*
G03*
X144345000Y-91865000I125000J0D01*
G01*
X144520000Y-92465000D02*
G75*
G03*
X144470000Y-92515000I0J-50000D01*
G01*
X144220000Y-85490000D02*
G75*
G03*
X144470000Y-85240000I0J250000D01*
G01*
X144470000Y-88640000D02*
G75*
G03*
X144220000Y-88390000I-250000J0D01*
G01*
%TD*%
M02*
