G04 #@! TF.GenerationSoftware,KiCad,Pcbnew,7.0.6-7.0.6~ubuntu22.04.1*
G04 #@! TF.CreationDate,2023-07-13T09:30:30+02:00*
G04 #@! TF.ProjectId,ddr4,64647234-2e6b-4696-9361-645f70636258,rev?*
G04 #@! TF.SameCoordinates,Original*
G04 #@! TF.FileFunction,Copper,L1,Top*
G04 #@! TF.FilePolarity,Positive*
%FSLAX46Y46*%
G04 Gerber Fmt 4.6, Leading zero omitted, Abs format (unit mm)*
G04 Created by KiCad (PCBNEW 7.0.6-7.0.6~ubuntu22.04.1) date 2023-07-13 09:30:30*
%MOMM*%
%LPD*%
G01*
G04 APERTURE LIST*
G04 #@! TA.AperFunction,Conductor*
%ADD10C,0.160000*%
G04 #@! TD*
G04 #@! TA.AperFunction,Conductor*
%ADD11C,0.100000*%
G04 #@! TD*
G04 APERTURE END LIST*
D10*
X150150000Y-96950000D02*
X149675000Y-96950000D01*
D11*
X143075000Y-107650000D02*
X143075000Y-107400000D01*
D10*
X149625000Y-94200000D02*
X150786284Y-94200000D01*
X149061328Y-92111328D02*
X149561328Y-92111328D01*
X143510000Y-106525000D02*
X143075000Y-106960000D01*
X149861328Y-88210008D02*
X149861328Y-90611328D01*
X150661328Y-91511328D02*
X149061328Y-91511328D01*
D11*
X142375000Y-108350000D02*
X143075000Y-107650000D01*
D10*
X149861328Y-92813672D02*
X149400000Y-93275000D01*
X149650000Y-97975000D02*
X150012240Y-97975000D01*
X149400000Y-93275000D02*
X149400000Y-93975000D01*
X149525000Y-94875000D02*
X149525000Y-96125000D01*
X150161328Y-90911328D02*
X150661328Y-90911328D01*
X149861328Y-92411328D02*
X149861328Y-92813672D01*
X149400000Y-97225000D02*
X149400000Y-97725000D01*
X150786284Y-94650000D02*
X149750000Y-94650000D01*
X146675000Y-106525000D02*
X143510000Y-106525000D01*
D11*
X141695000Y-108350000D02*
X142375000Y-108350000D01*
D10*
X143075000Y-106960000D02*
X143075000Y-107400000D01*
X149137760Y-98475000D02*
X150012240Y-98475000D01*
X149800000Y-96400000D02*
X150150000Y-96400000D01*
X149137760Y-99475000D02*
X150012240Y-99475000D01*
X149400000Y-103800000D02*
X146675000Y-106525000D01*
X149137760Y-99975000D02*
X149150000Y-99975000D01*
X149137760Y-98975000D02*
X150012240Y-98975000D01*
X149400000Y-100225000D02*
X149400000Y-103800000D01*
X150012240Y-98475040D02*
G75*
G03*
X150262240Y-98225000I-40J250040D01*
G01*
X149861272Y-90611328D02*
G75*
G03*
X150161328Y-90911328I300028J28D01*
G01*
X148887800Y-98725000D02*
G75*
G03*
X149137760Y-98975000I250000J0D01*
G01*
X149400000Y-93975000D02*
G75*
G03*
X149625000Y-94200000I225000J0D01*
G01*
X149400000Y-100225000D02*
G75*
G03*
X149150000Y-99975000I-250000J0D01*
G01*
X148761272Y-91811328D02*
G75*
G03*
X149061328Y-92111328I300028J28D01*
G01*
X150012240Y-99475040D02*
G75*
G03*
X150262240Y-99225000I-40J250040D01*
G01*
X149400000Y-97725000D02*
G75*
G03*
X149650000Y-97975000I250000J0D01*
G01*
X149137760Y-98474960D02*
G75*
G03*
X148887760Y-98725000I40J-250040D01*
G01*
X149750000Y-94650000D02*
G75*
G03*
X149525000Y-94875000I0J-225000D01*
G01*
X150786284Y-94649984D02*
G75*
G03*
X151011284Y-94425000I16J224984D01*
G01*
X150425000Y-96675000D02*
G75*
G03*
X150150000Y-96400000I-275000J0D01*
G01*
X150961272Y-91211328D02*
G75*
G03*
X150661328Y-90911328I-299972J28D01*
G01*
X150661328Y-91511328D02*
G75*
G03*
X150961328Y-91211328I-28J300028D01*
G01*
X148887800Y-99725000D02*
G75*
G03*
X149137760Y-99975000I250000J0D01*
G01*
X149137760Y-99474960D02*
G75*
G03*
X148887760Y-99725000I40J-250040D01*
G01*
X149675000Y-96950000D02*
G75*
G03*
X149400000Y-97225000I0J-275000D01*
G01*
X149525000Y-96125000D02*
G75*
G03*
X149800000Y-96400000I275000J0D01*
G01*
X149861272Y-92411328D02*
G75*
G03*
X149561328Y-92111328I-299972J28D01*
G01*
X150262200Y-98225000D02*
G75*
G03*
X150012240Y-97975000I-250000J0D01*
G01*
X149061328Y-91511328D02*
G75*
G03*
X148761328Y-91811328I-28J-299972D01*
G01*
X150150000Y-96950000D02*
G75*
G03*
X150425000Y-96675000I0J275000D01*
G01*
X150262200Y-99225000D02*
G75*
G03*
X150012240Y-98975000I-250000J0D01*
G01*
X151011300Y-94425000D02*
G75*
G03*
X150786284Y-94200000I-225000J0D01*
G01*
M02*
