%TF.GenerationSoftware,KiCad,Pcbnew,7.0.6-7.0.6~ubuntu22.04.1*%
%TF.CreationDate,2023-09-04T14:35:40+02:00*%
%TF.ProjectId,si-simulation-test-board,73692d73-696d-4756-9c61-74696f6e2d74,rev?*%
%TF.SameCoordinates,Original*%
%TF.FileFunction,Legend,Bot*%
%TF.FilePolarity,Positive*%
%FSLAX46Y46*%
G04 Gerber Fmt 4.6, Leading zero omitted, Abs format (unit mm)*
G04 Created by KiCad (PCBNEW 7.0.6-7.0.6~ubuntu22.04.1) date 2023-09-04 14:35:40*
%MOMM*%
%LPD*%
G01*
G04 APERTURE LIST*
%ADD10C,0.150000*%
G04 APERTURE END LIST*
D10*
X123652381Y-85984057D02*
X123652381Y-86584057D01*
X123890476Y-85641200D02*
X124128571Y-86284057D01*
X124128571Y-86284057D02*
X123509524Y-86284057D01*
X122604762Y-85726914D02*
X122700000Y-85684057D01*
X122700000Y-85684057D02*
X122842857Y-85684057D01*
X122842857Y-85684057D02*
X122985714Y-85726914D01*
X122985714Y-85726914D02*
X123080952Y-85812628D01*
X123080952Y-85812628D02*
X123128571Y-85898342D01*
X123128571Y-85898342D02*
X123176190Y-86069771D01*
X123176190Y-86069771D02*
X123176190Y-86198342D01*
X123176190Y-86198342D02*
X123128571Y-86369771D01*
X123128571Y-86369771D02*
X123080952Y-86455485D01*
X123080952Y-86455485D02*
X122985714Y-86541200D01*
X122985714Y-86541200D02*
X122842857Y-86584057D01*
X122842857Y-86584057D02*
X122747619Y-86584057D01*
X122747619Y-86584057D02*
X122604762Y-86541200D01*
X122604762Y-86541200D02*
X122557143Y-86498342D01*
X122557143Y-86498342D02*
X122557143Y-86198342D01*
X122557143Y-86198342D02*
X122747619Y-86198342D01*
X122128571Y-86584057D02*
X122128571Y-85684057D01*
X122128571Y-86112628D02*
X121557143Y-86112628D01*
X121557143Y-86584057D02*
X121557143Y-85684057D01*
X121176190Y-85984057D02*
X120652381Y-85984057D01*
X120652381Y-85984057D02*
X121176190Y-86584057D01*
X121176190Y-86584057D02*
X120652381Y-86584057D01*
X119509523Y-86584057D02*
X119509523Y-85684057D01*
X119509523Y-85684057D02*
X119128571Y-85684057D01*
X119128571Y-85684057D02*
X119033333Y-85726914D01*
X119033333Y-85726914D02*
X118985714Y-85769771D01*
X118985714Y-85769771D02*
X118938095Y-85855485D01*
X118938095Y-85855485D02*
X118938095Y-85984057D01*
X118938095Y-85984057D02*
X118985714Y-86069771D01*
X118985714Y-86069771D02*
X119033333Y-86112628D01*
X119033333Y-86112628D02*
X119128571Y-86155485D01*
X119128571Y-86155485D02*
X119509523Y-86155485D01*
X118557142Y-86326914D02*
X118080952Y-86326914D01*
X118652380Y-86584057D02*
X118319047Y-85684057D01*
X118319047Y-85684057D02*
X117985714Y-86584057D01*
X117795237Y-85684057D02*
X117223809Y-85684057D01*
X117509523Y-86584057D02*
X117509523Y-85684057D01*
X116890475Y-86584057D02*
X116890475Y-85684057D01*
X116890475Y-86112628D02*
X116319047Y-86112628D01*
X116319047Y-86584057D02*
X116319047Y-85684057D01*
X123271428Y-87775914D02*
X122795238Y-87775914D01*
X123366666Y-88033057D02*
X123033333Y-87133057D01*
X123033333Y-87133057D02*
X122700000Y-88033057D01*
X122366666Y-88033057D02*
X122366666Y-87133057D01*
X122366666Y-87133057D02*
X121795238Y-88033057D01*
X121795238Y-88033057D02*
X121795238Y-87133057D01*
X121461904Y-87133057D02*
X120890476Y-87133057D01*
X121176190Y-88033057D02*
X121176190Y-87133057D01*
X120557142Y-87561628D02*
X120223809Y-87561628D01*
X120080952Y-88033057D02*
X120557142Y-88033057D01*
X120557142Y-88033057D02*
X120557142Y-87133057D01*
X120557142Y-87133057D02*
X120080952Y-87133057D01*
X119652380Y-88033057D02*
X119652380Y-87133057D01*
X119652380Y-87133057D02*
X119080952Y-88033057D01*
X119080952Y-88033057D02*
X119080952Y-87133057D01*
X118604761Y-88033057D02*
X118604761Y-87133057D01*
X118604761Y-87133057D02*
X118033333Y-88033057D01*
X118033333Y-88033057D02*
X118033333Y-87133057D01*
X117604761Y-87775914D02*
X117128571Y-87775914D01*
X117699999Y-88033057D02*
X117366666Y-87133057D01*
X117366666Y-87133057D02*
X117033333Y-88033057D01*
M02*
