%TF.GenerationSoftware,KiCad,Pcbnew,7.0.6-7.0.6~ubuntu22.04.1*%
%TF.CreationDate,2023-09-04T14:34:43+02:00*%
%TF.ProjectId,si-simulation-test-board,73692d73-696d-4756-9c61-74696f6e2d74,rev?*%
%TF.SameCoordinates,Original*%
%TF.FileFunction,Legend,Top*%
%TF.FilePolarity,Positive*%
%FSLAX46Y46*%
G04 Gerber Fmt 4.6, Leading zero omitted, Abs format (unit mm)*
G04 Created by KiCad (PCBNEW 7.0.6-7.0.6~ubuntu22.04.1) date 2023-09-04 14:34:43*
%MOMM*%
%LPD*%
G01*
G04 APERTURE LIST*
%ADD10C,0.150000*%
G04 APERTURE END LIST*
D10*
X137000000Y-98400000D02*
X137000000Y-97800000D01*
X100900000Y-99500000D02*
X100900000Y-98900000D01*
X100900000Y-98500000D02*
X100900000Y-97900000D01*
X137000000Y-94600000D02*
X137000000Y-94000000D01*
X137000000Y-100400000D02*
X137000000Y-99800000D01*
X100900000Y-100500000D02*
X100900000Y-99900000D01*
X100900000Y-94700000D02*
X100900000Y-94100000D01*
X100900000Y-101500000D02*
X100900000Y-100900000D01*
X137000000Y-97400000D02*
X137000000Y-96800000D01*
X137000000Y-93600000D02*
X137000000Y-93000000D01*
X100900000Y-93700000D02*
X100900000Y-93100000D01*
X100900000Y-97500000D02*
X100900000Y-96900000D01*
X137000000Y-101400000D02*
X137000000Y-100800000D01*
X137000000Y-99400000D02*
X137000000Y-98800000D01*
X114623809Y-94765700D02*
X114766666Y-94808557D01*
X114766666Y-94808557D02*
X115004761Y-94808557D01*
X115004761Y-94808557D02*
X115099999Y-94765700D01*
X115099999Y-94765700D02*
X115147618Y-94722842D01*
X115147618Y-94722842D02*
X115195237Y-94637128D01*
X115195237Y-94637128D02*
X115195237Y-94551414D01*
X115195237Y-94551414D02*
X115147618Y-94465700D01*
X115147618Y-94465700D02*
X115099999Y-94422842D01*
X115099999Y-94422842D02*
X115004761Y-94379985D01*
X115004761Y-94379985D02*
X114814285Y-94337128D01*
X114814285Y-94337128D02*
X114719047Y-94294271D01*
X114719047Y-94294271D02*
X114671428Y-94251414D01*
X114671428Y-94251414D02*
X114623809Y-94165700D01*
X114623809Y-94165700D02*
X114623809Y-94079985D01*
X114623809Y-94079985D02*
X114671428Y-93994271D01*
X114671428Y-93994271D02*
X114719047Y-93951414D01*
X114719047Y-93951414D02*
X114814285Y-93908557D01*
X114814285Y-93908557D02*
X115052380Y-93908557D01*
X115052380Y-93908557D02*
X115195237Y-93951414D01*
X115623809Y-94808557D02*
X115623809Y-93908557D01*
X115623809Y-94337128D02*
X116195237Y-94337128D01*
X116195237Y-94808557D02*
X116195237Y-93908557D01*
X116861904Y-93908557D02*
X117052380Y-93908557D01*
X117052380Y-93908557D02*
X117147618Y-93951414D01*
X117147618Y-93951414D02*
X117242856Y-94037128D01*
X117242856Y-94037128D02*
X117290475Y-94208557D01*
X117290475Y-94208557D02*
X117290475Y-94508557D01*
X117290475Y-94508557D02*
X117242856Y-94679985D01*
X117242856Y-94679985D02*
X117147618Y-94765700D01*
X117147618Y-94765700D02*
X117052380Y-94808557D01*
X117052380Y-94808557D02*
X116861904Y-94808557D01*
X116861904Y-94808557D02*
X116766666Y-94765700D01*
X116766666Y-94765700D02*
X116671428Y-94679985D01*
X116671428Y-94679985D02*
X116623809Y-94508557D01*
X116623809Y-94508557D02*
X116623809Y-94208557D01*
X116623809Y-94208557D02*
X116671428Y-94037128D01*
X116671428Y-94037128D02*
X116766666Y-93951414D01*
X116766666Y-93951414D02*
X116861904Y-93908557D01*
X118290475Y-94808557D02*
X117957142Y-94379985D01*
X117719047Y-94808557D02*
X117719047Y-93908557D01*
X117719047Y-93908557D02*
X118099999Y-93908557D01*
X118099999Y-93908557D02*
X118195237Y-93951414D01*
X118195237Y-93951414D02*
X118242856Y-93994271D01*
X118242856Y-93994271D02*
X118290475Y-94079985D01*
X118290475Y-94079985D02*
X118290475Y-94208557D01*
X118290475Y-94208557D02*
X118242856Y-94294271D01*
X118242856Y-94294271D02*
X118195237Y-94337128D01*
X118195237Y-94337128D02*
X118099999Y-94379985D01*
X118099999Y-94379985D02*
X117719047Y-94379985D01*
X118576190Y-93908557D02*
X119147618Y-93908557D01*
X118861904Y-94808557D02*
X118861904Y-93908557D01*
X120195238Y-94765700D02*
X120338095Y-94808557D01*
X120338095Y-94808557D02*
X120576190Y-94808557D01*
X120576190Y-94808557D02*
X120671428Y-94765700D01*
X120671428Y-94765700D02*
X120719047Y-94722842D01*
X120719047Y-94722842D02*
X120766666Y-94637128D01*
X120766666Y-94637128D02*
X120766666Y-94551414D01*
X120766666Y-94551414D02*
X120719047Y-94465700D01*
X120719047Y-94465700D02*
X120671428Y-94422842D01*
X120671428Y-94422842D02*
X120576190Y-94379985D01*
X120576190Y-94379985D02*
X120385714Y-94337128D01*
X120385714Y-94337128D02*
X120290476Y-94294271D01*
X120290476Y-94294271D02*
X120242857Y-94251414D01*
X120242857Y-94251414D02*
X120195238Y-94165700D01*
X120195238Y-94165700D02*
X120195238Y-94079985D01*
X120195238Y-94079985D02*
X120242857Y-93994271D01*
X120242857Y-93994271D02*
X120290476Y-93951414D01*
X120290476Y-93951414D02*
X120385714Y-93908557D01*
X120385714Y-93908557D02*
X120623809Y-93908557D01*
X120623809Y-93908557D02*
X120766666Y-93951414D01*
X121052381Y-93908557D02*
X121623809Y-93908557D01*
X121338095Y-94808557D02*
X121338095Y-93908557D01*
X121957143Y-93908557D02*
X121957143Y-94637128D01*
X121957143Y-94637128D02*
X122004762Y-94722842D01*
X122004762Y-94722842D02*
X122052381Y-94765700D01*
X122052381Y-94765700D02*
X122147619Y-94808557D01*
X122147619Y-94808557D02*
X122338095Y-94808557D01*
X122338095Y-94808557D02*
X122433333Y-94765700D01*
X122433333Y-94765700D02*
X122480952Y-94722842D01*
X122480952Y-94722842D02*
X122528571Y-94637128D01*
X122528571Y-94637128D02*
X122528571Y-93908557D01*
X123338095Y-94337128D02*
X123480952Y-94379985D01*
X123480952Y-94379985D02*
X123528571Y-94422842D01*
X123528571Y-94422842D02*
X123576190Y-94508557D01*
X123576190Y-94508557D02*
X123576190Y-94637128D01*
X123576190Y-94637128D02*
X123528571Y-94722842D01*
X123528571Y-94722842D02*
X123480952Y-94765700D01*
X123480952Y-94765700D02*
X123385714Y-94808557D01*
X123385714Y-94808557D02*
X123004762Y-94808557D01*
X123004762Y-94808557D02*
X123004762Y-93908557D01*
X123004762Y-93908557D02*
X123338095Y-93908557D01*
X123338095Y-93908557D02*
X123433333Y-93951414D01*
X123433333Y-93951414D02*
X123480952Y-93994271D01*
X123480952Y-93994271D02*
X123528571Y-94079985D01*
X123528571Y-94079985D02*
X123528571Y-94165700D01*
X123528571Y-94165700D02*
X123480952Y-94251414D01*
X123480952Y-94251414D02*
X123433333Y-94294271D01*
X123433333Y-94294271D02*
X123338095Y-94337128D01*
X123338095Y-94337128D02*
X123004762Y-94337128D01*
M02*
